<svg width="593" height="515" viewBox="0 0 593 515" fill="none" xmlns="http://www.w3.org/2000/svg">
<rect x="57.6797" width="478.118" height="514.122" rx="19.4885" fill="white"/>
<g clip-path="url(#clip0_5_487)">
<path d="M115.336 53.9393H115.292C113.138 53.9393 111.291 54.7333 109.956 56.1105V54.2771H104.904V77.9495H109.956V70.3482C111.264 71.7035 113.062 72.4974 115.19 72.493H115.221H115.234C117.802 72.493 119.974 71.5544 121.46 69.8964C122.951 68.2384 123.739 65.9181 123.735 63.2206C123.735 60.5187 122.956 58.1984 121.487 56.5404C120.023 54.8824 117.873 53.935 115.336 53.9393ZM117.588 66.7471C116.925 67.4313 115.884 67.8217 114.246 67.8261C112.59 67.8261 111.54 67.4313 110.873 66.7471C110.205 66.0628 109.813 64.94 109.813 63.2162C109.813 61.4924 110.205 60.3695 110.873 59.6853C111.54 59.001 112.59 58.6107 114.246 58.6063C115.884 58.6063 116.925 58.9966 117.588 59.6853C118.252 60.3695 118.648 61.4924 118.648 63.2162C118.648 64.94 118.256 66.0628 117.588 66.7471Z" fill="black"/>
<path d="M159.09 65.0891V65.0979L158.583 66.6638L158.111 65.133L154.333 54.2771H148.769L156.246 73.3484H150.193V77.9495H154.519C156.117 77.9495 157.381 77.6907 158.391 77.0152C159.402 76.3397 160.06 75.309 160.586 74.0019L168.472 54.2771H162.904L159.09 65.0891Z" fill="black"/>
<path d="M208.955 56.5404C207.49 54.8824 205.341 53.935 202.804 53.9394H202.759C200.605 53.9394 198.758 54.7333 197.423 56.1106V46.7723H192.372V72.151H197.423V70.3482C198.732 71.7036 200.53 72.4975 202.657 72.4931H202.688H202.702C205.27 72.4931 207.442 71.5544 208.928 69.8965C210.415 68.2385 211.202 65.9225 211.202 63.225V63.2163C211.202 60.5187 210.423 58.1984 208.955 56.5404ZM205.06 66.7472C204.397 67.4314 203.356 67.8218 201.718 67.8218C200.062 67.8218 199.012 67.427 198.345 66.7428C197.677 66.0585 197.285 64.9356 197.285 63.2119C197.285 61.4881 197.677 60.3652 198.345 59.681C199.012 58.9967 200.062 58.6063 201.718 58.602C203.356 58.602 204.397 58.9923 205.06 59.681C205.724 60.3652 206.12 61.4881 206.12 63.2119C206.12 64.9356 205.724 66.0585 205.06 66.7428V66.7472Z" fill="black"/>
<path d="M219.213 67.177V46.7723H214.162V67.9227C214.162 70.2561 216.085 72.151 218.452 72.151H222.257V67.1726H219.213V67.177Z" fill="black"/>
<path d="M143.669 54.2771C142.098 54.2771 140.754 55.1938 140.135 56.5097C138.778 54.8736 136.78 53.935 134.416 53.9393H134.381H134.367C131.848 53.9393 129.708 54.8824 128.248 56.5404C126.783 58.1984 126.005 60.5187 126.005 63.2162C126.005 65.9181 126.792 68.2384 128.283 69.8964C129.77 71.5544 131.942 72.4974 134.51 72.493H134.523H134.554C136.655 72.493 138.444 71.7211 139.753 70.3876V72.1509H144.804V59.2554H146.66V54.2771H143.673H143.669ZM138.862 66.7427C138.195 67.427 137.144 67.8173 135.489 67.8217C133.833 67.8217 132.792 67.4313 132.138 66.7471C131.479 66.0672 131.092 64.94 131.092 63.2162C131.092 61.488 131.479 60.3651 132.138 59.6853H132.142C132.801 59.001 133.838 58.615 135.493 58.6107C137.149 58.6107 138.199 59.0054 138.867 59.6897C139.534 60.3739 139.926 61.4968 139.926 63.2206C139.926 64.9444 139.534 66.0672 138.867 66.7515L138.862 66.7427Z" fill="black"/>
<path d="M186.27 54.2771C184.699 54.2771 183.355 55.1938 182.736 56.5097C181.379 54.8736 179.38 53.935 177.017 53.9393H176.981H176.968C174.449 53.9393 172.308 54.8824 170.849 56.5404C169.384 58.1984 168.605 60.5143 168.605 63.2118V63.2206C168.605 65.9181 169.393 68.2384 170.884 69.8964C172.371 71.5544 174.543 72.4974 177.111 72.493H177.124H177.155C179.256 72.493 181.045 71.7211 182.353 70.3876V72.1509H187.405V59.2554H189.261V54.2771H186.274H186.27ZM181.463 66.7427C180.796 67.427 179.745 67.8173 178.09 67.8217C176.434 67.8217 175.393 67.4313 174.738 66.7471C174.08 66.0672 173.692 64.94 173.692 63.2162C173.692 61.488 174.08 60.3651 174.738 59.6853C175.397 59.001 176.434 58.615 178.09 58.6107C179.745 58.6107 180.796 59.0054 181.463 59.6897C182.131 60.3739 182.522 61.4968 182.522 63.2206C182.522 64.9444 182.131 66.0672 181.463 66.7515V66.7427Z" fill="black"/>
<path d="M238.796 67.1726H229.659C228.364 67.1726 227.144 68.0411 226.962 69.2999C226.744 70.8351 227.946 72.151 229.463 72.151H238.6C239.895 72.151 241.115 71.2825 241.297 70.0236C241.515 68.4885 240.314 67.1726 238.796 67.1726Z" fill="url(#paint0_linear_5_487)"/>
</g>
<path d="M105.622 140.579C105.622 134.577 108.845 131.173 114.483 131.173C119.628 131.173 122.798 134.057 123.058 139.02H119.031C118.797 136.214 117.186 134.681 114.483 134.681C111.365 134.681 109.65 136.786 109.65 140.579C109.65 144.373 111.365 146.478 114.483 146.478C117.316 146.478 118.875 144.997 119.29 141.879H123.318C123.032 146.816 119.576 149.986 114.483 149.986C108.845 149.986 105.622 146.582 105.622 140.579ZM132.324 139.644C130.401 139.644 129.595 140.657 129.595 143.022V149.726H125.828V131.433H129.595V139.124H130.323L131.544 136.578C132.272 136.448 133.155 136.37 133.857 136.37C137.495 136.37 138.794 138.397 138.794 142.372V149.726H135.026V143.022C135.026 140.631 134.221 139.644 132.324 139.644ZM140.99 143.178C140.99 138.813 143.381 136.37 147.564 136.37C151.774 136.37 154.138 138.813 154.138 143.178C154.138 147.543 151.748 149.986 147.564 149.986C143.381 149.986 140.99 147.543 140.99 143.178ZM144.628 143.178C144.628 145.439 145.693 146.712 147.564 146.712C149.435 146.712 150.5 145.439 150.5 143.178C150.5 140.917 149.435 139.644 147.564 139.644C145.693 139.644 144.628 140.917 144.628 143.178ZM155.962 143.178C155.962 138.813 158.352 136.37 162.536 136.37C166.745 136.37 169.11 138.813 169.11 143.178C169.11 147.543 166.719 149.986 162.536 149.986C158.352 149.986 155.962 147.543 155.962 143.178ZM159.599 143.178C159.599 145.439 160.665 146.712 162.536 146.712C164.407 146.712 165.472 145.439 165.472 143.178C165.472 140.917 164.407 139.644 162.536 139.644C160.665 139.644 159.599 140.917 159.599 143.178ZM179.248 145.828C179.248 143.724 171.063 146.4 171.063 140.709C171.063 137.903 173.116 136.37 176.806 136.37C180.366 136.37 182.418 137.981 182.756 141.021H179.248C179.014 139.904 178.235 139.358 176.806 139.358C175.403 139.358 174.701 139.748 174.701 140.528C174.701 142.632 182.886 139.956 182.886 145.646C182.886 148.453 180.807 149.986 177.014 149.986C173.22 149.986 171.063 148.323 170.803 145.179H174.311C174.441 146.374 175.377 146.998 177.014 146.998C178.495 146.998 179.248 146.608 179.248 145.828ZM196.72 143.75H188.119C188.275 145.724 189.367 146.842 191.159 146.842C192.693 146.842 193.498 146.192 193.784 144.659H197.448C197.188 148.037 194.875 149.986 191.159 149.986C186.95 149.986 184.585 147.517 184.585 143.178C184.585 138.864 186.95 136.37 191.03 136.37C194.901 136.37 197.188 138.89 197.188 143.178C197.188 143.568 197.032 143.75 196.72 143.75ZM191.03 139.514C189.548 139.514 188.535 140.45 188.197 142.009L192.952 141.931C193.264 141.931 193.42 141.801 193.42 141.489C193.42 140.294 192.485 139.514 191.03 139.514ZM209.791 149.726H205.894V131.433H213.377C218.314 131.433 220.991 133.59 220.991 137.591C220.991 141.645 218.366 143.75 213.377 143.75H209.791V149.726ZM213.767 135.071H209.791V140.112H213.767C215.846 140.112 216.963 139.254 216.963 137.591C216.963 135.928 215.872 135.071 213.767 135.071ZM235.046 146.036C235.046 146.348 235.202 146.478 235.514 146.478H236.215V149.726H234.526C232.551 149.726 231.668 148.921 231.538 146.972H230.81L229.485 149.726C228.732 149.908 228.082 149.986 227.276 149.986C224.418 149.986 222.807 148.609 222.807 146.192C222.807 143.828 224.002 142.658 226.731 142.372L230.81 141.957C231.148 141.931 231.278 141.801 231.278 141.515C231.278 140.216 230.317 139.488 228.654 139.488C226.991 139.488 226.107 140.112 225.925 141.801H222.287C222.573 138.345 224.756 136.37 228.784 136.37C232.837 136.37 235.046 138.501 235.046 142.372V146.036ZM226.445 145.517C226.445 146.322 227.173 146.842 228.29 146.842C230.317 146.842 231.2 145.906 231.278 143.594L228.29 144.009C226.991 144.191 226.445 144.633 226.445 145.517ZM236.475 154.923V151.649H237.827C239.516 151.649 240.139 151.285 240.529 149.986L240.581 149.804L235.826 136.63H239.827L241.75 142.996L242.14 145.75H242.92L243.309 142.996L245.232 136.63H249.182L244.635 149.206C242.946 153.884 241.698 154.923 237.827 154.923H236.475ZM262.939 139.384H263.666L264.991 136.63C265.927 136.448 266.602 136.37 267.2 136.37C270.474 136.37 271.877 138.189 271.877 142.372V149.726H268.11V143.022C268.11 140.631 267.382 139.644 265.667 139.644C263.926 139.644 263.198 140.657 263.198 143.022V149.726H259.431V143.022C259.431 140.631 258.703 139.644 256.988 139.644C255.247 139.644 254.52 140.657 254.52 143.022V149.726H250.752V136.63H254.26V139.384H254.987L256.313 136.63C257.248 136.448 257.924 136.37 258.521 136.37C260.938 136.37 262.341 137.331 262.939 139.384ZM286.22 143.75H277.619C277.775 145.724 278.866 146.842 280.659 146.842C282.192 146.842 282.998 146.192 283.284 144.659H286.948C286.688 148.037 284.375 149.986 280.659 149.986C276.45 149.986 274.085 147.517 274.085 143.178C274.085 138.864 276.45 136.37 280.529 136.37C284.401 136.37 286.688 138.89 286.688 143.178C286.688 143.568 286.532 143.75 286.22 143.75ZM280.529 139.514C279.048 139.514 278.035 140.45 277.697 142.009L282.452 141.931C282.764 141.931 282.92 141.801 282.92 141.489C282.92 140.294 281.985 139.514 280.529 139.514ZM295.641 139.644C293.718 139.644 292.913 140.657 292.913 143.022V149.726H289.145V136.63H292.653V139.384H293.381L294.706 136.63C295.459 136.448 296.239 136.37 297.044 136.37C300.604 136.37 302.111 138.163 302.111 142.372V149.726H298.344V143.022C298.344 140.631 297.538 139.644 295.641 139.644ZM309.514 144.399C309.514 145.776 310.215 146.452 311.592 146.452H313.515V149.726H311.203C307.695 149.726 305.746 148.037 305.746 144.529V139.904H303.407V136.63H305.746V132.992H309.514V136.63H313.515V139.904H309.514V144.399ZM337.247 131.433H343.613V149.726H339.716V138.709L340.027 135.954L339.248 135.798L334.804 149.726H330.517L326.074 135.798L325.294 135.954L325.606 138.709V149.726H321.708V131.433H328.074L331.764 142.632L332.284 145.387H333.037L333.557 142.632L337.247 131.433ZM358.338 143.75H349.737C349.893 145.724 350.984 146.842 352.777 146.842C354.31 146.842 355.116 146.192 355.401 144.659H359.065C358.805 148.037 356.493 149.986 352.777 149.986C348.567 149.986 346.203 147.517 346.203 143.178C346.203 138.864 348.567 136.37 352.647 136.37C356.519 136.37 358.805 138.89 358.805 143.178C358.805 143.568 358.649 143.75 358.338 143.75ZM352.647 139.514C351.166 139.514 350.152 140.45 349.815 142.009L354.57 141.931C354.882 141.931 355.038 141.801 355.038 141.489C355.038 140.294 354.102 139.514 352.647 139.514ZM366.076 144.399C366.076 145.776 366.778 146.452 368.155 146.452H370.078V149.726H367.765C364.257 149.726 362.308 148.037 362.308 144.529V139.904H359.97V136.63H362.308V132.992H366.076V136.63H370.078V139.904H366.076V144.399ZM378.518 139.644C376.595 139.644 375.79 140.657 375.79 143.022V149.726H372.022V131.433H375.79V139.124H376.517L377.739 136.578C378.466 136.448 379.35 136.37 380.051 136.37C383.689 136.37 384.988 138.397 384.988 142.372V149.726H381.221V143.022C381.221 140.631 380.415 139.644 378.518 139.644ZM387.184 143.178C387.184 138.813 389.575 136.37 393.759 136.37C397.968 136.37 400.333 138.813 400.333 143.178C400.333 147.543 397.942 149.986 393.759 149.986C389.575 149.986 387.184 147.543 387.184 143.178ZM390.822 143.178C390.822 145.439 391.888 146.712 393.759 146.712C395.629 146.712 396.695 145.439 396.695 143.178C396.695 140.917 395.629 139.644 393.759 139.644C391.888 139.644 390.822 140.917 390.822 143.178ZM409.64 149.882C409.172 149.96 408.834 149.986 408.314 149.986C404.443 149.986 402.156 147.465 402.156 143.178C402.156 138.89 404.443 136.37 408.314 136.37C409.562 136.37 410.575 136.63 411.511 137.175V131.433H415.278V149.726H411.77V146.972H411.043L409.64 149.882ZM408.782 146.712C410.679 146.712 411.77 145.439 411.77 143.178C411.77 140.917 410.679 139.644 408.782 139.644C406.859 139.644 405.794 140.917 405.794 143.178C405.794 145.439 406.859 146.712 408.782 146.712Z" fill="#022128"/>
<path opacity="0.6" d="M108.153 189H105.571V176.88H110.529C113.8 176.88 115.573 178.309 115.573 180.96C115.573 183.646 113.834 185.04 110.529 185.04H108.153V189ZM110.787 179.29H108.153V182.63H110.787C112.164 182.63 112.905 182.062 112.905 180.96C112.905 179.859 112.182 179.29 110.787 179.29ZM119.612 189H117.116V176.88H119.612V189ZM129.199 185.04H123.501C123.604 186.348 124.327 187.089 125.515 187.089C126.531 187.089 127.064 186.658 127.254 185.643H129.681C129.509 187.881 127.977 189.172 125.515 189.172C122.726 189.172 121.16 187.536 121.16 184.661C121.16 181.804 122.726 180.151 125.429 180.151C127.994 180.151 129.509 181.821 129.509 184.661C129.509 184.92 129.406 185.04 129.199 185.04ZM125.429 182.234C124.448 182.234 123.776 182.854 123.553 183.887L126.703 183.835C126.909 183.835 127.013 183.749 127.013 183.542C127.013 182.751 126.393 182.234 125.429 182.234ZM139.073 186.555C139.073 186.762 139.176 186.848 139.383 186.848H139.847V189H138.729C137.42 189 136.835 188.466 136.749 187.175H136.267L135.389 189C134.89 189.12 134.459 189.172 133.926 189.172C132.032 189.172 130.965 188.259 130.965 186.658C130.965 185.092 131.757 184.317 133.564 184.128L136.267 183.852C136.491 183.835 136.577 183.749 136.577 183.56C136.577 182.699 135.94 182.217 134.838 182.217C133.736 182.217 133.151 182.63 133.03 183.749H130.62C130.81 181.459 132.256 180.151 134.924 180.151C137.61 180.151 139.073 181.563 139.073 184.128V186.555ZM133.375 186.211C133.375 186.744 133.857 187.089 134.597 187.089C135.94 187.089 136.525 186.469 136.577 184.937L134.597 185.212C133.736 185.333 133.375 185.625 133.375 186.211ZM146.136 186.417C146.136 185.023 140.713 186.796 140.713 183.026C140.713 181.167 142.073 180.151 144.518 180.151C146.876 180.151 148.236 181.218 148.46 183.233H146.136C145.981 182.492 145.464 182.131 144.518 182.131C143.588 182.131 143.123 182.389 143.123 182.906C143.123 184.3 148.546 182.527 148.546 186.297C148.546 188.156 147.169 189.172 144.655 189.172C142.142 189.172 140.713 188.07 140.541 185.987H142.865C142.951 186.779 143.571 187.192 144.655 187.192C145.637 187.192 146.136 186.934 146.136 186.417ZM157.711 185.04H152.013C152.116 186.348 152.839 187.089 154.027 187.089C155.042 187.089 155.576 186.658 155.766 185.643H158.193C158.021 187.881 156.489 189.172 154.027 189.172C151.238 189.172 149.672 187.536 149.672 184.661C149.672 181.804 151.238 180.151 153.941 180.151C156.506 180.151 158.021 181.821 158.021 184.661C158.021 184.92 157.917 185.04 157.711 185.04ZM153.941 182.234C152.96 182.234 152.288 182.854 152.064 183.887L155.215 183.835C155.421 183.835 155.525 183.749 155.525 183.542C155.525 182.751 154.905 182.234 153.941 182.234ZM168.78 186.417C168.78 185.023 163.358 186.796 163.358 183.026C163.358 181.167 164.718 180.151 167.162 180.151C169.521 180.151 170.881 181.218 171.104 183.233H168.78C168.626 182.492 168.109 182.131 167.162 182.131C166.233 182.131 165.768 182.389 165.768 182.906C165.768 184.3 171.191 182.527 171.191 186.297C171.191 188.156 169.813 189.172 167.3 189.172C164.787 189.172 163.358 188.07 163.186 185.987H165.51C165.596 186.779 166.215 187.192 167.3 187.192C168.281 187.192 168.78 186.934 168.78 186.417ZM180.355 185.04H174.657C174.761 186.348 175.484 187.089 176.671 187.089C177.687 187.089 178.221 186.658 178.41 185.643H180.837C180.665 187.881 179.133 189.172 176.671 189.172C173.883 189.172 172.316 187.536 172.316 184.661C172.316 181.804 173.883 180.151 176.585 180.151C179.15 180.151 180.665 181.821 180.665 184.661C180.665 184.92 180.562 185.04 180.355 185.04ZM176.585 182.234C175.604 182.234 174.933 182.854 174.709 183.887L177.859 183.835C178.066 183.835 178.169 183.749 178.169 183.542C178.169 182.751 177.549 182.234 176.585 182.234ZM184.789 189H182.293V176.88H184.789V189ZM194.376 185.04H188.678C188.781 186.348 189.504 187.089 190.692 187.089C191.708 187.089 192.241 186.658 192.431 185.643H194.858C194.686 187.881 193.154 189.172 190.692 189.172C187.903 189.172 186.337 187.536 186.337 184.661C186.337 181.804 187.903 180.151 190.606 180.151C193.171 180.151 194.686 181.821 194.686 184.661C194.686 184.92 194.583 185.04 194.376 185.04ZM190.606 182.234C189.625 182.234 188.953 182.854 188.73 183.887L191.88 183.835C192.086 183.835 192.19 183.749 192.19 183.542C192.19 182.751 191.57 182.234 190.606 182.234ZM195.97 184.661C195.97 181.769 197.553 180.151 200.325 180.151C202.718 180.151 204.422 181.511 204.491 184.111H202.081C201.977 182.974 201.358 182.32 200.325 182.32C199.085 182.32 198.38 183.164 198.38 184.661C198.38 186.159 199.085 187.003 200.325 187.003C201.409 187.003 202.081 186.366 202.236 185.212H204.663C204.474 187.743 202.924 189.172 200.325 189.172C197.553 189.172 195.97 187.553 195.97 184.661ZM209.404 185.471C209.404 186.383 209.869 186.83 210.782 186.83H212.055V189H210.523C208.199 189 206.908 187.881 206.908 185.557V182.492H205.359V180.323H206.908V177.913H209.404V180.323H212.055V182.492H209.404V185.471ZM220.668 185.471C220.668 186.383 221.133 186.83 222.045 186.83H223.319V189H221.787C219.463 189 218.172 187.881 218.172 185.557V182.492H216.622V180.323H218.172V177.913H220.668V180.323H223.319V182.492H220.668V185.471ZM228.911 182.32C227.637 182.32 227.103 182.992 227.103 184.558V189H224.607V176.88H227.103V181.976H227.585L228.394 180.289C228.876 180.203 229.462 180.151 229.926 180.151C232.336 180.151 233.197 181.494 233.197 184.128V189H230.701V184.558C230.701 182.974 230.167 182.32 228.911 182.32ZM242.691 185.04H236.993C237.097 186.348 237.82 187.089 239.007 187.089C240.023 187.089 240.557 186.658 240.746 185.643H243.173C243.001 187.881 241.469 189.172 239.007 189.172C236.219 189.172 234.652 187.536 234.652 184.661C234.652 181.804 236.219 180.151 238.921 180.151C241.486 180.151 243.001 181.821 243.001 184.661C243.001 184.92 242.898 185.04 242.691 185.04ZM238.921 182.234C237.94 182.234 237.269 182.854 237.045 183.887L240.195 183.835C240.402 183.835 240.505 183.749 240.505 183.542C240.505 182.751 239.885 182.234 238.921 182.234ZM253.21 189.172C252.384 189.172 251.712 189.017 251.093 188.638V192.442H248.597V180.323H250.921V182.148H251.403L252.332 180.22C252.642 180.168 252.866 180.151 253.21 180.151C255.775 180.151 257.29 181.821 257.29 184.661C257.29 187.502 255.775 189.172 253.21 189.172ZM252.9 182.32C251.644 182.32 250.921 183.164 250.921 184.661C250.921 186.159 251.644 187.003 252.9 187.003C254.174 187.003 254.88 186.159 254.88 184.661C254.88 183.164 254.174 182.32 252.9 182.32ZM266.771 186.555C266.771 186.762 266.874 186.848 267.08 186.848H267.545V189H266.426C265.118 189 264.533 188.466 264.447 187.175H263.965L263.087 189C262.587 189.12 262.157 189.172 261.623 189.172C259.73 189.172 258.662 188.259 258.662 186.658C258.662 185.092 259.454 184.317 261.262 184.128L263.965 183.852C264.188 183.835 264.274 183.749 264.274 183.56C264.274 182.699 263.637 182.217 262.536 182.217C261.434 182.217 260.849 182.63 260.728 183.749H258.318C258.507 181.459 259.954 180.151 262.622 180.151C265.307 180.151 266.771 181.563 266.771 184.128V186.555ZM261.072 186.211C261.072 186.744 261.554 187.089 262.295 187.089C263.637 187.089 264.223 186.469 264.274 184.937L262.295 185.212C261.434 185.333 261.072 185.625 261.072 186.211ZM267.718 192.442V190.273H268.613C269.732 190.273 270.145 190.032 270.403 189.172L270.438 189.051L267.287 180.323H269.938L271.212 184.541L271.47 186.366H271.987L272.245 184.541L273.519 180.323H276.136L273.123 188.655C272.004 191.754 271.178 192.442 268.613 192.442H267.718ZM285.249 182.148H285.731L286.609 180.323C287.229 180.203 287.676 180.151 288.072 180.151C290.241 180.151 291.171 181.356 291.171 184.128V189H288.675V184.558C288.675 182.974 288.193 182.32 287.057 182.32C285.903 182.32 285.421 182.992 285.421 184.558V189H282.925V184.558C282.925 182.974 282.443 182.32 281.307 182.32C280.154 182.32 279.672 182.992 279.672 184.558V189H277.176V180.323H279.5V182.148H279.982L280.859 180.323C281.479 180.203 281.927 180.151 282.323 180.151C283.924 180.151 284.853 180.788 285.249 182.148ZM300.673 185.04H294.975C295.078 186.348 295.801 187.089 296.989 187.089C298.005 187.089 298.538 186.658 298.728 185.643H301.155C300.983 187.881 299.451 189.172 296.989 189.172C294.2 189.172 292.634 187.536 292.634 184.661C292.634 181.804 294.2 180.151 296.903 180.151C299.468 180.151 300.983 181.821 300.983 184.661C300.983 184.92 300.88 185.04 300.673 185.04ZM296.903 182.234C295.922 182.234 295.25 182.854 295.027 183.887L298.177 183.835C298.383 183.835 298.487 183.749 298.487 183.542C298.487 182.751 297.867 182.234 296.903 182.234ZM306.915 182.32C305.641 182.32 305.107 182.992 305.107 184.558V189H302.611V180.323H304.935V182.148H305.417L306.295 180.323C306.794 180.203 307.31 180.151 307.844 180.151C310.203 180.151 311.201 181.339 311.201 184.128V189H308.705V184.558C308.705 182.974 308.171 182.32 306.915 182.32ZM316.105 185.471C316.105 186.383 316.57 186.83 317.482 186.83H318.756V189H317.224C314.9 189 313.609 187.881 313.609 185.557V182.492H312.059V180.323H313.609V177.913H316.105V180.323H318.756V182.492H316.105V185.471ZM323.667 184.661C323.667 181.769 325.251 180.151 328.023 180.151C330.811 180.151 332.378 181.769 332.378 184.661C332.378 187.553 330.794 189.172 328.023 189.172C325.251 189.172 323.667 187.553 323.667 184.661ZM326.077 184.661C326.077 186.159 326.783 187.003 328.023 187.003C329.262 187.003 329.968 186.159 329.968 184.661C329.968 183.164 329.262 182.32 328.023 182.32C326.783 182.32 326.077 183.164 326.077 184.661ZM338.544 189.172C337.717 189.172 337.046 189.017 336.426 188.638V192.442H333.93V180.323H336.254V182.148H336.736L337.666 180.22C337.976 180.168 338.199 180.151 338.544 180.151C341.109 180.151 342.623 181.821 342.623 184.661C342.623 187.502 341.109 189.172 338.544 189.172ZM338.234 182.32C336.977 182.32 336.254 183.164 336.254 184.661C336.254 186.159 336.977 187.003 338.234 187.003C339.508 187.003 340.213 186.159 340.213 184.661C340.213 183.164 339.508 182.32 338.234 182.32ZM347.357 185.471C347.357 186.383 347.822 186.83 348.734 186.83H350.008V189H348.476C346.152 189 344.861 187.881 344.861 185.557V182.492H343.311V180.323H344.861V177.913H347.357V180.323H350.008V182.492H347.357V185.471ZM352.553 179.549C351.503 179.549 350.866 178.946 350.866 177.948C350.866 176.949 351.503 176.347 352.553 176.347C353.586 176.347 354.223 176.949 354.223 177.948C354.223 178.946 353.586 179.549 352.553 179.549ZM353.792 180.323V189H351.296V180.323H353.792ZM355.339 184.661C355.339 181.769 356.923 180.151 359.695 180.151C362.484 180.151 364.05 181.769 364.05 184.661C364.05 187.553 362.466 189.172 359.695 189.172C356.923 189.172 355.339 187.553 355.339 184.661ZM357.75 184.661C357.75 186.159 358.455 187.003 359.695 187.003C360.934 187.003 361.64 186.159 361.64 184.661C361.64 183.164 360.934 182.32 359.695 182.32C358.455 182.32 357.75 183.164 357.75 184.661ZM369.906 182.32C368.632 182.32 368.098 182.992 368.098 184.558V189H365.602V180.323H367.926V182.148H368.408L369.286 180.323C369.786 180.203 370.302 180.151 370.836 180.151C373.194 180.151 374.192 181.339 374.192 184.128V189H371.696V184.558C371.696 182.974 371.163 182.32 369.906 182.32ZM383.316 185.471C383.316 186.383 383.781 186.83 384.693 186.83H385.967V189H384.435C382.111 189 380.82 187.881 380.82 185.557V182.492H379.271V180.323H380.82V177.913H383.316V180.323H385.967V182.492H383.316V185.471ZM391.559 182.32C390.285 182.32 389.751 182.992 389.751 184.558V189H387.255V176.88H389.751V181.976H390.233L391.042 180.289C391.524 180.203 392.11 180.151 392.574 180.151C394.985 180.151 395.845 181.494 395.845 184.128V189H393.349V184.558C393.349 182.974 392.815 182.32 391.559 182.32ZM405.58 186.555C405.58 186.762 405.684 186.848 405.89 186.848H406.355V189H405.236C403.928 189 403.343 188.466 403.256 187.175H402.774L401.896 189C401.397 189.12 400.967 189.172 400.433 189.172C398.54 189.172 397.472 188.259 397.472 186.658C397.472 185.092 398.264 184.317 400.072 184.128L402.774 183.852C402.998 183.835 403.084 183.749 403.084 183.56C403.084 182.699 402.447 182.217 401.346 182.217C400.244 182.217 399.659 182.63 399.538 183.749H397.128C397.317 181.459 398.763 180.151 401.432 180.151C404.117 180.151 405.58 181.563 405.58 184.128V186.555ZM399.882 186.211C399.882 186.744 400.364 187.089 401.105 187.089C402.447 187.089 403.033 186.469 403.084 184.937L401.105 185.212C400.244 185.333 399.882 185.625 399.882 186.211ZM410.5 185.471C410.5 186.383 410.964 186.83 411.877 186.83H413.151V189H411.619C409.295 189 408.003 187.881 408.003 185.557V182.492H406.454V180.323H408.003V177.913H410.5V180.323H413.151V182.492H410.5V185.471ZM104.969 213.442V211.273H105.864C106.983 211.273 107.396 211.032 107.654 210.172L107.689 210.051L104.538 201.323H107.189L108.463 205.541L108.721 207.366H109.238L109.496 205.541L110.77 201.323H113.387L110.374 209.655C109.255 212.754 108.429 213.442 105.864 213.442H104.969ZM113.746 205.661C113.746 202.769 115.33 201.151 118.101 201.151C120.89 201.151 122.457 202.769 122.457 205.661C122.457 208.553 120.873 210.172 118.101 210.172C115.33 210.172 113.746 208.553 113.746 205.661ZM116.156 205.661C116.156 207.159 116.862 208.003 118.101 208.003C119.341 208.003 120.047 207.159 120.047 205.661C120.047 204.164 119.341 203.32 118.101 203.32C116.862 203.32 116.156 204.164 116.156 205.661ZM128.209 208.003C129.483 208.003 130.017 207.331 130.017 205.765V201.323H132.513V210H130.189V208.175H129.707L128.829 210C128.227 210.12 127.693 210.172 127.194 210.172C124.784 210.172 123.923 208.829 123.923 206.195V201.323H126.419V205.765C126.419 207.348 126.953 208.003 128.209 208.003ZM142.979 210.172C142.153 210.172 141.482 210.017 140.862 209.638V213.442H138.366V201.323H140.69V203.148H141.172L142.101 201.22C142.411 201.168 142.635 201.151 142.979 201.151C145.544 201.151 147.059 202.821 147.059 205.661C147.059 208.502 145.544 210.172 142.979 210.172ZM142.669 203.32C141.413 203.32 140.69 204.164 140.69 205.661C140.69 207.159 141.413 208.003 142.669 208.003C143.943 208.003 144.649 207.159 144.649 205.661C144.649 204.164 143.943 203.32 142.669 203.32ZM154.439 201.203V203.665H152.735C151.582 203.665 151.1 204.284 151.1 205.73V210H148.604V201.323H150.928V203.32H151.41L152.374 201.323C152.856 201.203 153.338 201.151 153.751 201.151C154.026 201.151 154.267 201.168 154.439 201.203ZM163.258 206.04H157.56C157.664 207.348 158.387 208.089 159.575 208.089C160.59 208.089 161.124 207.658 161.313 206.643H163.74C163.568 208.881 162.036 210.172 159.575 210.172C156.786 210.172 155.219 208.536 155.219 205.661C155.219 202.804 156.786 201.151 159.488 201.151C162.053 201.151 163.568 202.821 163.568 205.661C163.568 205.92 163.465 206.04 163.258 206.04ZM159.488 203.234C158.507 203.234 157.836 203.854 157.612 204.887L160.762 204.835C160.969 204.835 161.072 204.749 161.072 204.542C161.072 203.751 160.452 203.234 159.488 203.234ZM164.34 203.492V201.323H165.889C165.889 198.999 167.18 197.88 169.504 197.88H171.036V200.049H169.59C168.781 200.049 168.385 200.428 168.385 201.237V201.323H171.036V203.492H168.385V210H165.889V203.492H164.34ZM179.851 206.04H174.153C174.256 207.348 174.979 208.089 176.167 208.089C177.183 208.089 177.716 207.658 177.906 206.643H180.333C180.161 208.881 178.629 210.172 176.167 210.172C173.378 210.172 171.812 208.536 171.812 205.661C171.812 202.804 173.378 201.151 176.081 201.151C178.646 201.151 180.161 202.821 180.161 205.661C180.161 205.92 180.058 206.04 179.851 206.04ZM176.081 203.234C175.1 203.234 174.428 203.854 174.205 204.887L177.355 204.835C177.562 204.835 177.665 204.749 177.665 204.542C177.665 203.751 177.045 203.234 176.081 203.234ZM187.625 201.203V203.665H185.92C184.767 203.665 184.285 204.284 184.285 205.73V210H181.789V201.323H184.113V203.32H184.595L185.559 201.323C186.041 201.203 186.523 201.151 186.936 201.151C187.212 201.151 187.453 201.168 187.625 201.203Z" fill="#022128"/>
<rect x="104.452" y="407.585" width="384.573" height="59.7647" rx="9.09463" fill="#7CDDAE"/>
<path d="M227.284 444.475H224.166V429.841H230.152C234.102 429.841 236.243 431.566 236.243 434.767C236.243 438.01 234.144 439.694 230.152 439.694H227.284V444.475ZM230.464 432.751H227.284V436.784H230.464C232.127 436.784 233.021 436.098 233.021 434.767C233.021 433.437 232.148 432.751 230.464 432.751ZM247.487 441.523C247.487 441.773 247.612 441.877 247.861 441.877H248.423V444.475H247.071C245.492 444.475 244.785 443.831 244.681 442.272H244.099L243.039 444.475C242.436 444.621 241.916 444.683 241.272 444.683C238.985 444.683 237.696 443.581 237.696 441.648C237.696 439.756 238.652 438.821 240.835 438.592L244.099 438.26C244.369 438.239 244.473 438.135 244.473 437.906C244.473 436.867 243.704 436.285 242.373 436.285C241.043 436.285 240.336 436.784 240.191 438.135H237.28C237.509 435.37 239.255 433.79 242.477 433.79C245.72 433.79 247.487 435.495 247.487 438.592V441.523ZM240.607 441.108C240.607 441.752 241.189 442.168 242.082 442.168C243.704 442.168 244.411 441.419 244.473 439.569L242.082 439.902C241.043 440.047 240.607 440.401 240.607 441.108ZM248.631 448.633V446.014H249.712C251.063 446.014 251.562 445.722 251.874 444.683L251.915 444.538L248.111 433.998H251.313L252.851 439.091L253.163 441.295H253.786L254.098 439.091L255.636 433.998H258.796L255.158 444.059C253.807 447.801 252.809 448.633 249.712 448.633H248.631ZM277.461 441.357H275.174V444.475H272.16V441.357H264.843V438.966L270.809 429.841H275.174V438.655H277.461V441.357ZM271.869 432.959L268.21 438.655H272.16V435.329L272.41 433.125L271.869 432.959ZM285.348 434.747C288.195 434.747 290.004 436.617 290.004 439.569C290.004 442.854 288.008 444.683 284.454 444.683C280.816 444.683 278.903 442.875 278.82 439.341H282.042C282.125 441.17 282.874 441.981 284.454 441.981C286.075 441.981 286.886 441.17 286.886 439.569C286.886 438.01 286.096 437.158 284.682 437.158C283.643 437.158 282.978 437.636 282.666 438.613L279.028 438.197L280.13 429.841H289.588V432.543H282.52L281.98 436.638L282.562 436.701L283.518 434.954C284.183 434.809 284.682 434.747 285.348 434.747ZM293.609 444.683C292.153 444.683 291.26 443.789 291.26 442.355C291.26 440.921 292.174 440.027 293.609 440.027C295.043 440.027 295.958 440.921 295.958 442.355C295.958 443.789 295.064 444.683 293.609 444.683ZM303.74 434.747C306.588 434.747 308.396 436.617 308.396 439.569C308.396 442.854 306.401 444.683 302.846 444.683C299.208 444.683 297.296 442.875 297.212 439.341H300.435C300.518 441.17 301.266 441.981 302.846 441.981C304.467 441.981 305.278 441.17 305.278 439.569C305.278 438.01 304.488 437.158 303.075 437.158C302.035 437.158 301.37 437.636 301.058 438.613L297.42 438.197L298.522 429.841H307.98V432.543H300.913L300.372 436.638L300.954 436.701L301.91 434.954C302.576 434.809 303.075 434.747 303.74 434.747ZM316.408 429.633C320.399 429.633 322.54 432.252 322.54 437.158C322.54 442.064 320.399 444.683 316.408 444.683C312.417 444.683 310.275 442.064 310.275 437.158C310.275 432.252 312.417 429.633 316.408 429.633ZM316.408 441.981C318.424 441.981 319.422 440.359 319.422 437.158C319.422 433.957 318.424 432.335 316.408 432.335C314.391 432.335 313.394 433.957 313.394 437.158C313.394 440.359 314.391 441.981 316.408 441.981ZM332.948 432.647V435.536H339.704V438.343H332.948V441.669H339.912V444.475H329.83V429.841H339.912V432.647H332.948ZM355.034 437.886C355.034 442.23 352.748 444.683 348.673 444.683C344.599 444.683 342.312 442.251 342.312 437.886V429.841H345.43V437.782C345.43 440.505 346.511 441.877 348.673 441.877C350.835 441.877 351.916 440.505 351.916 437.782V429.841H355.034V437.886ZM370.031 444.475H366.934L366.372 441.045C366.185 439.86 365.686 439.486 364.356 439.486H360.76V444.475H357.641V429.841H363.628C367.474 429.841 369.511 431.296 369.511 433.936C369.511 435.744 368.389 436.846 366.331 437.158V437.782C368.305 437.886 369.137 438.717 369.47 440.837L370.031 444.475ZM363.94 432.751H360.76V436.576H363.94C365.478 436.576 366.289 435.931 366.289 434.663C366.289 433.416 365.478 432.751 363.94 432.751Z" fill="#022128"/>
<g filter="url(#filter0_d_5_487)">
<rect x="20" y="254.652" width="553.473" height="107.836" rx="19.4885" fill="white"/>
<rect x="20.6496" y="255.302" width="552.174" height="106.537" rx="18.8389" stroke="url(#paint1_linear_5_487)" stroke-width="1.29923"/>
</g>
<rect x="32.9922" y="268.945" width="168.9" height="80.5524" rx="7.7954" fill="#E5EAE9"/>
<g clip-path="url(#clip1_5_487)">
<path d="M87.4834 299.899C80.8967 299.899 75.8918 304.854 75.8918 310.773C75.8918 316.124 79.9946 319.844 85.5803 319.844C92.1669 319.844 97.1347 314.74 97.1347 308.833C97.1718 303.445 93.069 299.899 87.471 299.899H87.4834ZM86.0004 314.814C83.4795 314.814 81.7247 313.121 81.7247 310.526C81.7247 307.647 83.8996 304.903 87.0385 304.903C89.5595 304.903 91.3142 306.658 91.3142 309.266C91.3513 312.182 89.1393 314.827 86.0004 314.827V314.814Z" fill="black"/>
<path d="M127.11 299.899C120.524 299.899 115.556 304.854 115.556 310.773C115.556 316.124 119.659 319.844 125.244 319.844C131.831 319.844 136.799 314.74 136.799 308.833C136.836 303.445 132.733 299.899 127.11 299.899ZM125.664 314.814C123.144 314.814 121.389 313.121 121.389 310.526C121.389 307.647 123.564 304.903 126.703 304.903C129.224 304.903 130.978 306.658 130.978 309.266C130.978 312.182 128.803 314.827 125.664 314.827V314.814Z" fill="black"/>
<path d="M156.2 306.203C156.2 302.619 153.469 300.333 148.501 300.333H141.531L138.467 319.438H144.336L145.3 313.42H145.572L148.674 319.438H155.397L151.084 312.752C154.297 311.628 156.187 309.193 156.187 306.215L156.2 306.203ZM146.82 309.366H145.955L146.61 305.35H147.401C149.23 305.35 150.194 305.919 150.194 307.142C150.194 308.588 148.81 309.354 146.808 309.354L146.82 309.366Z" fill="black"/>
<path d="M69.1526 307.956C66.9158 306.794 66.4215 306.51 66.4215 305.88C66.4215 305.101 67.3236 304.718 68.5223 304.718C69.9311 304.718 72.0814 304.891 74.1822 306.93C74.7012 305.274 75.5662 303.804 76.6661 302.494C73.7126 300.776 70.9444 299.899 68.4358 299.899C63.431 299.899 60.5269 302.642 60.5269 305.954C60.5269 308.808 62.6277 310.279 65.1116 311.577C67.3484 312.738 67.9045 313.121 67.9045 313.826C67.9045 314.604 66.9776 315.024 65.7295 315.024C63.5916 315.024 61.1077 313.653 59.6248 312.244L58.7598 317.558C60.2798 318.682 62.4918 319.844 65.8284 319.844C71.0062 319.844 73.7991 317.175 73.7991 313.764C73.7991 310.946 72.0072 309.439 69.1402 307.956H69.1526Z" fill="black"/>
<path d="M112.628 308.699H105.732L106.288 305.362H113.666C114.63 303.361 116.113 301.63 117.942 300.333H105.868C103.174 300.333 100.9 302.199 100.517 304.732L98.1694 319.475H104.039L105.003 313.457H111.973L112.492 310.182C112.529 309.651 112.566 309.193 112.628 308.699Z" fill="black"/>
<path d="M156.34 300.322C157.922 301.557 158.898 303.275 159.096 305.351H163.989L161.753 319.427H167.623L169.859 305.351H175.309L176.1 300.322H156.328H156.34Z" fill="black"/>
</g>
<rect x="211.637" y="268.945" width="168.9" height="80.5524" rx="7.7954" fill="#E5EAE9"/>
<path d="M280.431 310.562C279.322 309.017 278.962 307.309 279.331 305.448C279.597 304.105 280.336 303.03 281.313 302.109C281.587 301.85 281.872 301.6 282.147 301.341C282.137 301.322 282.128 301.303 282.118 301.293C282.004 301.149 281.891 301.015 281.767 300.871C280.82 299.768 279.692 298.981 278.26 298.683C277.151 298.453 276.061 298.54 274.981 298.856C274.251 299.067 273.54 299.307 272.81 299.518C272.298 299.672 271.767 299.729 271.236 299.585C270.867 299.489 270.488 299.403 270.127 299.288C269.246 299.019 268.364 298.741 267.445 298.645C265.596 298.444 264.013 299 262.724 300.363C261.473 301.687 260.8 303.289 260.525 305.074C260.212 307.089 260.345 309.084 260.866 311.051C261.454 313.268 262.43 315.292 263.71 317.183C264.222 317.931 264.81 318.612 265.568 319.14C266.317 319.658 267.123 319.946 268.033 319.735C268.611 319.601 269.16 319.389 269.72 319.188C270.45 318.919 271.18 318.689 271.976 318.708C272.611 318.727 273.227 318.881 273.824 319.082C274.412 319.274 274.99 319.466 275.578 319.648C276.753 320.003 277.805 319.716 278.753 318.958C279.028 318.737 279.303 318.497 279.54 318.228C280.829 316.818 281.786 315.187 282.516 313.421C282.64 313.114 282.744 312.807 282.867 312.491C282.744 312.443 282.64 312.404 282.535 312.356C281.654 311.982 280.99 311.339 280.44 310.572L280.431 310.562ZM273.227 298.683C273.909 298.415 274.459 297.954 274.962 297.426C276.071 296.265 276.715 294.874 276.838 293.253C276.857 292.955 276.819 292.658 276.81 292.332C273.322 293.032 271.502 295.354 271.388 298.971C271.398 298.971 271.407 298.99 271.416 298.99C272.033 298.952 272.649 298.904 273.227 298.674V298.683ZM301.92 298.3C300.574 297.052 298.441 296.352 295.521 296.333C293.142 296.313 291.275 296.505 289.853 296.736L289.692 319.61L292.64 319.629L292.706 310.351C293.379 310.524 294.194 310.572 295.076 310.572C297.958 310.591 300.507 309.756 302.081 308.077C303.247 306.887 303.863 305.237 303.882 303.145C303.901 301.053 303.161 299.393 301.91 298.29L301.92 298.3ZM295.161 308.173C294.175 308.173 293.36 308.087 292.716 307.914L292.782 298.914C293.294 298.779 294.28 298.683 295.569 298.693C298.83 298.712 300.953 300.209 300.934 303.27C300.915 306.465 298.725 308.202 295.161 308.173ZM329.968 303.279L326.641 313.009C326.224 314.208 325.873 315.475 325.56 316.473H325.494C325.228 315.475 324.83 314.17 324.47 313.066L320.944 303.212L317.683 303.193L323.645 318.555C323.778 318.929 323.845 319.178 323.845 319.341C323.845 319.505 323.74 319.754 323.598 320.061C322.906 321.606 321.882 322.757 321.067 323.41C320.176 324.158 319.19 324.628 318.442 324.868L319.171 327.411C319.92 327.276 321.38 326.778 322.849 325.482C324.897 323.707 326.375 320.8 328.556 315.12L333.115 303.299L329.958 303.279H329.968ZM316.934 309.603C316.963 306.273 315.759 302.79 310.735 302.752C308.669 302.733 306.697 303.308 305.332 304.191L305.996 306.187C307.152 305.438 308.754 304.968 310.28 304.978C313.636 305.007 313.996 307.482 313.986 308.854V309.2C307.636 309.123 304.09 311.291 304.062 315.312C304.043 317.72 305.721 320.099 309.048 320.119C311.389 320.138 313.162 318.977 314.091 317.682H314.195L314.413 319.783L317.124 319.802C316.925 318.67 316.868 317.259 316.878 315.82L316.925 309.603H316.934ZM314.015 314.179C314.015 314.486 313.939 314.832 313.835 315.139C313.351 316.54 311.986 317.912 309.844 317.893C308.318 317.883 307.038 316.943 307.048 314.985C307.067 311.761 310.773 311.195 314.034 311.291L314.015 314.179Z" fill="black"/>
<rect x="390.281" y="268.945" width="168.9" height="80.5524" rx="7.7954" fill="#E5EAE9"/>
<path d="M472.759 302.03L472.704 309.489L477.299 309.525C478.397 309.525 479.303 309.168 480.026 308.445C480.767 307.713 481.143 306.844 481.152 305.828C481.152 304.83 480.795 303.97 480.063 303.229C479.349 302.469 478.452 302.085 477.354 302.075L472.759 302.039V302.03ZM472.686 312.106L472.622 320.755L469.876 320.736L470.032 299.385L477.317 299.44C479.166 299.449 480.731 300.08 482.021 301.325C483.33 302.57 483.971 304.071 483.961 305.837C483.952 307.649 483.284 309.15 481.957 310.358C480.676 311.566 479.102 312.152 477.226 312.143L472.686 312.106Z" fill="black"/>
<path d="M486.662 316.384C486.662 317.097 486.955 317.701 487.559 318.177C488.163 318.653 488.867 318.9 489.691 318.909C490.844 318.909 491.878 318.498 492.784 317.647C493.7 316.795 494.157 315.798 494.166 314.645C493.315 313.958 492.125 313.62 490.588 313.601C489.471 313.601 488.538 313.858 487.787 314.388C487.037 314.919 486.662 315.578 486.653 316.374M490.286 305.786C492.318 305.804 493.91 306.353 495.082 307.442C496.253 308.531 496.82 310.023 496.811 311.908L496.747 320.914L494.121 320.895L494.139 318.864H494.02C492.876 320.52 491.357 321.344 489.462 321.335C487.851 321.326 486.506 320.841 485.426 319.88C484.346 318.919 483.815 317.72 483.825 316.292C483.834 314.782 484.41 313.583 485.563 312.695C486.717 311.808 488.245 311.368 490.158 311.387C491.787 311.396 493.132 311.707 494.185 312.311V311.689C494.194 310.737 493.828 309.922 493.077 309.254C492.327 308.586 491.448 308.247 490.432 308.238C488.895 308.229 487.678 308.861 486.781 310.151L484.374 308.613C485.719 306.719 487.696 305.776 490.304 305.795" fill="black"/>
<path d="M511.929 306.423L502.603 327.409L499.775 327.391L503.226 320.051L497.295 306.323L500.288 306.341L504.562 316.866H504.626L508.937 306.405L511.929 306.423Z" fill="black"/>
<path d="M442.906 312.103C442.659 311.362 442.531 310.566 442.54 309.751C442.549 308.937 442.687 308.15 442.943 307.408L442.97 304.251L438.888 304.223C438.037 305.862 437.552 307.729 437.534 309.715C437.516 311.701 437.982 313.568 438.806 315.233L442.906 312.103Z" fill="black"/>
<path d="M461.603 310.16C461.603 309.299 461.539 308.457 461.411 307.661L449.834 307.579L449.797 312.301L456.432 312.347C456.139 313.885 455.27 315.193 453.952 316.054L453.934 319.12L457.897 319.147C460.23 317.024 461.585 313.875 461.612 310.151" fill="black"/>
<path d="M449.724 322.064C453.037 322.092 455.838 321.021 457.888 319.163L453.953 316.07C452.845 316.802 451.427 317.223 449.761 317.214C446.558 317.186 443.858 315.017 442.906 312.098L438.824 312.07L438.797 315.228C440.792 319.255 444.92 322.037 449.724 322.064Z" fill="black"/>
<path d="M449.871 302.39C451.683 302.399 453.303 303.04 454.566 304.266L458.099 300.789C455.984 298.793 453.221 297.558 449.908 297.531C445.103 297.494 440.929 300.221 438.879 304.211L442.934 307.406C443.931 304.504 446.659 302.372 449.862 302.39" fill="black"/>
<defs>
<filter id="filter0_d_5_487" x="0.511509" y="245.558" width="592.45" height="146.813" filterUnits="userSpaceOnUse" color-interpolation-filters="sRGB">
<feFlood flood-opacity="0" result="BackgroundImageFix"/>
<feColorMatrix in="SourceAlpha" type="matrix" values="0 0 0 0 0 0 0 0 0 0 0 0 0 0 0 0 0 0 127 0" result="hardAlpha"/>
<feOffset dy="10.3939"/>
<feGaussianBlur stdDeviation="9.74425"/>
<feComposite in2="hardAlpha" operator="out"/>
<feColorMatrix type="matrix" values="0 0 0 0 0 0 0 0 0 0 0 0 0 0 0 0 0 0 0.25 0"/>
<feBlend mode="normal" in2="BackgroundImageFix" result="effect1_dropShadow_5_487"/>
<feBlend mode="normal" in="SourceGraphic" in2="effect1_dropShadow_5_487" result="shape"/>
</filter>
<linearGradient id="paint0_linear_5_487" x1="243.376" y1="69.664" x2="229.481" y2="69.664" gradientUnits="userSpaceOnUse">
<stop stop-color="#7CDDAE" stop-opacity="0"/>
<stop offset="0.41" stop-color="#7CDDAE" stop-opacity="0.44"/>
<stop offset="0.82" stop-color="#7CDDAE" stop-opacity="0.84"/>
<stop offset="1" stop-color="#7CDDAE"/>
</linearGradient>
<linearGradient id="paint1_linear_5_487" x1="296.737" y1="254.652" x2="296.737" y2="362.489" gradientUnits="userSpaceOnUse">
<stop stop-color="#7CDDAE"/>
<stop offset="1" stop-color="#6FE0EF"/>
</linearGradient>
<clipPath id="clip0_5_487">
<rect width="136.419" height="31.1816" fill="white" transform="translate(104.904 46.7723)"/>
</clipPath>
<clipPath id="clip1_5_487">
<rect width="117.336" height="19.9453" fill="white" transform="translate(58.7742 299.899)"/>
</clipPath>
</defs>
</svg>
