<svg width="87" height="20" viewBox="0 0 87 20" fill="none" xmlns="http://www.w3.org/2000/svg">
<path d="M11.1048 4.65906H9.8982V4.98368H10.8486L13.209 14.6892H1.02573L3.38415 4.98368H4.33456V4.65906H3.12798L0.474243 15.1214H13.7585L11.1048 4.65906Z" fill="white"/>
<path d="M9.44063 0.425171H4.79223C4.50867 0.425171 4.27985 0.653974 4.27985 0.937534V5.49795H4.71205V0.937534C4.71205 0.892555 4.74919 0.857354 4.79416 0.855399H5.72894V4.16815H4.86067L6.10442 5.49599H8.13236L9.3761 4.16815H8.50784V0.855399H9.44258C9.48756 0.855399 9.52473 0.892555 9.52473 0.937534V5.49795H9.95495V0.937534C9.95495 0.653974 9.72419 0.425171 9.44258 0.425171H9.44063Z" fill="white"/>
<path d="M6.13917 11.1301H8.09279C8.21404 11.1301 8.31378 11.0343 8.31573 10.9111C8.31573 10.9052 8.31573 10.8994 8.31573 10.8935L8.24142 9.6126C8.23164 9.48158 8.1241 9.37793 7.99112 9.37598H6.24282C6.1118 9.37598 6.00228 9.47962 5.9925 9.6126L5.91819 10.8935C5.91037 11.0148 6.00229 11.1204 6.12353 11.1282C6.1294 11.1282 6.13526 11.1282 6.14113 11.1282L6.13917 11.1301Z" fill="white"/>
<path d="M5.16633 9.37976H3.4024C3.26746 9.38367 3.15013 9.4795 3.11885 9.61052L2.85876 10.8992C2.83334 10.999 2.89395 11.1007 2.99369 11.1261C3.01129 11.13 3.03085 11.132 3.04845 11.132H5.01575C5.14873 11.13 5.25825 11.0283 5.27194 10.8973L5.38144 9.61639C5.39318 9.49905 5.30713 9.39345 5.1898 9.38172C5.18198 9.38172 5.17415 9.38172 5.16438 9.38172L5.16633 9.37976Z" fill="white"/>
<path d="M6.22029 8.86931H8.01553C8.11331 8.86931 8.19347 8.79109 8.19347 8.69526C8.19347 8.69135 8.19347 8.68549 8.19347 8.68158L8.13286 7.65685C8.12504 7.55125 8.03899 7.46912 7.93338 7.46912H6.30048C6.19488 7.46912 6.10883 7.55321 6.10101 7.65685L6.04037 8.68158C6.03451 8.77935 6.10688 8.86344 6.20466 8.86931C6.20857 8.86931 6.21443 8.86931 6.21834 8.86931H6.22029Z" fill="white"/>
<path d="M5.38526 7.46912H3.73476C3.62721 7.47303 3.53333 7.54929 3.50791 7.6549L3.30063 8.68549C3.28107 8.76567 3.32799 8.84584 3.40817 8.86736C3.42186 8.87127 3.4375 8.87322 3.45119 8.87127H5.26402C5.36962 8.86931 5.45763 8.78913 5.46936 8.68353L5.55735 7.65881C5.56713 7.56494 5.49868 7.48085 5.40481 7.47107C5.39895 7.47107 5.39113 7.47107 5.38526 7.47107V7.46912Z" fill="white"/>
<path d="M10.7761 8.86931C10.8583 8.87322 10.9287 8.81064 10.9326 8.72851C10.9326 8.71286 10.9326 8.69918 10.9287 8.68549L10.7194 7.6549C10.694 7.54929 10.6021 7.47303 10.4926 7.46912H8.84794C8.75407 7.46912 8.67584 7.54343 8.67389 7.63729C8.67389 7.64316 8.67389 7.65099 8.67389 7.65685L8.76188 8.68158C8.77361 8.78718 8.86162 8.86736 8.96723 8.86931H10.7742H10.7761Z" fill="white"/>
<path d="M6.29714 7.02142H7.93592C8.02197 7.02142 8.0904 6.95298 8.09235 6.86889C8.09235 6.86498 8.09235 6.86107 8.09235 6.85715L8.04542 6.0671C8.03955 5.97519 7.96331 5.90283 7.87139 5.90283H6.36362C6.27171 5.90283 6.19544 5.97519 6.18958 6.0671L6.14264 6.85715C6.13678 6.9432 6.20131 7.01556 6.28735 7.02142C6.29127 7.02142 6.29519 7.02142 6.2991 7.02142H6.29714Z" fill="white"/>
<path d="M10.4306 7.02143C10.503 7.02534 10.5636 6.96863 10.5675 6.89822C10.5675 6.88454 10.5675 6.8728 10.5636 6.85911L10.4032 6.06319C10.3817 5.97128 10.2996 5.90479 10.2057 5.90088H8.68426C8.60212 5.90088 8.53369 5.96541 8.53174 6.04755C8.53174 6.05341 8.53174 6.05928 8.53174 6.06515L8.60018 6.85716C8.60996 6.94907 8.68621 7.01947 8.78008 7.02143H10.4306Z" fill="white"/>
<path d="M5.55042 5.90088H4.02313C3.9273 5.90479 3.84712 5.97128 3.82561 6.06319L3.66526 6.85911C3.64766 6.92951 3.69068 6.99992 3.75913 7.01752C3.77086 7.02143 3.78454 7.02143 3.79627 7.02143H5.4546C5.54651 7.02143 5.62475 6.94907 5.63452 6.85716L5.70296 6.06515C5.71079 5.98301 5.65213 5.9087 5.57 5.90088C5.56413 5.90088 5.55825 5.90088 5.55238 5.90088H5.55042Z" fill="white"/>
<path d="M11.1837 11.13C11.2854 11.1359 11.3734 11.0557 11.3793 10.954C11.3793 10.9364 11.3793 10.9169 11.3734 10.8993L11.1133 9.61055C11.082 9.47757 10.9667 9.3837 10.8298 9.37979H9.06975C8.95242 9.37784 8.85462 9.4717 8.85266 9.58904C8.85266 9.59686 8.85266 9.60664 8.85266 9.61446L8.96219 10.8954C8.97587 11.0264 9.08537 11.1281 9.21835 11.13H11.1837Z" fill="white"/>
<path d="M8.07369 11.7109H6.15919C6.00079 11.7129 5.86976 11.8361 5.85998 11.9945L5.76416 13.6176C5.75438 13.7643 5.86389 13.8895 6.01056 13.8992C6.01838 13.8992 6.02425 13.8992 6.03207 13.8992H8.20276C8.34943 13.8992 8.46872 13.7839 8.47067 13.6372C8.47067 13.6294 8.47067 13.6235 8.47067 13.6157L8.37485 11.9925C8.36312 11.8341 8.23405 11.7109 8.07564 11.709L8.07369 11.7109Z" fill="white"/>
<path d="M4.90908 11.7107H2.98088C2.81856 11.7166 2.6797 11.83 2.64254 11.9884L2.31402 13.6213C2.28468 13.7406 2.35703 13.8618 2.47632 13.8931C2.49783 13.899 2.51936 13.9009 2.54283 13.899H4.72328C4.88168 13.8951 5.01468 13.7758 5.03032 13.6174L5.16916 11.9923C5.18285 11.8515 5.08115 11.7263 4.94035 11.7107C4.93057 11.7107 4.92081 11.7107 4.91103 11.7107H4.90908Z" fill="white"/>
<path d="M11.5903 11.9884C11.5531 11.83 11.4143 11.7166 11.25 11.7107H9.32374C9.18294 11.7088 9.06562 11.8202 9.06366 11.963C9.06366 11.9728 9.06366 11.9825 9.06366 11.9943L9.2025 13.6194C9.21814 13.7778 9.35114 13.899 9.50954 13.901H11.69C11.8132 13.9068 11.9169 13.813 11.9247 13.6898C11.9247 13.6683 11.9247 13.6448 11.9188 13.6233L11.5883 11.9904L11.5903 11.9884Z" fill="white"/>
<path d="M35.9033 4.66099H34.063V15.1214H35.9033V4.66099ZM29.925 9.96061C29.9387 10.7507 29.7275 11.529 29.3208 12.2056C28.6226 13.5374 26.976 14.0497 25.6462 13.3516C25.4155 13.2303 25.2043 13.0778 25.0165 12.8959C24.3203 12.0511 23.9781 10.9677 24.0642 9.87652C23.9722 8.6973 24.4181 7.53765 25.2786 6.72608C25.7186 6.29976 26.3052 6.06118 26.9173 6.05727C27.551 6.07487 28.1611 6.29976 28.6519 6.70066C29.9837 7.81338 29.925 9.85892 29.925 9.96061ZM30.8637 18.0489C31.642 17.0203 31.7046 15.9525 31.7613 13.7603L31.7379 4.66099H29.9857V6.27629C29.7549 5.90669 29.4713 5.57424 29.1408 5.29068C28.4368 4.71574 27.5471 4.41849 26.6397 4.45565C25.2297 4.45565 23.9136 5.1577 23.1255 6.32518C22.4058 7.39684 22.0421 8.66993 22.089 9.96061C22.0773 10.7076 22.1829 11.4508 22.4 12.1665C22.66 13.0582 23.1685 13.8561 23.8647 14.4702C24.645 15.1057 25.6384 15.4167 26.6416 15.3404C27.549 15.3052 28.4231 14.9884 29.1428 14.433C29.4127 14.2042 29.6493 13.9383 29.8468 13.6449L29.8312 15.0803C29.8175 15.5536 29.7353 16.0229 29.5887 16.4727C29.4889 16.766 29.3286 17.0359 29.1193 17.2667C28.5092 17.9237 27.6331 18.266 26.7414 18.1936C25.8359 18.1897 24.9363 18.0411 24.0798 17.7497C23.72 17.6148 23.3738 17.4466 23.0473 17.2471L22.8517 19.0677C23.147 19.187 23.3621 19.2672 23.677 19.3748C24.6313 19.6662 25.6247 19.8148 26.622 19.8167C27.6605 19.8539 28.6891 19.6231 29.6121 19.1479C30.1069 18.882 30.5352 18.5085 30.8637 18.0528M33.9398 2.1774H35.9541V0.112305H33.9398V2.1774ZM42.7341 6.21958C43.1682 6.22349 43.5985 6.30954 44.0013 6.4699V4.63165C43.9094 4.63165 43.3442 4.54365 42.8749 4.54365C41.9323 4.50063 41.0229 4.89761 40.4109 5.61727C40.2231 5.86953 40.053 6.13549 39.9004 6.40927L39.8066 4.6649H38.0466C38.1033 5.97709 38.1502 6.89035 38.1502 8.18103C38.1502 9.69661 38.1209 10.7663 38.1209 12.2662V15.1233H40.0197V10.0036C40.0764 9.01215 40.1351 7.698 41.1501 6.80626C41.5842 6.4171 42.1474 6.20589 42.7302 6.21763M52.3458 9.79439C52.3458 10.9364 51.9899 12.6124 50.5857 13.4044C49.7448 13.862 48.7358 13.8933 47.8694 13.4865C47.6895 13.3907 47.5174 13.2812 47.3571 13.156C46.9151 12.7903 46.5729 12.3171 46.3637 11.7813C46.1036 11.1398 45.9862 10.4495 46.0156 9.75919C45.9921 8.62104 46.4536 7.52787 47.2828 6.74955C47.8538 6.26065 48.5852 5.99469 49.3381 6.00251C50.5681 6.0162 51.6515 6.81408 52.0309 7.98352C52.2382 8.56433 52.3458 9.17838 52.3458 9.79634M52.7545 13.9754C53.8085 12.8334 54.362 11.3158 54.2935 9.76114C54.3561 7.79578 53.3255 5.95949 51.6163 4.98757C49.1601 3.85724 46.2463 4.69228 44.764 6.95097C44.277 7.86814 44.0287 8.89091 44.0365 9.92737C43.9368 11.4997 44.5293 13.0367 45.6596 14.1338C45.8689 14.3137 46.0918 14.476 46.3265 14.6208C47.1713 15.1331 48.151 15.3776 49.1367 15.3248C49.8935 15.3521 50.6483 15.2113 51.3465 14.9161C51.8706 14.6912 52.3477 14.3724 52.7545 13.9735" fill="white"/>
<path d="M55.9192 6.88445C55.976 8.90652 55.976 10.3439 55.976 12.3757C55.976 14.9102 55.9329 17.4465 55.9192 19.9771H57.7868V13.7055C57.9648 13.9421 58.1623 14.1651 58.3774 14.3704C59.0892 14.9942 60.0084 15.3326 60.9549 15.3189C62.2084 15.3247 63.4072 14.8046 64.2578 13.8854C65.265 12.6925 65.7773 11.1594 65.6913 9.60075C65.6834 8.81852 65.5426 8.04216 65.2728 7.30686C64.6685 5.53706 62.9847 4.36566 61.1152 4.41651C60.0807 4.40282 59.0795 4.78807 58.3246 5.49403C58.0763 5.71892 57.8592 5.97511 57.6773 6.25671L57.5971 4.659H55.8371C55.886 5.49403 55.8938 6.05529 55.9232 6.8825L55.9192 6.88445ZM57.7536 9.80022C57.7536 9.30742 57.8279 8.81656 57.9687 8.34331C58.2953 7.03503 59.4491 6.10222 60.7984 6.05724C61.915 6.07093 62.9143 6.74756 63.3426 7.78011C63.6438 8.45283 63.7748 9.18617 63.7279 9.92147C63.7279 10.471 63.6379 11.0166 63.4561 11.5348C63.1197 12.7747 62.005 13.6449 60.7182 13.6684C59.4041 13.6175 58.2835 12.7023 57.9687 11.4253C57.8142 10.8973 57.7418 10.3497 57.7536 9.80218V9.80022Z" fill="white"/>
<path d="M84.9621 4.66101L82.629 10.3224L81.575 13.0641L81.5026 13.2128C81.2367 12.4286 80.8729 11.4488 80.5385 10.518L78.3757 4.66101H76.3692L80.5698 15.1195L78.5223 19.9791H80.3958L86.9431 4.66101H84.9621Z" fill="white"/>
<path d="M74.9935 6.01626C74.4479 5.103 73.0418 4.45961 71.3991 4.45961C70.2414 4.41072 69.0954 4.71971 68.1196 5.34354V6.98818C68.9938 6.40933 70.0028 6.0671 71.0471 5.9967C72.0914 5.94585 73.0711 6.49342 73.5737 7.41059C73.7106 7.85646 73.7751 8.32384 73.7615 8.79122C73.2784 8.76776 72.7622 8.7482 72.2596 8.7482C71.0628 8.68171 69.8659 8.86945 68.7473 9.29772C67.5916 9.74359 66.8348 10.8622 66.8485 12.1001C66.8309 13.0251 67.2161 13.9109 67.9045 14.5289C68.5303 15.0022 69.293 15.2622 70.0771 15.2681C71.0373 15.317 71.9897 15.0745 72.811 14.5739C73.2198 14.2453 73.5913 13.8718 73.9199 13.4631V15.1234H75.5176V8.37273C75.5508 7.55725 75.3709 6.74569 74.9935 6.02212V6.01626ZM73.8084 10.4085C73.826 10.8857 73.7732 11.3609 73.65 11.8224C73.5503 12.147 73.3919 12.4501 73.1826 12.7161C72.6077 13.4318 71.7335 13.8425 70.8144 13.8229C69.9539 13.8229 68.8099 13.3751 68.8099 12.147C68.8099 10.9189 70.2336 10.2853 71.0217 10.1523C71.4793 10.0839 71.9408 10.0565 72.4043 10.0663C72.8717 10.0663 73.341 10.08 73.8103 10.1191V10.4065L73.8084 10.4085Z" fill="white"/>
</svg>
