<svg width="69" height="12" viewBox="0 0 69 12" fill="none" xmlns="http://www.w3.org/2000/svg">
<path d="M16.7979 0.265991C12.9806 0.265991 10.0824 3.1407 10.0824 6.56492C10.0824 9.66256 12.4604 11.8235 15.6988 11.8235C19.5161 11.8235 22.3947 8.86859 22.3947 5.44437C22.4143 2.32522 20.0363 0.267947 16.7979 0.267947V0.265991ZM15.9394 8.9077C14.4805 8.9077 13.4616 7.92991 13.4616 6.4202C13.4616 4.74818 14.721 3.1583 16.5397 3.1583C17.9986 3.1583 19.0194 4.17715 19.0194 5.68491C19.0389 7.37648 17.76 8.90575 15.9413 8.90575L15.9394 8.9077Z" fill="white"/>
<path d="M39.7655 0.265991C35.9482 0.265991 33.0696 3.1407 33.0696 6.56492C33.0696 9.66256 35.4476 11.8235 38.686 11.8235C42.5033 11.8235 45.3819 8.86859 45.3819 5.44437C45.4015 2.32522 43.0235 0.267947 39.7655 0.267947V0.265991ZM38.9265 8.9077C37.4677 8.9077 36.4488 7.92991 36.4488 6.4202C36.4488 4.74818 37.7082 3.1583 39.5269 3.1583C40.9858 3.1583 42.0046 4.17715 42.0046 5.68491C42.0046 7.37648 40.7452 8.90575 38.9265 8.90575V8.9077Z" fill="white"/>
<path d="M56.6179 3.91504C56.6179 1.83626 55.0378 0.510376 52.1612 0.510376H48.1229L46.3433 11.579H49.7421L50.3014 8.09412H50.4617L52.2609 11.579H56.1584L53.6591 7.70691C55.5189 7.05375 56.6179 5.64769 56.6179 3.91504ZM51.1814 5.74938H50.6808L51.0602 3.42615H51.5197C52.5797 3.42615 53.139 3.75273 53.139 4.46652C53.139 5.30155 52.3391 5.75133 51.1795 5.75133L51.1814 5.74938Z" fill="white"/>
<path d="M6.18481 4.93396C4.88631 4.26124 4.60469 4.09893 4.60469 3.73128C4.60469 3.28345 5.12487 3.05856 5.82497 3.05856C6.64436 3.05856 7.8842 3.16025 9.10252 4.34338C9.40173 3.38514 9.90238 2.5286 10.5419 1.7757C8.8229 0.776395 7.22324 0.267944 5.76438 0.267944C2.86621 0.267944 1.18633 1.85783 1.18633 3.7743C1.18633 5.42481 2.40663 6.28136 3.84399 7.03621C5.14249 7.70893 5.46321 7.93382 5.46321 8.34058C5.46321 8.78841 4.92344 9.03286 4.20378 9.03286C2.96394 9.03286 1.52467 8.23889 0.666167 7.42342L0.165527 10.5015C1.04554 11.1547 2.32448 11.8254 4.26246 11.8254C7.26037 11.8254 8.87961 10.2766 8.87961 8.29951C8.87961 6.66856 7.83923 5.79246 6.1809 4.93592L6.18481 4.93396Z" fill="white"/>
<path d="M31.3708 5.36217H27.3736L27.6943 3.42615H31.9712C32.5305 2.26453 33.3909 1.26523 34.4489 0.510376H27.4538C25.8952 0.510376 24.5752 1.58986 24.3561 3.0585L22.997 11.5985H26.3958L26.9551 8.11368H30.9934L31.2926 6.21872C31.3121 5.91365 31.3317 5.64769 31.3728 5.36217H31.3708Z" fill="white"/>
<path d="M56.6971 0.510376C57.6163 1.22416 58.1755 2.22347 58.2968 3.42615H61.1343L59.8359 11.579H63.2346L64.5331 3.42615H67.6914L68.1509 0.510376H56.6971Z" fill="white"/>
</svg>
