<svg width="43" height="36" viewBox="0 0 43 36" fill="none" xmlns="http://www.w3.org/2000/svg">
<path d="M0.942993 35.8539V0.242727C1.10531 0.232949 1.26762 0.215349 1.43189 0.215349C8.47589 0.215349 15.5199 0.199705 22.5639 0.229038C25.9099 0.242727 29.1992 0.667088 32.332 1.93626C37.4987 4.03069 40.5651 7.87927 41.7091 13.2786C42.4737 16.8906 42.4092 20.5104 41.4079 24.0695C39.9256 29.3418 36.4544 32.7386 31.3249 34.5123C28.4228 35.5155 25.4171 35.8617 22.3683 35.8695C15.4026 35.8891 8.43486 35.8754 1.46908 35.8754C1.30286 35.8754 1.13855 35.8617 0.944951 35.8519L0.942993 35.8539ZM2.66587 1.97928V34.1427H3.11762C9.51433 34.1427 15.9091 34.1427 22.3058 34.1427C25.0612 34.1427 27.7795 33.8631 30.4136 33.0124C35.2341 31.4577 38.5019 28.3503 39.8121 23.3909C40.7371 19.8904 40.7469 16.3508 39.8532 12.8386C38.8031 8.70844 36.3293 5.72031 32.465 3.90162C29.7311 2.61485 26.8153 2.02817 23.8252 1.99493C16.8908 1.92062 9.95433 1.95582 3.01984 1.94995C2.91424 1.94995 2.80668 1.96755 2.66783 1.97928H2.66587Z" fill="white"/>
<path d="M37.8154 16.5539H35.1539V11.1623H33.3625V18.3843H37.8917C37.8037 19.3112 37.7626 20.1678 37.6375 21.0126C37.1544 24.2882 35.7855 27.0573 32.9656 28.964C31.4519 29.9868 29.778 30.6732 27.9867 30.9665C26.2442 31.252 24.4764 31.4554 22.7144 31.5199C20.221 31.6118 17.7218 31.5453 15.2265 31.5453C15.074 31.5453 14.9214 31.5453 14.7278 31.5453V18.3902C16.1163 18.4078 17.5399 18.4449 18.4512 17.1053C19.0555 16.2175 19.1455 15.2104 19.0536 14.1798C18.9597 13.1375 18.5647 12.2457 17.6612 11.6395C16.7733 11.043 15.7545 11.135 14.7239 11.1056V4.57593C14.898 4.56811 15.0486 4.55247 15.1991 4.55247C17.7257 4.55247 20.2543 4.53096 22.7809 4.55833C25.3682 4.58767 27.9124 4.91034 30.3451 5.85488C34.6024 7.50931 36.9432 10.6773 37.6433 15.1302C37.7137 15.5839 37.7548 16.0435 37.8174 16.5519L37.8154 16.5539ZM32.4063 18.3706C31.6651 15.9144 30.9474 13.5345 30.2297 11.1526H27.6464C26.9248 13.5501 26.2071 15.9281 25.4757 18.3569H27.3374C27.4841 17.8895 27.621 17.4534 27.7618 16.9997H30.1124C30.2571 17.4613 30.3999 17.911 30.5446 18.3686H32.4043L32.4063 18.3706ZM24.406 11.1604H20.1682V18.3452H24.5605V16.5636H21.9615V15.5565H24.2789V13.7633H21.9596V12.94H24.4079V11.1623L24.406 11.1604Z" fill="white"/>
<path d="M5.26691 20.3812H11.513V31.5359H5.26691V20.3812Z" fill="white"/>
<path d="M8.36235 10.8321C10.5311 10.8242 12.3048 12.594 12.3028 14.7608C12.3009 16.9022 10.535 18.67 8.39362 18.6798C6.25422 18.6876 4.47466 16.9335 4.45119 14.7921C4.42772 12.6331 6.19948 10.8399 8.36235 10.834V10.8321Z" fill="white"/>
<path d="M14.7148 16.5187V12.9302C15.5068 13.0436 16.3555 12.6623 16.9657 13.4347C17.3978 13.9823 17.3978 15.4099 17.0028 16.0415C16.6743 16.5636 15.9351 16.724 14.7148 16.5187Z" fill="white"/>
<path d="M29.0021 13.1687C29.1918 13.816 29.3815 14.4653 29.5829 15.1517H28.2922C28.4917 14.475 28.6834 13.8219 28.877 13.1667C28.918 13.1667 28.9591 13.1667 29.0021 13.1667V13.1687Z" fill="white"/>
</svg>
