<svg width="68" height="32" viewBox="0 0 68 32" fill="none" xmlns="http://www.w3.org/2000/svg">
<path d="M32.0359 5.45325C32.3175 5.45325 32.5972 5.46889 32.8788 5.45325C33.0274 5.45325 33.0704 5.48258 33.0704 5.64489V9.85721C33.0548 10.1388 33.0704 10.4185 33.0998 10.7001C33.1878 11.5136 33.4694 12.2372 34.1343 12.7534C35.0065 13.4046 35.9959 13.522 37.0305 13.434C37.1185 13.4183 37.1185 13.3753 37.1185 13.3166V12.0005C37.1185 11.9125 37.1028 11.9125 37.0148 11.9125C36.8525 11.9282 36.6745 11.9282 36.4985 11.9125C35.7007 11.9125 35.0065 11.3356 34.8735 10.5378C34.8285 10.3598 34.8148 10.1975 34.8148 10.0215V5.58818C34.8148 5.4552 34.8598 5.42587 34.9771 5.42587H36.8095C36.9425 5.42587 36.9874 5.41022 36.9874 5.26356C36.9718 4.9096 36.9718 4.55368 36.9874 4.19972C36.9874 4.06674 36.9425 4.0374 36.8095 4.0374H34.9771C34.8598 4.0374 34.8148 4.00807 34.8148 3.87509V0.593628L33.1447 0.638608C33.1447 0.712921 33.1291 0.771587 33.1291 0.8459C33.1291 1.83542 33.1134 2.84059 33.1291 3.83011C33.1291 4.0374 33.0704 4.08043 32.8788 4.06674C32.5972 4.0511 32.3175 4.06674 32.0359 4.06674C31.9479 4.0511 31.9029 4.08238 31.9029 4.18407V5.32222C31.9029 5.42587 31.9323 5.4552 32.0359 5.4552V5.45325Z" fill="white"/>
<path d="M17.2877 5.37885C17.538 5.37885 17.7903 5.3945 18.0406 5.37885C18.2479 5.36321 18.2909 5.42383 18.2909 5.62917V13.1816C18.2909 13.3439 18.3065 13.4026 18.4982 13.4026C18.8971 13.387 19.3117 13.4026 19.7243 13.4026C20.0196 13.4026 19.9747 13.4476 19.9747 13.1523V5.58614C19.9747 5.42383 20.0196 5.39449 20.182 5.39449C20.7725 5.39449 21.3651 5.37885 21.94 5.39449C22.0886 5.41014 22.118 5.36516 22.118 5.21654C22.1023 4.87627 22.1023 4.536 22.118 4.19768C22.118 4.04906 22.073 4.00603 21.9263 4.00603H20.1389C20.0803 4.00603 20.006 4.03537 19.9903 3.91803C19.916 3.16513 20.3599 2.46895 21.0698 2.20299C21.4101 2.09935 21.7797 2.05436 22.1493 2.09934C22.2979 2.11498 22.3116 2.07001 22.3116 1.93703C22.2959 1.58307 22.2959 1.21347 22.3116 0.85755C22.3116 0.724571 22.2822 0.620922 22.1336 0.591588L21.1148 0.562256C21.0111 0.607234 20.9075 0.636569 20.7902 0.636569C19.8006 0.828216 19.0321 1.30146 18.6038 2.24797C18.3828 2.75055 18.2792 3.28247 18.2929 3.83003C18.2929 3.96301 18.2479 3.99235 18.1149 3.99235H17.2877C17.1997 3.99235 17.1704 4.02168 17.1704 4.10968V5.26152C17.1704 5.36516 17.1997 5.37885 17.2877 5.37885Z" fill="white"/>
<path d="M30.6324 12.2644C30.6617 12.2487 30.6773 12.2351 30.691 12.2194C30.7497 12.1607 30.7497 12.0571 30.691 11.9984C30.47 11.6445 30.2764 11.2749 30.0555 10.8896C29.9812 10.9483 29.9068 11.007 29.8482 11.0519C29.0796 11.6425 28.1331 11.9535 27.1729 11.9241C25.6515 11.8948 24.4097 10.698 24.3217 9.17457C24.306 8.99662 24.351 8.95359 24.529 8.95359H30.648C30.8103 8.95359 30.8553 8.90861 30.869 8.76194C30.9139 8.21438 30.8983 7.68246 30.7947 7.15055C30.5444 5.95373 29.9675 4.99354 28.843 4.41664C28.0901 4.04704 27.2316 3.91406 26.3907 4.04704C25.0316 4.20935 23.9521 4.86056 23.2286 6.02804C22.6673 6.97455 22.415 8.09705 22.548 9.19022C22.6653 10.5357 23.2285 11.6738 24.3354 12.4854C25.5772 13.4025 26.9813 13.6079 28.4734 13.2832C29.2576 13.1209 29.9948 12.767 30.6304 12.2644H30.6324ZM24.396 7.46148C24.8106 5.65844 26.4494 5.14216 27.6325 5.48048C28.534 5.73079 28.9623 6.39765 29.0953 7.26788C29.1344 7.53384 29.0164 7.66682 28.7413 7.66682L26.7603 7.68246H24.574C24.396 7.68246 24.353 7.65313 24.396 7.46148Z" fill="white"/>
<path d="M13.7258 4.2543C13.0022 4.00399 12.2181 3.92968 11.4495 4.04701C10.548 4.15066 9.67578 4.47528 8.92288 4.97786C8.83488 5.03653 8.81924 5.0952 8.87791 5.19885C9.06955 5.50978 9.24751 5.81876 9.40982 6.14535C9.48413 6.29397 9.52719 6.3233 9.69146 6.21966C10.46 5.68774 11.3752 5.43547 12.308 5.48045C13.1939 5.53912 13.7571 5.99672 13.9331 6.82589C13.9624 7.01754 13.9918 7.22483 13.9918 7.41647C13.9918 7.54945 13.9624 7.59443 13.8138 7.59443C13.0159 7.57879 12.2181 7.62377 11.4339 7.75675C10.636 7.90537 9.88307 8.11071 9.21622 8.5996C9.05391 8.71694 8.90528 8.86556 8.7723 9.02788C7.85513 10.1504 8.01943 11.8204 9.14193 12.7376C9.62887 13.1209 10.2351 13.3575 10.8706 13.4025C12.0674 13.5062 13.057 13.1209 13.7962 12.1607C13.9136 12.0121 14.0172 11.8361 14.1208 11.6738C14.1052 12.2057 14.1209 12.7239 14.0915 13.2402C14.0915 13.3732 14.1208 13.4318 14.2832 13.4318C14.6821 13.4162 15.0967 13.4162 15.4956 13.4318C15.6579 13.4475 15.7029 13.4025 15.7029 13.2246V7.62376C15.7029 7.29914 15.6872 6.98821 15.6286 6.66358C15.4369 5.51174 14.8444 4.66889 13.7219 4.2543H13.7258ZM12.8536 11.6288C12.2924 12.0864 11.5082 12.2057 10.8296 11.9104C10.327 11.7324 9.98671 11.2905 9.94369 10.7586C9.86938 10.211 10.151 9.67908 10.6379 9.42877C11.1405 9.13347 11.6881 9.04547 12.2493 8.97116C12.6033 8.92618 12.9299 8.9125 13.2682 8.9125H13.8881C13.9761 8.9125 14.0211 8.92814 14.0211 9.04548C14.0211 10.08 13.6965 10.9659 12.8536 11.6308V11.6288Z" fill="white"/>
<path d="M44.5674 4.00403C44.4344 4.00403 44.3895 4.049 44.3465 4.16634C43.8889 5.42182 43.4293 6.66361 42.9717 7.90541C42.5884 8.99858 42.1288 10.0487 41.8492 11.2006C41.8335 11.1712 41.8199 11.1419 41.8042 11.1126C41.5969 10.389 41.3466 9.66348 41.0513 8.96924C40.4451 7.37349 39.8389 5.77774 39.2189 4.18199C39.1896 4.10767 39.1896 4.01967 39.0703 4.01967H37.2379C37.2379 4.09398 37.2536 4.15265 37.2829 4.24065C37.5782 4.93488 37.8735 5.64476 38.1688 6.33899C39.1153 8.55662 40.0461 10.7723 40.9907 12.9899C41.0356 13.0642 41.0357 13.1522 41.0063 13.2265C40.844 13.5805 40.6954 13.9501 40.5331 14.306C40.4451 14.484 40.3414 14.66 40.2084 14.8223C39.6472 15.5165 38.8787 15.6652 38.0808 15.1763C37.9634 15.102 37.9184 15.1176 37.8598 15.2506C37.7268 15.6045 37.5645 15.9311 37.4022 16.2694C37.3435 16.3731 37.3435 16.4317 37.4609 16.4904C38.511 17.081 39.5592 17.1416 40.6093 16.5354C41.2899 16.1364 41.7182 15.5165 41.9978 14.791C43.3276 11.4372 44.6574 8.09706 45.9735 4.75693C46.0615 4.50661 46.1651 4.26999 46.2688 4.00403C45.6919 4.00403 45.1306 4.01967 44.5694 4.00403H44.5674Z" fill="white"/>
<path d="M5.64394 8.51147C5.11202 8.24551 4.56449 8.05387 4.01889 7.81724C3.69426 7.69991 3.36963 7.52195 3.08803 7.30097C2.98438 7.22666 2.91008 7.12301 2.85141 7.01936C2.6011 6.57545 2.77708 6.0142 3.22099 5.77757C3.45762 5.62895 3.72357 5.55659 3.98952 5.54094C4.8754 5.46663 5.74759 5.74824 6.42813 6.30949L6.87205 5.48228C7.15365 4.96601 7.15366 4.95036 6.63543 4.63942C5.73391 4.10751 4.75806 3.95888 3.7392 4.04884C3.088 4.09381 2.43877 4.3148 1.90685 4.71374C1.75823 4.81738 1.62524 4.95036 1.5079 5.08334C0.680693 6.05917 0.827364 7.52195 1.8032 8.33547C2.0848 8.5721 2.39377 8.76374 2.72035 8.92605C3.23663 9.17637 3.78422 9.36997 4.31614 9.6066C4.62708 9.73958 4.92236 9.8882 5.18832 10.0935C5.76522 10.5511 5.72021 11.261 5.11398 11.66C4.84802 11.8223 4.56644 11.9103 4.25746 11.9259C3.29727 11.9709 2.36639 11.6306 1.64087 10.9951C1.53722 10.9208 1.50793 10.9207 1.43361 11.0244C1.22632 11.3353 1.01903 11.6306 0.798051 11.9416C0.694405 12.0745 0.694386 12.1625 0.827366 12.2662C1.84622 13.1384 3.16233 13.551 4.49212 13.4337C5.18635 13.4043 5.85125 13.1521 6.39881 12.7394C6.45748 12.6945 6.51613 12.6358 6.57675 12.5908C7.53694 11.7186 7.59561 10.2265 6.72538 9.26633C6.41444 8.95539 6.04483 8.70508 5.6459 8.51343L5.64394 8.51147Z" fill="white"/>
<path d="M67.0982 15.0396C67.0434 14.7912 67.0708 14.5429 67.0434 14.2945C66.8772 12.6948 66.4372 11.1226 65.7469 9.6324C64.8375 7.61816 63.4843 5.85422 61.8298 4.41882C60.5333 3.2885 59.0157 2.3772 57.4161 1.74359C56.1743 1.24687 54.8504 0.943759 53.5264 0.777534C53.2507 0.750156 52.975 0.777535 52.7266 0.722778H52.5056C52.4235 0.750156 52.3121 0.750156 52.2299 0.722778H52.1204V4.74932C52.1204 4.83145 52.1204 4.91554 52.2592 4.91554C52.8928 4.94292 53.5284 5.02506 54.162 5.19128C58.4095 6.26685 61.1962 8.88733 62.4654 13.0801C62.7138 14.0188 62.8506 14.9829 62.8506 15.9763H67.0708V16.0193C67.0708 16.0193 67.0884 16.0096 67.0982 16.0037V15.5343C67.0708 15.4522 67.0708 15.3407 67.0982 15.2586V15.0376V15.0396ZM67.0708 15.5363C67.016 15.4542 67.016 15.3427 67.0708 15.2606V15.5363Z" fill="white"/>
<path d="M66.8498 16.0603H63.1538C63.0149 16.0603 62.9054 16.0603 62.8506 15.9781C62.8506 16.778 62.7685 17.5504 62.6297 18.2681C61.6089 23.1219 57.2518 26.8199 52.2866 27.0389C52.1477 27.0389 52.1204 27.0663 52.1204 27.2051V31.2317H52.2299C52.2847 31.1769 52.3687 31.2043 52.4509 31.2043C52.4724 31.2141 52.4978 31.216 52.5252 31.218C52.5486 31.2141 52.5721 31.2121 52.5936 31.22C52.619 31.22 52.6445 31.2239 52.6718 31.2317H52.754C52.975 31.1769 53.2233 31.2043 53.4443 31.1769C55.6776 30.9286 57.8033 30.2109 59.7061 29.0532C60.9479 28.3081 62.0782 27.3714 63.0716 26.2958C63.6231 25.6896 64.1472 25.054 64.5892 24.3656C65.4164 23.1512 66.0519 21.8273 66.4645 20.4212C66.7129 19.5393 66.9065 18.6553 67.016 17.7734C67.0434 17.4976 67.016 17.2219 67.0708 16.9462V16.8367C67.0591 16.8249 67.0513 16.8093 67.0434 16.7936V16.866C66.9887 16.8112 67.0434 16.7271 67.016 16.645C67.016 16.5629 66.9887 16.4788 67.0434 16.424V16.6176C67.0708 16.5629 67.0434 16.4788 67.0708 16.3966V16.027C66.9965 16.0701 66.9241 16.0916 66.8498 16.0662V16.0603Z" fill="white"/>
<path d="M62.8499 15.9761C62.9047 16.0582 63.0161 16.0582 63.153 16.0582H66.8491C66.9234 16.0836 66.9958 16.0621 67.0701 16.0191V15.9761H62.8499Z" fill="white"/>
<path d="M67.071 15.5361V15.2604C67.0163 15.3425 67.0163 15.454 67.071 15.5361Z" fill="white"/>
<path d="M67.0444 16.64V16.6117C67.0444 16.6117 67.0383 16.6299 67.0363 16.64H67.0444Z" fill="white"/>
<path d="M67.0155 16.6391H67.035C67.035 16.6391 67.039 16.6195 67.0429 16.6117V16.4181C66.9881 16.4728 67.0155 16.5569 67.0155 16.6391Z" fill="white"/>
<path d="M67.0298 16.6527C67.022 16.6938 67.024 16.7446 67.0416 16.7877V16.639C67.0416 16.6605 67.0416 16.6645 67.0298 16.6527Z" fill="white"/>
<path d="M67.0288 16.6527C67.0288 16.6527 67.021 16.6449 67.0132 16.639C67.0405 16.7212 66.9858 16.8053 67.0406 16.86V16.7877C67.023 16.7446 67.019 16.6958 67.0288 16.6527Z" fill="white"/>
<path d="M67.03 16.6532C67.0421 16.6653 67.0421 16.6593 67.0421 16.639H67.034C67.034 16.639 67.03 16.6492 67.03 16.6532Z" fill="white"/>
<path d="M67.0334 16.639H67.0132C67.0132 16.639 67.0253 16.6512 67.0293 16.6532C67.0293 16.6471 67.0334 16.6431 67.0334 16.639Z" fill="white"/>
<path d="M52.2028 31.2589H52.4238V31.2316C52.369 31.2316 52.2849 31.2042 52.2028 31.2589Z" fill="white"/>
<path d="M52.4228 31.2299V31.2573H52.6437C52.6281 31.2358 52.6124 31.224 52.5929 31.2162C52.5694 31.2162 52.5459 31.2162 52.5244 31.2142C52.4912 31.2201 52.458 31.2279 52.4228 31.2279V31.2299Z" fill="white"/>
<path d="M52.5252 31.2161C52.5467 31.2161 52.5702 31.2161 52.5937 31.218C52.5722 31.2102 52.5487 31.2122 52.5252 31.2161Z" fill="white"/>
<path d="M56.4494 15.8941C54.1321 14.0735 51.7873 12.2528 49.47 10.4322L48.5606 9.71448V16.0036H56.5589C56.5589 15.9489 56.5042 15.9215 56.4494 15.8941Z" fill="white"/>
<path d="M56.561 16.0037C56.4789 16.0584 56.3674 16.0858 56.2579 16.0584H48.8384C48.7563 16.0858 48.6448 16.0584 48.5627 16.0037V22.1266C48.5627 22.154 48.5353 22.1813 48.5901 22.2361C48.6448 22.1813 48.7289 22.154 48.7837 22.0973C51.1284 20.2766 53.4732 18.456 55.7905 16.6353C56.0663 16.4417 56.3146 16.2207 56.563 16.0017L56.561 16.0037Z" fill="white"/>
<path d="M48.8364 16.0602H56.2558C56.3653 16.0876 56.4768 16.0602 56.5589 16.0055H48.5606C48.6428 16.0602 48.7542 16.0876 48.8364 16.0602Z" fill="white"/>
<path d="M25.0701 18.8489C23.5037 18.229 21.7163 18.7159 20.6955 20.0457C20.6505 20.1044 20.6211 20.1787 20.5175 20.1943C20.6505 19.7367 20.7678 19.2635 20.8421 18.7902C20.8715 18.6573 20.8578 18.5986 20.6935 18.5986C20.2789 18.6142 19.8506 18.6142 19.438 18.5986C19.305 18.5986 19.2757 18.6436 19.2464 18.7609C18.9804 20.21 18.6988 21.6434 18.4328 23.0906C18.0046 25.3082 17.59 27.5082 17.1773 29.7258C17.06 30.3321 16.9564 30.9227 16.8527 31.5289L18.5071 31.4996C18.8318 29.8158 19.1721 28.1301 19.4537 26.4463H19.4693C19.485 26.4913 19.5143 26.5207 19.5279 26.55C19.8389 27.1992 20.4295 27.6725 21.1237 27.8504C22.4398 28.2044 23.621 27.8954 24.7005 27.1269C26.6815 25.6934 27.3307 23.0338 26.8575 21.0392C26.6208 20.034 26.0596 19.2518 25.0701 18.8528V18.8489ZM23.6073 25.8988C23.091 26.2977 22.4555 26.4894 21.8043 26.46C20.8578 26.4014 20.1928 25.7951 20.0168 24.8193C19.9875 24.5827 19.9582 24.346 19.9582 24.1094C20.0032 22.8539 20.4314 21.7295 21.3916 20.8573C21.9235 20.341 22.6471 20.0731 23.3863 20.1044C24.2722 20.1494 24.9078 20.6519 25.1307 21.4928C25.4847 22.809 25.0857 24.8467 23.6093 25.8968L23.6073 25.8988Z" fill="white"/>
<path d="M44.2391 18.5829C44.0905 18.5672 43.9731 18.6415 43.9145 18.7745C42.8643 20.6812 41.8161 22.5879 40.766 24.4926C40.5 24.9659 40.2497 25.4391 39.9974 25.9711C39.9525 25.6171 39.9231 25.3218 39.8644 25.0246C39.4498 22.9262 39.0372 20.8279 38.6227 18.7432C38.5933 18.5946 38.5346 18.5809 38.4154 18.5809C37.9577 18.5809 37.4845 18.5966 37.0113 18.5809C36.8196 18.5809 36.8196 18.6259 36.8489 18.7882C37.5295 21.7001 38.2081 24.61 38.873 27.5081C38.918 27.6255 38.8886 27.7448 38.828 27.8328C38.6364 28.1281 38.4447 28.439 38.2667 28.7343C38.0751 29.0589 37.8385 29.3542 37.5569 29.5908C36.9956 30.1071 36.1684 30.1814 35.5172 29.7981C35.4135 29.7395 35.3842 29.7531 35.3255 29.8431C35.1182 30.1834 34.8973 30.508 34.69 30.8326C34.6313 30.9206 34.645 30.9656 34.7349 31.0243C35.0165 31.2022 35.3255 31.3352 35.6365 31.4232C35.7695 31.4232 35.9024 31.4682 36.0198 31.5269H36.8333C37.0699 31.4232 37.3359 31.3939 37.5725 31.2902C38.429 30.9069 39.0353 30.2714 39.4929 29.4872C41.6069 25.9104 43.7345 22.32 45.8466 18.7432C45.8759 18.6983 45.9346 18.6552 45.9052 18.5809C45.3577 18.5809 44.7964 18.5966 44.2352 18.5809L44.2391 18.5829Z" fill="white"/>
<path d="M35.5939 20.6674C35.3866 19.588 34.6924 18.8937 33.5543 18.6864C32.0328 18.4048 30.613 18.7608 29.2696 19.4706C29.1816 19.5156 29.1815 19.5586 29.2109 19.6486C29.3145 19.9732 29.4319 20.3135 29.5355 20.6381C29.5942 20.8154 29.7024 20.8597 29.8601 20.7711C30.746 20.2842 31.6632 19.9576 32.6977 20.0769C33.3489 20.1512 33.7772 20.5208 33.8652 21.1114C33.8945 21.4067 33.8945 21.7019 33.8495 21.9972C33.8339 22.1459 33.7752 22.1889 33.6286 22.1889C32.905 22.1732 32.1795 22.2182 31.4715 22.3219C30.6287 22.4255 29.8015 22.6915 29.0486 23.0904C28.3387 23.4737 27.8068 24.0213 27.5565 24.8191C27.2162 25.883 27.4822 26.8725 28.2664 27.4494C28.8433 27.864 29.5375 28.0693 30.2317 28.0106C31.3249 27.952 32.1834 27.4201 32.8776 26.6222C32.9656 26.5185 33.0556 26.4012 33.1592 26.2682C33.0556 26.8158 32.9519 27.3321 32.8639 27.8347C32.8346 27.9833 32.8483 28.0126 32.9969 28.0126C33.4115 28.0126 33.8397 27.997 34.2524 28.0126C34.3854 28.0126 34.4303 27.9676 34.4597 27.8347C34.8136 26.0023 35.1695 24.1836 35.5235 22.3512C35.6565 21.8036 35.6722 21.2287 35.5978 20.6674H35.5939ZM33.5543 23.5793C33.347 24.6295 32.7407 25.5447 31.8705 26.1646C31.4266 26.4755 30.8809 26.6222 30.3334 26.5635C29.1366 26.4462 28.9293 25.4117 29.3439 24.6568C29.5355 24.3459 29.8015 24.1093 30.1281 23.9626C30.6893 23.7123 31.2955 23.548 31.9018 23.505C32.242 23.4757 32.5667 23.46 32.8776 23.46H33.4682C33.5562 23.46 33.5855 23.4893 33.5562 23.5774L33.5543 23.5793Z" fill="white"/>
</svg>
