<svg width="52" height="44" viewBox="0 0 52 44" fill="none" xmlns="http://www.w3.org/2000/svg">
<path d="M45.0476 43.1415H6.41509C6.067 42.9127 5.64466 42.9186 5.26333 42.7935C2.19111 41.7766 0.0770719 38.806 0.0751163 35.4092C0.0653384 26.2219 0.0712013 17.0326 0.0712013 7.84526C0.0712013 7.03565 0.202244 6.24951 0.433003 5.47314C1.3443 2.39897 4.26596 0.0757425 7.68823 0.0913871C19.8226 0.146143 31.957 0.112896 44.0913 0.112896C44.4805 0.112896 44.8717 0.103117 45.2589 0.179385C48.4093 0.801259 50.3512 2.7236 51.2801 5.74888C51.3798 6.07546 51.3446 6.43529 51.5343 6.73645V36.5239C51.3955 36.6432 51.4346 36.8172 51.3994 36.9678C50.6856 40.0243 48.8923 42.0718 45.8299 42.9479C45.5717 43.0223 45.2764 42.9479 45.0496 43.1435L45.0476 43.1415ZM25.8262 42.3398C31.9198 42.3398 38.0134 42.3398 44.107 42.3398C46.4869 42.3398 48.29 41.2661 49.6022 39.3321C50.4255 38.1177 50.7638 36.7546 50.7638 35.2918C50.7599 26.1906 50.7618 17.0893 50.7599 7.98802C50.7599 7.48153 50.7384 6.97699 50.6445 6.47831C50.0676 3.39241 47.4002 0.832548 43.8058 0.869705C36.2182 0.945972 28.6285 0.893176 21.0409 0.893176C16.5567 0.893176 12.0726 0.893176 7.58844 0.893176C5.03837 0.893176 3.15521 2.06066 1.84497 4.19811C1.13119 5.36363 0.863223 6.64845 0.865179 8.01344C0.876912 14.8169 0.871099 21.6204 0.871099 28.4219C0.871099 30.7901 0.87501 33.1563 0.871099 35.5246C0.867188 39.1639 3.86117 42.4297 7.75278 42.3652C13.776 42.2674 19.8011 42.3398 25.8262 42.3398Z" fill="white"/>
<path d="M6.89569 3.71509H9.34017V30.1409H6.89569V3.71509Z" fill="white"/>
<path d="M22.2332 22.0878V3.68579H24.7129V22.0878H22.2332Z" fill="white"/>
<path d="M36.5747 3.71509H39.0427V22.033C38.5323 22.1562 37.267 22.1679 36.5747 22.0506V3.71509Z" fill="white"/>
<path d="M13.7482 22.0955C13.1635 22.1464 12.6218 22.1464 12.0352 22.0955V3.71109C12.5886 3.66416 13.1478 3.67785 13.7482 3.70718V22.0955Z" fill="white"/>
<path d="M16.2581 3.70728H17.9634V22.0721C17.4236 22.1875 16.8623 22.1171 16.2581 22.1112V3.70728Z" fill="white"/>
<path d="M27.1516 3.70728H28.8588V22.0506C28.5987 22.2071 28.2956 22.1112 28.0062 22.1269C27.7344 22.1406 27.4626 22.1308 27.1497 22.1308V3.70923L27.1516 3.70728Z" fill="white"/>
<path d="M42.9069 22.0427C42.6918 22.1679 42.504 22.1229 42.3241 22.1248C41.9604 22.1327 41.5967 22.1268 41.1978 22.1268V3.73652C41.7414 3.63092 42.3026 3.6935 42.9069 3.70523V22.0427Z" fill="white"/>
<path d="M43.9861 3.72886C44.2344 3.65064 44.4594 3.69757 44.7253 3.69366V30.1155C44.52 30.2426 44.2696 30.1507 43.9861 30.1722V3.72886Z" fill="white"/>
<path d="M6.35366 33.1777C7.65803 33.2051 8.93898 33.1132 10.214 33.2461C10.6736 33.2931 11.098 33.4867 11.4187 33.8485C11.9467 34.439 11.9076 35.1528 11.3131 35.6672C11.1781 35.7845 11.0256 35.8823 10.8457 36.0152C11.0217 36.0935 11.1585 36.1502 11.2915 36.2147C11.8312 36.4768 12.1715 36.8972 12.1618 37.5073C12.152 38.0979 11.845 38.5516 11.3366 38.8547C11.0784 39.0092 10.7949 39.1011 10.4976 39.1461C9.13066 39.3612 7.75976 39.2126 6.35175 39.2674V33.1777H6.35366ZM7.38425 38.5125C8.15475 38.5125 8.8627 38.5203 9.56671 38.5086C9.81702 38.5047 10.0732 38.4773 10.3137 38.4147C10.7928 38.2896 11.0882 37.9161 11.0921 37.4878C11.096 37.0634 10.8006 36.6684 10.3137 36.5667C9.34961 36.3633 8.37382 36.4318 7.38234 36.4513V38.5164L7.38425 38.5125ZM7.39991 35.6867C8.20561 35.6867 8.97807 35.6867 9.75052 35.6867C9.96172 35.6867 10.1593 35.6124 10.3392 35.5166C10.8965 35.2174 10.9141 34.4332 10.3665 34.1125C10.212 34.0225 10.0244 33.9462 9.85031 33.9423C9.03483 33.9247 8.22125 33.9345 7.39991 33.9345V35.6887V35.6867Z" fill="white"/>
<path d="M12.3656 25.373C13.5037 25.373 14.5812 25.3632 15.6548 25.3789C16.0185 25.3847 16.3823 25.4551 16.7265 25.5979C17.2682 25.8228 17.6671 26.1728 17.7453 26.7849C17.8235 27.3912 17.4951 27.7784 17.0082 28.0698C16.9495 28.105 16.8908 28.1402 16.8087 28.191C16.969 28.2673 17.1137 28.3298 17.2545 28.4022C17.7532 28.6564 18.1149 29.0182 18.1403 29.6127C18.1677 30.2463 17.8588 30.7059 17.3425 31.0383C16.9866 31.2671 16.5779 31.3845 16.1692 31.3942C14.9137 31.4216 13.6563 31.404 12.3636 31.404V25.375L12.3656 25.373ZM13.3708 28.676V30.7098C14.2273 30.7098 15.0506 30.7176 15.8719 30.7059C16.1242 30.702 16.3686 30.6198 16.5915 30.4927C17.0042 30.2581 17.188 29.8024 17.0276 29.3741C16.8516 28.9028 16.4351 28.7347 15.9912 28.6936C15.1268 28.6134 14.2605 28.6349 13.3708 28.6779V28.676ZM13.3708 27.9407C14.2801 27.8996 15.1464 28.017 16.0049 27.8351C16.5153 27.7275 16.7696 27.4283 16.7598 27.002C16.752 26.5718 16.484 26.2648 15.9931 26.1748C15.1346 26.0203 14.2703 26.0731 13.3708 26.1005V27.9407Z" fill="white"/>
<path d="M20.1531 22.0682C19.8833 22.1719 19.6623 22.121 19.4022 22.1171V3.76593C19.5 3.63491 19.6486 3.69162 19.7777 3.68575C19.8891 3.67989 20.0026 3.69944 20.1531 3.70922V22.0682Z" fill="white"/>
<path d="M30.7125 3.72103C30.9706 3.66432 31.1935 3.66431 31.4576 3.72689V22.0546C31.2366 22.1837 30.9941 22.123 30.7125 22.1152V3.72103Z" fill="white"/>
<path d="M33.8109 3.73249C34.069 3.65818 34.292 3.67382 34.556 3.7188V22.0309C34.468 22.1678 34.3193 22.1267 34.1864 22.1306C34.0749 22.1325 33.9556 22.156 33.8109 22.0465V3.73249Z" fill="white"/>
<path d="M31.5633 36.2091C31.2504 36.1622 30.9825 36.1231 30.6872 36.0781C30.8202 35.509 31.1566 35.1687 31.6592 34.9888C32.5725 34.6622 33.5033 34.6407 34.4303 34.9008C35.0482 35.0729 35.3181 35.4425 35.3513 36.1152C35.3767 36.6413 35.3572 37.1693 35.365 37.6973C35.3728 38.1979 35.3239 38.7064 35.5879 39.1894C35.2692 39.3009 35.0013 39.2442 34.7881 39.25C34.5261 39.1738 34.5671 38.9195 34.4146 38.8159C34.3344 38.7709 34.2797 38.8296 34.2269 38.8609C33.4818 39.2891 32.6839 39.4202 31.841 39.2931C31.6611 39.2657 31.4812 39.2227 31.3131 39.1542C30.8594 38.9704 30.5327 38.6653 30.5093 38.1412C30.4838 37.5878 30.7967 37.2456 31.2622 37.0187C31.8117 36.7528 32.412 36.7254 33.0026 36.6687C33.4583 36.6257 33.9042 36.5455 34.3286 36.4438C34.4674 36.1426 34.3168 35.9275 34.219 35.687C33.5893 35.2704 32.9088 35.3369 32.2302 35.4816C31.89 35.554 31.7354 35.863 31.5594 36.2072L31.5633 36.2091ZM34.3344 37.0891C33.5952 37.2104 32.854 37.3081 32.1226 37.4587C31.6904 37.5487 31.5067 37.7951 31.5243 38.0962C31.5419 38.3778 31.796 38.6418 32.1793 38.7025C32.5861 38.767 32.9987 38.7729 33.4016 38.634C34.1662 38.37 34.4048 37.9965 34.3344 37.0891Z" fill="white"/>
<path d="M31.6538 30.0373C31.9882 30.0568 32.2836 30.0216 32.6023 30.1644C32.3461 30.8449 31.8573 31.2204 31.2158 31.4081C30.5412 31.6056 29.8567 31.6076 29.1722 31.4238C28.1612 31.1519 27.5609 30.4499 27.512 29.4799C27.4533 28.3183 27.9284 27.5243 28.9414 27.1469C29.7237 26.8555 30.5255 26.8594 31.3019 27.1586C32.2738 27.5322 32.7236 28.3476 32.573 29.4506H28.5092C28.564 30.1898 28.918 30.6513 29.5398 30.8195C30.4042 31.0522 31.1963 30.9349 31.6519 30.0392L31.6538 30.0373ZM31.646 28.7837C31.3507 27.8314 30.7699 27.4579 29.8567 27.5771C29.4832 27.626 29.1468 27.7707 28.8848 28.0484C28.6971 28.2479 28.5504 28.4689 28.6208 28.7837H31.646Z" fill="white"/>
<path d="M14.1968 36.1934C13.8957 36.1602 13.6278 36.1308 13.311 36.0956C13.4264 35.5461 13.7295 35.2 14.1988 35.022C15.1512 34.6583 16.127 34.625 17.1048 34.9203C17.6797 35.0944 17.9633 35.5089 17.977 36.1034C17.9887 36.608 17.9809 37.1145 17.9887 37.619C17.9946 38.1451 17.9594 38.675 18.1843 39.1815C17.8929 39.3302 17.6191 39.207 17.4314 39.2558C17.1458 39.1737 17.1948 38.9156 17.0383 38.8002C16.9679 38.8237 16.8995 38.8334 16.8467 38.8647C16.0781 39.3086 15.2529 39.4181 14.3866 39.2891C14.1323 39.2519 13.8957 39.1659 13.6825 39.029C12.9687 38.5694 12.9336 37.6972 13.6122 37.1868C13.9309 36.9463 14.3044 36.8446 14.6956 36.7801C15.4406 36.6569 16.2052 36.6667 16.9307 36.4515C17.0265 35.8551 16.8975 35.595 16.391 35.462C15.9178 35.3369 15.4308 35.3545 14.9537 35.4483C14.5586 35.5266 14.3572 35.8434 14.1968 36.1934ZM16.9523 37.0402C16.5729 37.1829 16.2306 37.2083 15.8923 37.2611C15.509 37.3198 15.1199 37.3648 14.7444 37.4606C14.3162 37.5682 14.1265 37.8028 14.146 38.1001C14.1656 38.3778 14.4257 38.6457 14.8051 38.7063C15.2118 38.7709 15.6245 38.7748 16.0273 38.6359C16.7919 38.3719 17.0344 37.9886 16.9523 37.0421V37.0402Z" fill="white"/>
<path d="M45.0324 39.3497C44.8075 39.3263 44.6471 39.3126 44.4887 39.2911C42.5801 39.0349 42.1362 37.4157 42.6036 36.1093C42.7894 35.5872 43.1863 35.2371 43.6889 35.022C44.5005 34.672 45.3355 34.6368 46.1705 34.9106C47.25 35.2645 47.7565 36.0956 47.6704 37.3101C47.5981 38.323 46.943 39.0368 45.8557 39.2578C45.5663 39.3165 45.2651 39.3243 45.0324 39.3497ZM46.7025 37.0226C46.7025 36.0096 46.0943 35.3916 45.091 35.3799C44.0507 35.3682 43.4191 35.994 43.4151 37.0343C43.4112 38.0708 44.0487 38.72 45.0696 38.722C46.0884 38.722 46.7025 38.0825 46.7025 37.0226Z" fill="white"/>
<path d="M36.4662 29.1963C36.478 28.1148 36.9707 27.4362 38.0091 27.1077C38.7757 26.8632 39.5482 26.8789 40.3011 27.1585C41.2144 27.4988 41.7169 28.2595 41.7072 29.2275C41.6974 30.3051 41.2437 30.9661 40.2698 31.3357C39.511 31.6231 38.7425 31.627 37.9798 31.3885C36.9649 31.0697 36.4564 30.3148 36.4682 29.1982L36.4662 29.1963ZM39.0985 30.9074C40.129 30.8996 40.749 30.2405 40.7196 29.1845C40.6923 28.1911 40.0371 27.5575 39.0476 27.5692C38.0248 27.5809 37.4283 28.2263 37.4459 29.3058C37.4635 30.3324 38.0659 30.9172 39.0985 30.9093V30.9074Z" fill="white"/>
<path d="M21.719 26.9393C21.9889 26.9667 22.1961 26.9745 22.3976 27.0078C23.9777 27.2718 24.799 28.8441 24.1048 30.2931C23.6902 31.1614 22.8865 31.4137 22.0221 31.531C21.6134 31.5877 21.2028 31.5389 20.798 31.4333C19.6285 31.1262 19.0575 30.3596 19.0887 29.1237C19.1181 28.0188 19.7673 27.2522 20.8937 27.0273C21.1832 26.9687 21.4843 26.9628 21.717 26.9393H21.719ZM21.678 30.9092C22.7105 30.9189 23.3363 30.2951 23.35 29.245C23.3637 28.232 22.6948 27.5592 21.6838 27.5651C20.6884 27.571 20.0783 28.1909 20.0665 29.2058C20.0548 30.2814 20.6395 30.8994 21.6799 30.9092H21.678Z" fill="white"/>
<path d="M23.9626 39.2167C23.6399 39.2753 23.374 39.2714 23.1139 39.2362C22.9496 39.0407 23.0201 38.8256 23.0181 38.6261C23.0083 37.8908 23.0141 37.1555 23.0044 36.4221C23.0004 36.1699 22.9867 35.9078 22.7814 35.7201C22.3609 35.3309 21.8487 35.3505 21.352 35.4678C20.9119 35.5715 20.5579 35.812 20.4543 36.3126C20.3937 36.6079 20.3761 36.9032 20.3761 37.2024C20.3761 37.8634 20.3761 38.5264 20.3761 39.1756C20.0612 39.3301 19.7874 39.2167 19.5293 39.2675C19.3924 38.7512 19.3592 35.9117 19.4707 34.932C19.5782 34.8127 19.7248 34.8616 19.8559 34.8538C19.9693 34.8459 20.0827 34.8538 20.1238 34.8538C20.3741 34.9574 20.2314 35.1979 20.423 35.2918C21.1818 34.713 22.0383 34.6015 22.9516 34.8772C23.6321 35.0826 23.9411 35.4717 23.9547 36.1836C23.9743 37.1887 23.9587 38.1919 23.9587 39.2206L23.9626 39.2167Z" fill="white"/>
<path d="M29.0981 37.66C29.4169 37.6326 29.6848 37.6502 29.9938 37.7851C29.8178 38.5184 29.3503 38.9643 28.6561 39.1892C27.9345 39.4219 27.2032 39.4024 26.4952 39.1364C25.5663 38.7883 25.1303 38.0628 25.1537 36.9638C25.1772 35.9234 25.6524 35.235 26.5833 34.9202C27.2521 34.6953 27.9326 34.6621 28.6171 34.8615C29.2272 35.0375 29.675 35.3895 29.894 36.0368C29.6417 36.25 29.3465 36.2206 29.0277 36.2363C28.6953 35.4325 28.044 35.28 27.2735 35.4247C26.7338 35.5264 26.3544 35.8432 26.2097 36.383C26.0885 36.8327 26.0865 37.2962 26.2176 37.744C26.3857 38.319 26.8629 38.6769 27.5023 38.7179C28.1125 38.757 28.6463 38.6162 28.9494 38.0139C29.0003 37.9122 29.0394 37.8047 29.1 37.6619L29.0981 37.66Z" fill="white"/>
<path d="M35.0491 30.6632C35.319 30.8333 35.5829 30.7688 35.8 30.7825C36.0073 30.9741 35.9212 31.1853 35.9896 31.3613C35.7354 31.5119 35.5066 31.5119 35.2798 31.5099C34.3137 31.5002 34.0067 31.197 33.9969 30.2329C33.9891 29.3862 33.9969 28.5394 33.9969 27.7357C33.7564 27.5753 33.5198 27.7102 33.3477 27.5636C33.2695 27.4091 33.3066 27.2546 33.332 27.1197C33.5237 26.9495 33.7623 27.104 33.9754 26.9397V26.0206C34.2433 25.7879 34.5406 25.6921 34.9141 25.5396V26.8967C35.2348 27.147 35.5654 26.9319 35.8274 27.0884C35.9408 27.2389 35.9076 27.3934 35.8528 27.5558C35.6064 27.7239 35.313 27.5831 35.0529 27.6692C34.9141 28.1874 34.9102 30.0354 35.0529 30.6671L35.0491 30.6632Z" fill="white"/>
<path d="M25.4602 31.4589C25.3703 30.6434 25.3839 25.9167 25.47 25.3927C25.7398 25.3457 26.0117 25.3399 26.3246 25.4044V31.3806C26.0449 31.4921 25.7731 31.3963 25.4602 31.4589Z" fill="white"/>
<path d="M39.8068 34.9868C39.7364 35.239 39.668 35.4268 39.5037 35.6028C39.2749 35.5832 39.0305 35.5402 38.786 35.5421C38.2952 35.548 38.0272 35.7553 37.8708 36.2188C37.7671 36.5258 37.7437 36.8426 37.7476 37.1653C37.7535 37.8439 37.7495 38.5244 37.7495 39.2304H36.8344V34.8929C37.071 34.8186 37.3154 34.8518 37.5129 34.8596C37.7358 34.9496 37.5853 35.198 37.7965 35.2723C38.3538 34.6504 39.0226 34.5898 39.8068 34.9848V34.9868Z" fill="white"/>
<path d="M40.4421 34.8773H41.3143V39.2109C41.0288 39.3087 40.759 39.2285 40.5008 39.2676C40.3639 38.7415 40.3287 36.0702 40.4421 34.8773Z" fill="white"/>
<path d="M32.6196 34.2572C32.7545 33.8563 33.0225 33.5395 33.22 33.1797C33.5935 33.0839 33.9592 33.1425 34.3835 33.1289C34.1137 33.6393 33.6717 33.9209 33.3393 34.2846C33.0909 34.3139 32.8641 34.3433 32.6177 34.2572H32.6196Z" fill="white"/>
<path d="M40.425 33.2464C40.7125 33.1408 40.9803 33.1897 41.2658 33.1975C41.4125 33.4518 41.3363 33.7118 41.3324 34.0032C41.0176 34.058 40.736 34.0599 40.4231 34.0013C40.382 33.7334 40.3741 33.4948 40.425 33.2484V33.2464Z" fill="white"/>
</svg>
