<svg width="62" height="23" viewBox="0 0 62 23" fill="none" xmlns="http://www.w3.org/2000/svg">
<path d="M25.4421 21.329C25.2329 21.329 25.0627 21.1588 25.0627 20.9496V8.61184C25.0627 6.13607 27.077 4.12183 29.5528 4.12183L33.196 4.12769C35.6639 4.13356 37.6723 6.1439 37.6723 8.61184V11.2382C37.6723 13.7139 35.6581 15.7282 33.1823 15.7282H28.0353C27.826 15.7282 27.6558 15.5581 27.6558 15.3488C27.6558 15.1396 27.826 14.9694 28.0353 14.9694H33.1823C35.2396 14.9694 36.9136 13.2955 36.9136 11.2382V8.61184C36.9136 6.56239 35.2454 4.89232 33.196 4.88841L29.5528 4.88255C27.4955 4.88255 25.8235 6.55652 25.8235 8.61379V20.9516C25.8235 21.1608 25.6534 21.3309 25.4441 21.3309L25.4421 21.329Z" fill="white"/>
<path d="M41.5756 15.783C41.3663 15.783 41.1962 15.6128 41.1962 15.4036V6.18692C41.1962 5.46727 40.6095 4.88059 39.8899 4.88059H38.3097C38.1005 4.88059 37.9304 4.71046 37.9304 4.50121C37.9304 4.29196 38.1005 4.12183 38.3097 4.12183H39.8899C41.03 4.12183 41.957 5.04877 41.957 6.18887V15.4055C41.957 15.6148 41.7868 15.7849 41.5776 15.7849L41.5756 15.783Z" fill="white"/>
<path d="M41.2372 3.07113L40.5214 2.35539C40.3434 2.17743 40.3434 1.88996 40.5214 1.712L41.2372 0.996261C41.4151 0.818303 41.7045 0.818303 41.8825 0.996261L42.5983 1.712C42.7762 1.88996 42.7762 2.17743 42.5983 2.35539L41.8825 3.07113C41.7045 3.24909 41.417 3.24909 41.2391 3.07113" fill="white"/>
<path d="M52.8474 9.78324C52.4211 9.78324 52.0202 9.61702 51.719 9.31586L48.0542 5.6511C47.5516 5.14852 46.8848 4.87278 46.173 4.87278H44.6065C44.3973 4.87278 44.2272 4.70264 44.2272 4.4934C44.2272 4.28415 44.3973 4.11401 44.6065 4.11401H46.173C47.0863 4.11401 47.9447 4.46993 48.5901 5.11527L52.2548 8.78003C52.4132 8.93843 52.6224 9.02448 52.8454 9.02448C53.0683 9.02448 53.2795 8.93843 53.436 8.78003L57.087 5.12896C57.7324 4.48362 58.5909 4.1277 59.5042 4.1277H60.7792C60.9885 4.1277 61.1586 4.29784 61.1586 4.50709C61.1586 4.71633 60.9885 4.88647 60.7792 4.88647H59.5042C58.7943 4.88647 58.1255 5.1622 57.6229 5.66479L53.9718 9.31586C53.6707 9.61702 53.2698 9.78324 52.8435 9.78324H52.8474Z" fill="white"/>
<path d="M46.173 15.7027H44.6065C44.3973 15.7027 44.2272 15.5325 44.2272 15.3233C44.2272 15.114 44.3973 14.9439 44.6065 14.9439H46.173C46.8829 14.9439 47.5516 14.6682 48.0542 14.1656L51.719 10.5008C52.0202 10.1997 52.4211 10.0334 52.8474 10.0334C53.2737 10.0334 53.6746 10.1997 53.9758 10.5008L57.6268 14.1519C58.1294 14.6545 58.7963 14.9302 59.5081 14.9302H60.7831C60.9924 14.9302 61.1625 15.1004 61.1625 15.3096C61.1625 15.5189 60.9924 15.689 60.7831 15.689H59.5081C58.5949 15.689 57.7363 15.3331 57.0909 14.6877L53.4399 11.0367C53.2815 10.8783 53.0722 10.7922 52.8493 10.7922C52.6264 10.7922 52.4152 10.8783 52.2587 11.0367L48.594 14.7014C47.9487 15.3468 47.0901 15.7027 46.1768 15.7027H46.173Z" fill="white"/>
<path d="M16.0974 17.6628C15.3112 17.6628 14.5719 17.3557 14.0146 16.8004L11.0089 13.7927C10.7977 13.5815 10.4301 13.5815 10.2189 13.7927L7.20139 16.8101C6.64601 17.3655 5.90486 17.6726 5.11872 17.6726H4.52612L8.33368 21.4801C9.52267 22.6691 11.4509 22.6691 12.6399 21.4801L16.4591 17.6608H16.0974V17.6628Z" fill="white"/>
<path d="M5.11872 7.02775C5.90486 7.02775 6.64405 7.33478 7.20139 7.89017L10.2189 10.9076C10.436 11.1247 10.7919 11.1267 11.0089 10.9076L14.0146 7.89994C14.57 7.34456 15.3112 7.03753 16.0974 7.03753H16.4591L12.6399 3.21828C11.4509 2.02929 9.52267 2.02929 8.33368 3.21828L4.52612 7.0258H5.11872V7.02775Z" fill="white"/>
<path d="M19.6205 10.1968L17.313 7.88917C17.2621 7.90873 17.2073 7.92242 17.1486 7.92242H16.0986C15.5569 7.92242 15.0249 8.1434 14.6416 8.52669L11.6359 11.5324C11.3543 11.814 10.9847 11.9548 10.6151 11.9548C10.2455 11.9548 9.87585 11.814 9.59425 11.5324L6.57675 8.51496C6.19346 8.13166 5.6616 7.91068 5.1199 7.91068H3.8292C3.77445 7.91068 3.72359 7.89699 3.6747 7.87939L1.35732 10.1968C0.168328 11.3858 0.168328 13.314 1.35732 14.5029L3.6747 16.8203C3.72359 16.8027 3.77445 16.789 3.8292 16.789H5.1199C5.6616 16.789 6.19346 16.57 6.57675 16.1847L9.59425 13.1673C10.1399 12.6217 11.0903 12.6217 11.6359 13.1673L14.6416 16.173C15.0249 16.5563 15.5569 16.7773 16.0986 16.7773H17.1486C17.2073 16.7773 17.2621 16.789 17.313 16.8105L19.6205 14.5029C20.8095 13.314 20.8095 11.3858 19.6205 10.1968Z" fill="white"/>
<path d="M28.5746 19.8979C28.4045 19.8979 28.2069 19.9389 28.0094 19.9839V20.7348C28.1444 20.7837 28.3008 20.8092 28.4494 20.8092C28.8269 20.8092 29.0049 20.682 29.0049 20.3496C29.0049 20.0367 28.8582 19.8979 28.5746 19.8979ZM27.8823 21.2941V19.8079H27.986L27.9977 19.8724C28.1717 19.8314 28.4143 19.7786 28.5864 19.7786C28.7272 19.7786 28.8601 19.8001 28.9715 19.89C29.1006 19.9956 29.1417 20.1658 29.1417 20.3515C29.1417 20.5452 29.0772 20.729 28.9012 20.8307C28.778 20.8991 28.6118 20.9284 28.4632 20.9284C28.3145 20.9284 28.164 20.905 28.0114 20.86V21.298H27.8843L27.8823 21.2941Z" fill="white"/>
<path d="M30.0867 19.8938C29.7092 19.8938 29.5411 20.0131 29.5411 20.3436C29.5411 20.6741 29.7073 20.809 30.0867 20.809C30.466 20.809 30.6303 20.6917 30.6303 20.3612C30.6303 20.0307 30.4641 19.8938 30.0867 19.8938ZM30.5716 20.809C30.4465 20.899 30.2783 20.9244 30.0867 20.9244C29.895 20.9244 29.723 20.897 29.5998 20.809C29.4609 20.7113 29.4061 20.5529 29.4061 20.3514C29.4061 20.15 29.4629 19.9916 29.5998 19.8919C29.723 19.8039 29.8911 19.7765 30.0867 19.7765C30.2822 19.7765 30.4465 19.8039 30.5716 19.8919C30.7124 19.9916 30.7653 20.152 30.7653 20.3495C30.7653 20.547 30.7085 20.7113 30.5716 20.809Z" fill="white"/>
<path d="M32.3584 20.8969L31.9379 19.9934H31.9301L31.5175 20.8969H31.4041L30.9562 19.8096H31.0971L31.4705 20.7228H31.4784L31.8832 19.8096H32.0005L32.4171 20.7228H32.4249L32.7886 19.8096H32.9236L32.4757 20.8969H32.3623H32.3584Z" fill="white"/>
<path d="M33.7325 19.892C33.3844 19.892 33.2651 20.0465 33.2436 20.2714H34.2214C34.2116 20.023 34.0826 19.892 33.7325 19.892ZM33.7286 20.9265C33.5194 20.9265 33.3844 20.8972 33.2768 20.8052C33.1497 20.6957 33.1067 20.5354 33.1067 20.3535C33.1067 20.1716 33.1654 19.9937 33.3101 19.8881C33.4313 19.804 33.5799 19.7786 33.7344 19.7786C33.8752 19.7786 34.0356 19.7942 34.1705 19.8842C34.327 19.9898 34.3582 20.1755 34.3582 20.3868H33.2416C33.2455 20.6116 33.3198 20.8092 33.7423 20.8092C33.9437 20.8092 34.1294 20.7759 34.3054 20.7466V20.86C34.1236 20.8932 33.9242 20.9265 33.7325 20.9265" fill="white"/>
<path d="M34.7205 20.8968V19.8095H34.8242L34.8358 19.874C35.0666 19.8154 35.1741 19.7802 35.3775 19.7802H35.3932V19.9014H35.3639C35.1937 19.9014 35.09 19.9249 34.8515 19.9874V20.8987H34.7244L34.7205 20.8968Z" fill="white"/>
<path d="M36.1271 19.892C35.779 19.892 35.6597 20.0465 35.6382 20.2714H36.616C36.6062 20.023 36.4772 19.892 36.1271 19.892ZM36.1232 20.9265C35.9139 20.9265 35.779 20.8972 35.6714 20.8052C35.5443 20.6957 35.5013 20.5354 35.5013 20.3535C35.5013 20.1716 35.56 19.9937 35.7047 19.8881C35.8259 19.804 35.9745 19.7786 36.129 19.7786C36.2698 19.7786 36.4302 19.7942 36.5651 19.8842C36.7216 19.9898 36.7528 20.1755 36.7528 20.3868H35.6362C35.6401 20.6116 35.7144 20.8092 36.1368 20.8092C36.3363 20.8092 36.524 20.7759 36.7 20.7466V20.86C36.5182 20.8932 36.3188 20.9265 36.1271 20.9265" fill="white"/>
<path d="M38.1439 19.9693C38.009 19.9204 37.8525 19.895 37.7039 19.895C37.3265 19.895 37.1484 20.0221 37.1484 20.3545C37.1484 20.6694 37.2951 20.8063 37.5787 20.8063C37.7488 20.8063 37.9464 20.7652 38.1439 20.7222V19.9673V19.9693ZM38.1673 20.8982L38.1556 20.8337C37.9816 20.8747 37.739 20.9295 37.567 20.9295C37.4261 20.9295 37.2931 20.9099 37.1817 20.818C37.0526 20.7124 37.0116 20.5423 37.0116 20.3565C37.0116 20.1707 37.0761 19.9791 37.2521 19.8793C37.3753 19.8089 37.5416 19.7796 37.6921 19.7796C37.8427 19.7796 37.9893 19.805 38.1419 19.848V19.3494H38.269V20.8962H38.1654L38.1673 20.8982Z" fill="white"/>
<path d="M40.135 19.8986C39.9649 19.8986 39.7675 19.9397 39.5699 19.9847V20.7337C39.7088 20.7845 39.8613 20.8099 40.0099 20.8099C40.3874 20.8099 40.5653 20.6828 40.5653 20.3504C40.5653 20.0375 40.4186 19.8986 40.135 19.8986ZM40.4597 20.8295C40.3365 20.8979 40.1702 20.9273 40.0216 20.9273C39.8593 20.9273 39.699 20.8999 39.5347 20.8451L39.5288 20.896H39.4427V19.3491H39.5699V19.8674C39.744 19.8282 39.9786 19.7774 40.1449 19.7774C40.2857 19.7774 40.4186 19.7989 40.5301 19.8889C40.6591 19.9945 40.7002 20.1646 40.7002 20.3504C40.7002 20.544 40.6357 20.7278 40.4597 20.8295Z" fill="white"/>
<path d="M40.8674 21.3138V21.1945C40.93 21.2004 40.9887 21.2062 41.0298 21.2062C41.1862 21.2062 41.282 21.1612 41.37 20.9813L41.4111 20.8953L40.842 19.808H40.9887L41.4756 20.7467H41.4834L41.9469 19.808H42.0916L41.4795 21.0302C41.368 21.2512 41.2468 21.3255 41.0259 21.3255C40.977 21.3255 40.9222 21.3216 40.8694 21.3138" fill="white"/>
<path d="M43.8467 20.2768H43.4244V20.6582H43.8487C44.1401 20.6582 44.2496 20.6249 44.2496 20.4665C44.2496 20.2964 44.099 20.2768 43.8467 20.2768ZM43.7685 19.6589H43.4244V20.0461H43.7705C44.058 20.0461 44.1714 20.0109 44.1714 19.8505C44.1714 19.6784 44.0267 19.6589 43.7685 19.6589ZM44.4237 20.7951C44.2692 20.8948 44.0814 20.8987 43.7392 20.8987H43.0958V19.4222H43.7256C44.0209 19.4222 44.2008 19.4262 44.3533 19.5161C44.4609 19.5806 44.5039 19.6804 44.5039 19.8094C44.5039 19.9639 44.4393 20.0676 44.2711 20.138V20.1458C44.4608 20.1888 44.584 20.2866 44.584 20.4959C44.584 20.6386 44.5332 20.7305 44.4276 20.7951" fill="white"/>
<path d="M45.8704 20.4395C45.7433 20.4278 45.6143 20.4219 45.4774 20.4219C45.2564 20.4219 45.1782 20.4669 45.1782 20.5686C45.1782 20.6625 45.2427 20.7153 45.4129 20.7153C45.5556 20.7153 45.7257 20.684 45.8704 20.6508V20.4395ZM45.935 20.8972L45.9272 20.8326C45.7414 20.8776 45.5263 20.9265 45.3366 20.9265C45.2192 20.9265 45.0961 20.9108 45.0061 20.8463C44.924 20.7876 44.8848 20.6938 44.8848 20.5843C44.8848 20.4611 44.9396 20.3476 45.0686 20.289C45.1821 20.2342 45.3366 20.2303 45.4754 20.2303C45.5888 20.2303 45.7433 20.2362 45.8704 20.2459V20.2264C45.8704 20.0563 45.759 19.9995 45.4519 19.9995C45.3326 19.9995 45.1899 20.0054 45.0511 20.0191V19.8001C45.2036 19.7883 45.3757 19.7786 45.5185 19.7786C45.7082 19.7786 45.9037 19.7942 46.0249 19.8803C46.1501 19.9683 46.1736 20.0915 46.1736 20.2538V20.8972H45.935Z" fill="white"/>
<path d="M47.595 20.8972V20.2968C47.595 20.0993 47.4933 20.0269 47.3134 20.0269C47.1804 20.0269 47.0122 20.0621 46.8695 20.0954V20.8972H46.5664V19.8099H46.8148L46.8265 19.8783C47.0182 19.8294 47.2313 19.7786 47.4093 19.7786C47.5423 19.7786 47.6792 19.7981 47.7828 19.89C47.8689 19.9683 47.9021 20.0758 47.9021 20.2303V20.8952H47.6009L47.595 20.8972Z" fill="white"/>
<path d="M48.7543 20.9265C48.6135 20.9265 48.461 20.9069 48.3496 20.8131C48.2166 20.7055 48.1775 20.5354 48.1775 20.3515C48.1775 20.1795 48.2342 19.9917 48.3984 19.8861C48.5334 19.7981 48.7015 19.7786 48.8775 19.7786C49.0027 19.7786 49.1259 19.7864 49.2608 19.8001V20.0328C49.1513 20.023 49.0203 20.0132 48.9147 20.0132C48.6252 20.0132 48.4903 20.1032 48.4903 20.3535C48.4903 20.5882 48.592 20.6899 48.8286 20.6899C48.9675 20.6899 49.1279 20.6644 49.2863 20.6332V20.858C49.1162 20.8932 48.9304 20.9265 48.7563 20.9265" fill="white"/>
<path d="M50.1812 20.0053C49.8918 20.0053 49.7646 20.0953 49.7646 20.3436C49.7646 20.592 49.8898 20.6976 50.1812 20.6976C50.4726 20.6976 50.5918 20.6096 50.5918 20.3612C50.5918 20.1129 50.4687 20.0053 50.1812 20.0053ZM50.7033 20.811C50.5703 20.9009 50.3943 20.9244 50.1812 20.9244C49.968 20.9244 49.7881 20.899 49.6571 20.811C49.5065 20.7113 49.4517 20.5489 49.4517 20.3514C49.4517 20.1539 49.5065 19.9896 49.6571 19.8899C49.7881 19.8019 49.9622 19.7765 50.1812 19.7765C50.4002 19.7765 50.5684 19.8019 50.7033 19.8899C50.8539 19.9896 50.9067 20.1539 50.9067 20.3495C50.9067 20.545 50.8519 20.7113 50.7033 20.811Z" fill="white"/>
<path d="M52.6591 20.9277C52.4752 20.9277 52.2777 20.8984 52.1291 20.7752C51.9531 20.6285 51.8983 20.4017 51.8983 20.1592C51.8983 19.9421 51.9667 19.684 52.1975 19.5314C52.3754 19.416 52.5985 19.3906 52.8214 19.3906C52.9857 19.3906 53.1538 19.4024 53.3357 19.416V19.6801C53.1792 19.6664 52.9836 19.6566 52.833 19.6566C52.4126 19.6566 52.2347 19.8169 52.2347 20.1572C52.2347 20.4975 52.4009 20.6598 52.7099 20.6598C52.9132 20.6598 53.1381 20.6187 53.3669 20.5718V20.8338C53.1381 20.8788 52.8996 20.9258 52.6551 20.9258" fill="white"/>
<path d="M54.2631 19.9722C54.0108 19.9722 53.913 20.0621 53.8954 20.2283H54.6288C54.621 20.0523 54.5173 19.9722 54.2651 19.9722M54.2201 20.9265C54.0421 20.9265 53.8798 20.905 53.7585 20.8052C53.6294 20.6977 53.5845 20.5354 53.5845 20.3515C53.5845 20.1853 53.6393 19.9995 53.7898 19.892C53.9228 19.7981 54.093 19.7786 54.2651 19.7786C54.4196 19.7786 54.6033 19.7962 54.7363 19.8881C54.9103 20.0113 54.926 20.201 54.9279 20.4239H53.8935C53.8994 20.5901 53.9874 20.6977 54.2944 20.6977C54.4841 20.6977 54.6953 20.6703 54.8732 20.641V20.8541C54.664 20.8893 54.4352 20.9245 54.2181 20.9245" fill="white"/>
<path d="M56.279 20.8972V20.2968C56.279 20.0993 56.1773 20.0269 55.9974 20.0269C55.8644 20.0269 55.6963 20.0621 55.5535 20.0954V20.8972H55.2504V19.8099H55.4988L55.5105 19.8783C55.7022 19.8294 55.9153 19.7786 56.0933 19.7786C56.2263 19.7786 56.3631 19.7981 56.4667 19.89C56.5528 19.9683 56.5861 20.0758 56.5861 20.2303V20.8952H56.2849L56.279 20.8972Z" fill="white"/>
<path d="M57.4449 20.9282C57.2983 20.9282 57.1653 20.8871 57.091 20.7737C57.0362 20.6955 57.0109 20.5899 57.0109 20.4432V20.0365H56.7918V19.8096H57.0109L57.0441 19.4791H57.3139V19.8096H57.7422V20.0365H57.3139V20.3865C57.3139 20.4706 57.3198 20.541 57.3432 20.5938C57.3765 20.6662 57.4469 20.6955 57.5408 20.6955C57.6112 20.6955 57.6972 20.6838 57.7579 20.674V20.8911C57.6581 20.9106 57.5447 20.9302 57.443 20.9302" fill="white"/>
<path d="M58.0396 20.8972V19.8099H58.2879L58.2997 19.8783C58.4991 19.8216 58.6478 19.7786 58.8374 19.7786C58.8453 19.7786 58.859 19.7786 58.8766 19.7805V20.0387C58.8414 20.0367 58.8003 20.0367 58.771 20.0367C58.6224 20.0367 58.5109 20.0543 58.3446 20.0934V20.8972H58.0416H58.0396Z" fill="white"/>
<path d="M59.9786 20.4395C59.8515 20.4278 59.7225 20.4219 59.5856 20.4219C59.3646 20.4219 59.2863 20.4669 59.2863 20.5686C59.2863 20.6625 59.3509 20.7153 59.521 20.7153C59.6638 20.7153 59.8339 20.684 59.9786 20.6508V20.4395ZM60.0432 20.8972L60.0353 20.8326C59.8495 20.8776 59.6344 20.9265 59.4447 20.9265C59.3294 20.9265 59.2042 20.9108 59.1142 20.8463C59.0321 20.7876 58.993 20.6938 58.993 20.5843C58.993 20.4611 59.0478 20.3476 59.1769 20.289C59.2903 20.2342 59.4447 20.2303 59.5836 20.2303C59.697 20.2303 59.8515 20.2362 59.9786 20.2459V20.2264C59.9786 20.0563 59.8672 19.9995 59.5602 19.9995C59.4409 19.9995 59.2981 20.0054 59.1592 20.0191V19.8001C59.3118 19.7883 59.4839 19.7786 59.6266 19.7786C59.8163 19.7786 60.0119 19.7942 60.1331 19.8803C60.2583 19.9683 60.2818 20.0915 60.2818 20.2538V20.8972H60.0432Z" fill="white"/>
<path d="M60.6744 19.3519H60.9775V20.8988H60.6744V19.3519Z" fill="white"/>
</svg>
