<svg width="50" height="38" viewBox="0 0 50 38" fill="none" xmlns="http://www.w3.org/2000/svg">
<path d="M13.1058 8.16699C13.0296 5.80269 13.0296 3.44035 13.1058 1.07605C20.9223 1.07605 28.7407 1.07605 36.5572 1.07605C36.5572 3.44035 36.5571 5.80464 36.5551 8.16699C36.4046 8.19045 36.3283 8.28237 36.3146 8.43099H29.2844C29.255 11.734 29.2257 14.9098 29.1983 18.0876C29.0321 18.1228 28.9558 18.2343 28.9402 18.3947C26.5817 18.4749 24.2213 18.4749 21.8629 18.3947C21.8394 18.2891 21.8238 18.1561 21.6732 18.1972C21.6243 18.2109 21.6048 18.3243 21.5696 18.3927C21.2547 18.3223 21.2899 18.072 21.2899 17.8432C21.2899 16.9495 21.2899 16.0538 21.2899 15.1699C23.4978 12.9973 25.6802 10.85 27.7824 8.78104C25.5492 6.58101 23.4196 4.48072 21.2449 2.33936V8.16503C21.0298 8.16894 20.7991 8.14352 20.7267 8.42903C18.2686 8.51508 15.8104 8.50921 13.3522 8.43295C13.3366 8.28237 13.2584 8.19045 13.1058 8.16699Z" fill="white"/>
<path d="M49.3108 26.3009C48.2567 29.8268 47.2027 33.3508 46.1408 36.8748C46.1173 36.953 46.0177 37.0097 45.9551 37.0762C45.2022 37.0762 44.4493 37.0762 43.6983 37.0762C43.6886 36.1747 44.3124 35.4218 44.3143 34.5535C44.0386 34.1232 43.5771 34.4264 43.1781 34.1389C42.4585 31.5458 41.7134 28.8608 40.9507 26.1171C41.7036 25.8981 42.4448 26.0506 43.3013 25.9919C44.0033 27.928 44.3945 29.9696 45.0633 32.2909C45.7752 30.0791 46.3853 28.1783 46.9974 26.2755C47.7679 26.2853 48.5403 26.2951 49.3108 26.3048V26.3009Z" fill="white"/>
<path d="M5.97772 34.3991C5.0586 34.3522 4.31551 34.5556 3.47266 34.1743V25.0476H0.277222C0.122731 24.2243 0.0953531 23.5496 0.277222 22.8534H9.24358C9.41567 23.5867 9.3785 24.2243 9.28268 24.8911C8.24622 25.2529 7.19215 24.9302 5.98751 25.1492C5.97578 28.1472 5.9875 31.1959 5.97968 34.3991H5.97772Z" fill="white"/>
<path d="M23.5215 32.1442C24.1219 31.7687 24.6988 31.6298 25.3579 31.669C25.5925 31.9251 25.8448 32.2009 26.058 32.4336C27.7965 32.7582 27.9079 32.7171 28.1524 31.667C27.7495 31.3737 27.2763 31.2231 26.7717 31.1273C26.2652 31.0314 25.7509 30.9454 25.2679 30.7753C23.4179 30.126 22.9251 27.8106 24.603 26.5023C26.2613 25.2097 29.3863 25.6262 30.2781 27.5251C30.3544 27.6854 30.3505 27.8849 30.3974 28.143C29.797 28.3034 29.224 28.4559 28.6784 28.6026C27.4484 27.396 26.8206 27.3276 25.88 28.2623C26.0247 29.0152 26.7463 28.8803 27.2196 29.0817C27.685 29.2792 28.2228 29.3007 28.7234 29.42C29.7501 29.6645 30.3407 30.3744 30.5636 31.3522C30.7826 32.3143 30.3563 33.0946 29.6367 33.7223C27.7436 35.3728 24.4465 34.5691 23.5215 32.1461V32.1442Z" fill="white"/>
<path d="M20.432 33.9551C20.3968 33.8241 20.3616 33.6911 20.3244 33.5523C17.8936 35.2712 15.8129 34.7471 15.0913 32.2498C15.1539 32.201 15.2164 32.154 15.279 32.1051C15.2106 32.0621 15.1441 32.0191 15.0756 31.9761C14.9153 30.087 14.9818 28.1959 15.0365 26.3068C15.6917 26.1699 16.4172 26.5982 17.0253 26.0683C17.3813 26.1152 17.2835 26.389 17.2835 26.6002C17.2855 27.9671 17.2952 29.336 17.2757 30.703C17.262 31.669 17.5964 32.3437 18.6544 32.5119C19.2899 32.4356 19.7612 32.0875 20.1582 31.3757C20.1582 29.9618 20.1465 28.4091 20.1699 26.8583C20.1738 26.5845 19.9392 26.1739 20.4496 26.0565C20.8661 26.6706 21.6523 25.9685 22.1373 26.5767V34.2504C21.666 34.2504 21.1966 34.2504 20.7253 34.2504C20.6999 34.0783 20.6041 33.9786 20.432 33.9551Z" fill="white"/>
<path d="M34.9553 32.1871C35.5577 32.2438 35.9761 32.2849 36.4474 32.3279C36.7564 32.9341 36.5394 33.5873 36.5765 34.1877C36.2226 34.5514 35.8236 34.3989 35.4677 34.393C33.1699 34.3539 32.4541 33.6225 32.4365 31.3227C32.4287 30.2863 32.4365 29.2498 32.4365 28.2466C32.0571 27.8144 31.492 28.1664 31.0735 27.8516V26.2128C31.4196 25.8061 31.9203 26.1463 32.3661 25.8315C32.5637 25.3817 32.3407 24.7989 32.5109 24.181C33.1269 23.7547 33.9189 23.696 34.7011 23.4535C34.9925 24.2866 34.6913 25.104 34.9025 25.8315C35.3895 26.1874 35.9742 25.7943 36.467 26.1796V27.8105C36.0407 28.2251 35.4599 27.8399 34.8908 28.1469C34.8165 29.4161 34.7617 30.7439 34.9592 32.1832L34.9553 32.1871Z" fill="white"/>
<path d="M40.075 34.3071C39.2752 34.4851 38.5927 34.4323 37.8417 34.315V22.9178H40.075V34.3052V34.3071Z" fill="white"/>
<path d="M11.0616 26.8662C11.1359 26.9112 11.267 27.007 11.2787 26.9934C11.9319 26.2946 12.7897 25.9999 13.8523 26.1094V28.1511C13.3731 28.3994 12.8784 28.1902 12.4384 28.3388C11.265 28.9098 11.1868 30.0108 11.1458 31.1001C11.1067 32.1228 11.1379 33.1476 11.1379 34.231H8.84404C8.84404 33.1085 8.84404 32.0368 8.84404 30.9651C8.84404 29.5043 8.84404 28.0435 8.84404 26.5827C8.84404 26.3676 8.75797 26.0957 9.11584 26.0605C9.53238 26.5964 10.164 26.1016 10.6353 26.3734C10.6842 26.4458 10.7253 26.524 10.782 26.5886C10.87 26.6863 10.9678 26.7724 11.0616 26.8643V26.8662Z" fill="white"/>
<path d="M36.558 1.07592C28.7415 1.07592 20.9231 1.07592 13.1067 1.07592C13.3374 0.49902 13.8361 0.804091 14.1861 0.802135C18.463 0.774757 22.7418 0.784535 27.0187 0.784535C29.8856 0.784535 32.7524 0.774757 35.6213 0.796269C35.9342 0.798224 36.3781 0.553777 36.558 1.07396V1.07592Z" fill="white"/>
<path d="M22.1384 34.2524V26.5787C21.6535 25.9705 20.8673 26.6725 20.4507 26.0585H22.2694C22.5804 26.3127 22.4474 26.6667 22.4493 26.9756C22.4611 29.1366 22.463 31.2975 22.4474 33.4584C22.4454 33.74 22.643 34.1468 22.1404 34.2543L22.1384 34.2524Z" fill="white"/>
<path d="M11.0618 26.866C10.9679 26.7741 10.8682 26.688 10.7821 26.5903C10.7254 26.5257 10.6843 26.4475 10.6355 26.3751C10.1642 26.1033 9.53251 26.5981 9.11597 26.0623H10.9581C11.1771 26.338 11.0598 26.6079 11.0637 26.866H11.0618Z" fill="white"/>
<path d="M49.3111 26.301C48.5406 26.2912 47.7682 26.2814 46.9977 26.2716C47.9657 25.8942 48.5523 25.902 49.3111 26.301Z" fill="white"/>
<path d="M43.6993 37.0763C44.4522 37.0763 45.2051 37.0763 45.9561 37.0763C45.1074 37.4655 44.507 37.4655 43.6993 37.0763Z" fill="white"/>
<path d="M17.0267 26.0664C16.4185 26.5963 15.693 26.1681 15.0378 26.3049C15.6382 25.7007 16.3559 26.0879 17.0267 26.0664Z" fill="white"/>
<path d="M20.7242 8.42904C20.7965 8.14353 21.0253 8.16895 21.2424 8.16504C21.2365 8.57962 20.9589 8.46229 20.7242 8.42904Z" fill="white"/>
<path d="M13.1062 8.16699C13.2587 8.19046 13.3369 8.28237 13.3526 8.43295C13.1414 8.46424 13.0749 8.36059 13.1062 8.16699Z" fill="white"/>
<path d="M36.3138 8.431C36.3295 8.28237 36.4038 8.19046 36.5544 8.16699C36.5857 8.35668 36.525 8.46229 36.3138 8.431Z" fill="white"/>
<path d="M21.569 18.3946C21.6022 18.3262 21.6237 18.2127 21.6726 18.199C21.8232 18.158 21.8369 18.291 21.8623 18.3966C21.7645 18.3966 21.6668 18.3966 21.5709 18.3966L21.569 18.3946Z" fill="white"/>
<path d="M28.9377 18.3966C28.9533 18.2363 29.0296 18.1248 29.1958 18.0896C29.2232 18.2891 29.1645 18.4142 28.9377 18.3966Z" fill="white"/>
<path d="M15.0745 31.9762C15.143 32.0192 15.2095 32.0622 15.2779 32.1053C15.2153 32.1542 15.1528 32.2011 15.0902 32.25C15.0843 32.1581 15.0784 32.0681 15.0745 31.9762Z" fill="white"/>
<path d="M20.4308 33.9551C20.6029 33.9805 20.7006 34.0802 20.7241 34.2504C20.5031 34.2738 20.4034 34.1761 20.4308 33.9551Z" fill="white"/>
</svg>
