<svg width="56" height="39" viewBox="0 0 56 39" fill="none" xmlns="http://www.w3.org/2000/svg">
<path d="M20.7803 30.0169C20.3442 31.423 19.5267 32.1172 18.281 32.125C13.1554 32.1602 8.02791 32.1739 2.90233 32.125C1.26747 32.1094 0.223187 30.936 0.187986 29.1995C0.139097 26.8489 0.170381 24.4963 0.170381 22.1457C0.170381 19.6914 0.154742 17.2391 0.176253 14.7849C0.195809 12.5497 1.13449 11.5445 3.31692 11.5308C8.13547 11.4995 12.954 11.5015 17.7726 11.5308C19.7888 11.5425 20.8409 12.4558 20.88 14.3488C20.9504 17.8239 20.9035 21.3009 20.8937 24.7759C20.8937 25.0145 20.79 25.2551 20.6962 25.6599C19.9589 25.6599 19.2549 25.6599 18.5509 25.6599C15.8854 25.6599 13.22 25.6755 10.5545 25.652C8.9705 25.6384 8.34471 25.2961 7.27109 23.847C11.1373 23.8216 14.8236 23.7962 18.4492 23.7708C19.4094 18.5435 16.1533 14.9042 12.6998 14.0144C8.28996 12.8762 4.07569 15.2816 2.8202 19.5839C1.62339 23.6808 3.96616 28.1454 8.15111 29.4772C9.34205 29.8565 10.6738 29.8741 11.943 29.9093C14.2995 29.9739 16.6579 29.923 19.0163 29.9328C19.558 29.9348 20.0997 29.9837 20.7842 30.0189L20.7803 30.0169Z" fill="white"/>
<path d="M26.8694 29.6176V38.0911H23.4393C23.4022 37.5397 23.3376 37.0469 23.3376 36.5521C23.3298 31.5967 23.4198 26.6412 23.3024 21.6877C23.2242 18.4239 25.7449 14.7239 29.662 14.1587C33.8098 13.5603 37.3376 15.819 38.4288 19.6676C39.8447 24.6641 36.1682 29.5629 30.9527 29.6157C29.6874 29.6293 28.4202 29.6157 26.8694 29.6157V29.6176ZM26.9887 25.8922C28.8856 26.0272 30.718 26.2618 32.4937 25.6321C34.4062 24.9516 35.4192 22.9804 35.0476 20.927C34.7269 19.1455 32.9747 17.6749 31.1248 17.6358C29.1379 17.5927 27.3075 18.8873 27.0337 20.8566C26.8127 22.4445 26.9887 24.0892 26.9887 25.8942V25.8922Z" fill="white"/>
<path d="M37.2827 29.5943C38.1725 28.4405 39.0075 27.3591 39.9853 26.0919C40.3216 26.0723 40.8751 26.0156 41.4285 26.0137C44.1976 26.0039 46.9687 26.0156 49.7378 26.0019C50.6158 25.998 51.5291 25.998 51.8459 24.8716C51.709 23.7472 50.8916 23.5536 49.9568 23.5438C48.3669 23.5281 46.7751 23.579 45.1871 23.5086C42.9597 23.4108 41.1586 21.7427 40.8848 19.6248C40.57 17.1842 41.7434 15.1191 43.8867 14.3486C44.0783 14.2802 44.2758 14.1726 44.4714 14.1726C47.2776 14.1609 50.0839 14.1648 53.0192 14.1648V17.3016C52.4814 17.3602 51.9456 17.46 51.4078 17.4697C49.9216 17.4932 48.4334 17.4697 46.9452 17.4834C46.4856 17.4873 46.0202 17.5049 45.5685 17.5871C44.8918 17.7083 44.4245 18.1014 44.4616 18.8347C44.4988 19.57 45.0072 19.9123 45.6936 19.9494C46.4602 19.9905 47.2307 19.9709 48.0012 19.9748C48.9751 19.9788 49.9529 19.9357 50.9248 19.9905C53.4436 20.1332 55.4285 22.2218 55.4735 24.7269C55.5165 27.146 53.6431 29.4887 51.2279 29.5591C46.5873 29.6941 41.9409 29.5983 37.2768 29.5983L37.2827 29.5943Z" fill="white"/>
<path d="M4.15612 8.61484C3.47167 5.45071 4.42404 2.78721 6.72772 1.23644C9.1585 -0.398428 11.8944 -0.425806 14.3427 1.23644C16.9652 3.01406 17.4521 5.5876 16.9906 8.61289H14.0553C14.0553 7.90301 14.0905 7.25767 14.0494 6.61624C13.9145 4.58439 12.5475 3.22917 10.635 3.19593C8.66178 3.16073 7.33004 4.39274 7.11883 6.46566C7.04843 7.15989 7.0015 7.85608 6.93892 8.61484H4.16004H4.15612Z" fill="white"/>
<path d="M7.16705 19.7401C8.98574 17.102 11.8859 17.0688 13.9744 19.6775C12.7287 19.701 11.6571 19.7284 10.5854 19.7381C9.51961 19.7479 8.45578 19.7401 7.16705 19.7401Z" fill="white"/>
</svg>
