<svg width="64" height="24" viewBox="0 0 64 24" fill="none" xmlns="http://www.w3.org/2000/svg">
<path d="M53.5456 3.39673C48.9871 3.39673 45.2696 7.11233 45.2696 11.6727C45.2696 16.2332 48.9871 19.9468 53.5456 19.9468C58.1041 19.9468 61.8196 16.2293 61.8196 11.6727C61.8196 7.11624 58.1041 3.39673 53.5456 3.39673ZM53.5456 16.9098C50.6592 16.9098 48.3085 14.5572 48.3085 11.6727C48.3085 8.78827 50.6611 6.4357 53.5456 6.4357C56.4301 6.4357 58.7826 8.78827 58.7826 11.6727C58.7826 14.5572 56.4301 16.9098 53.5456 16.9098Z" fill="white"/>
<path d="M0.0980225 23.7243H63.1655V22.2674H18.8364C20.612 21.1469 21.9536 19.0877 23.2795 17.4743L25.9801 14.1831L29.2186 17.8341L31.268 15.4072L28.0159 11.7034L32.7191 5.97157C33.8787 4.1431 31.6161 2.35961 30.2374 4.03555L25.9039 9.29802L21.2105 3.95342C19.779 2.32246 17.5731 4.17831 18.7914 5.96766L23.8701 11.7679L20.8331 15.4561C17.6142 19.3653 15.4122 22.2655 10.5643 22.2655H0.101937V22.2479V23.7224L0.0980225 23.7243Z" fill="white"/>
<path d="M53.1353 1.82385H63.1655V0.366943H0.0980225V1.83754V1.82385H44.8495C43.0484 2.90333 41.6599 5.00167 40.2989 6.58373L37.5219 9.8124L34.3011 5.94426L32.2634 8.46696L35.4295 12.2451L30.5953 17.8655C29.3926 19.6666 31.6141 21.5009 33.0319 19.8582L37.4848 14.6974L42.0531 20.1476C43.4474 21.8118 45.6943 20.0068 44.5171 18.1901L39.5753 12.2745L42.6964 8.65861C46.0052 4.82371 48.2835 1.71434 53.1334 1.82581L53.1353 1.82385Z" fill="white"/>
<path d="M2.10104 11.6701C2.10104 16.2285 5.81666 19.9441 10.3771 19.9441C14.9375 19.9441 18.6511 16.2266 18.6511 11.6701C18.6511 7.11356 14.9355 3.39404 10.3771 3.39404C5.81862 3.39404 2.10104 7.10965 2.10104 11.6701ZM10.3771 6.43302C13.2616 6.43302 15.6141 8.78558 15.6141 11.6701C15.6141 14.5545 13.2616 16.9071 10.3771 16.9071C7.49259 16.9071 5.13807 14.5545 5.13807 11.6701C5.13807 8.78558 7.49064 6.43302 10.3771 6.43302Z" fill="white"/>
</svg>
