<svg width="65" height="21" viewBox="0 0 65 21" fill="none" xmlns="http://www.w3.org/2000/svg">
<path d="M45.2558 5.22297V8.20133H54.2261V12.0988H45.3125V15.7988H55.2352V19.9681H39.4243V1.27271H54.938V5.22297H45.2539H45.2558Z" fill="white"/>
<path d="M16.786 6.51556C14.9868 6.61725 13.2308 6.71698 11.4277 6.81868C11.3612 6.58401 11.3065 6.3728 11.24 6.16551C10.7335 4.60105 8.71727 3.81882 7.2721 4.62647C6.8008 4.88852 6.51724 5.28941 6.52897 5.82915C6.5407 6.36498 6.91032 6.70721 7.37379 6.8617C8.12474 7.11201 8.90501 7.2665 9.66573 7.4914C11.1129 7.92162 12.5933 8.27754 13.9876 8.83879C16.1817 9.72076 17.49 11.3732 17.5018 13.806C17.5135 16.2837 16.3284 18.1141 14.1557 19.2953C13 19.925 11.7347 20.1792 10.4362 20.2613C8.39068 20.3924 6.36468 20.3141 4.40715 19.6101C2.19734 18.8162 0.454956 16.2407 0.537091 13.804C2.33036 13.6925 4.12948 13.583 5.95013 13.4696C6.04595 13.8529 6.10854 14.1912 6.21219 14.5158C6.81255 16.3639 9.19246 17.2458 10.8703 16.2465C12.2001 15.4545 12.2236 13.8627 10.8391 13.1548C10.0138 12.7324 9.07712 12.5035 8.16973 12.2689C6.67762 11.8817 5.19135 11.4906 3.84005 10.722C2.27754 9.83223 1.26062 8.5611 1.14133 6.70134C1.00053 4.53456 2.24037 2.61027 4.41302 1.67746C6.07135 0.965626 7.8353 0.883492 9.60705 0.932381C11.1832 0.975404 12.7223 1.19052 14.1381 1.9571C15.685 2.79409 16.7606 4.60496 16.786 6.51361V6.51556Z" fill="white"/>
<path d="M20.408 19.9582V1.21787H21.0123C24.0454 1.21787 27.0785 1.19832 30.1116 1.23156C30.8997 1.23938 31.7015 1.34107 32.4681 1.5249C34.5918 2.03335 35.859 3.4003 36.2169 5.56121C36.5748 7.72018 36.3049 9.73052 34.6642 11.3517C33.702 12.3021 32.4817 12.7304 31.1734 12.8497C29.9884 12.9592 28.7935 12.9494 27.6025 12.9846C27.1821 12.9963 26.7597 12.9866 26.2571 12.9866V19.9562H20.4099L20.408 19.9582ZM26.2552 9.31202C27.2075 9.24553 28.0778 9.23967 28.9324 9.11451C30.0568 8.95024 30.6885 8.1856 30.6787 7.14328C30.6689 6.05402 30.0118 5.26201 28.8698 5.14468C28.0171 5.05667 27.1489 5.12708 26.2552 5.12708V9.31397V9.31202Z" fill="white"/>
<path d="M64.3731 20.0012H58.6608V12.1398H61.6587V13.8548C61.7096 13.8822 61.7624 13.9096 61.8132 13.9369C62.6424 12.9181 63.4735 11.8973 64.3731 10.7924V20.0012Z" fill="white"/>
<path d="M64.3825 9.9495C63.4791 8.83287 62.6597 7.81988 61.7288 6.67V8.18361H58.6488V1.26868H64.3825V9.9495Z" fill="white"/>
</svg>
