<svg width="63" height="34" viewBox="0 0 63 34" fill="none" xmlns="http://www.w3.org/2000/svg">
<path d="M5.76795 7.40459C5.75621 7.0213 5.57042 6.82378 5.22038 6.81205H3.33325C2.88346 6.83356 2.6527 7.08583 2.64292 7.54735V10.9364C2.65465 11.4077 2.90692 11.6502 3.39973 11.6717H5.1226C5.2986 11.6717 5.45114 11.6052 5.57239 11.4742C5.69363 11.3764 5.75816 11.2434 5.75816 11.0791L5.7699 7.40459H5.76795ZM0.227783 6.92156C0.239517 6.07675 0.425294 5.42945 0.798809 4.9914C0.98459 4.80562 1.22708 4.65113 1.52238 4.52011C1.8294 4.38908 2.11492 4.32259 2.40043 4.32259H5.85594C7.38129 4.33433 8.15962 5.16741 8.18113 6.82378V11.9239C8.16939 12.5165 7.9406 13.021 7.49081 13.4493C7.05276 13.8991 6.52475 14.1298 5.9107 14.1396H2.64098V17.8141H0.227783V6.92156ZM12.5577 11.1671C12.5577 11.3099 12.6242 11.4194 12.7552 11.5074C12.8647 11.6052 13.0192 11.6619 13.1933 11.6619H15.0472C15.4637 11.6619 15.6827 11.4976 15.6945 11.1691V10.4788C15.6945 10.0955 15.4754 9.90774 15.0257 9.90774H13.1835C12.943 9.90774 12.7767 9.95076 12.679 10.029C12.591 10.117 12.5479 10.293 12.5479 10.555L12.5597 11.1691L12.5577 11.1671ZM15.7062 7.3381C15.7179 6.96459 15.497 6.79054 15.0589 6.80032H10.1895V4.32064H15.6749C17.2765 4.34215 18.0881 5.12047 18.1096 6.64582V11.8457C18.0979 12.5047 17.8906 13.0406 17.5053 13.4806C17.0986 13.9304 16.5725 14.1494 15.9252 14.1494H12.6125C10.9991 14.1377 10.1778 13.4043 10.1563 11.9337V9.92729C10.168 8.39216 10.9463 7.61188 12.503 7.59037H15.716L15.7043 7.3381M24.8955 15.3345C25.0813 15.3227 25.2573 15.2582 25.3883 15.1252C25.5193 15.004 25.5858 14.873 25.5858 14.7302V14.1377H22.4921C22.0853 14.1377 21.7685 14.0829 21.526 13.9832C21.2737 13.8952 21.0215 13.7192 20.7575 13.4669C20.5169 13.2029 20.3409 12.9291 20.2314 12.6436C20.1219 12.3796 20.0672 12.0511 20.0672 11.6462V4.31868H22.4921V10.8679C22.4921 11.394 22.7111 11.658 23.1394 11.658H24.8505C25.0597 11.658 25.2338 11.5915 25.3765 11.4605C25.5193 11.3392 25.5858 11.2082 25.5858 11.0439V4.32064H27.9873V15.1467C27.9755 15.9466 27.7682 16.5939 27.3732 17.0769C26.9664 17.5599 26.4189 17.8122 25.7168 17.822H20.0672V15.3325H24.8935M29.8842 11.658H34.1943C34.5893 11.6462 34.7985 11.482 34.8083 11.1867V10.9677C34.8083 10.9012 34.7868 10.8366 34.7536 10.7584C34.6558 10.5726 34.5345 10.4729 34.4035 10.4729H32.2543C31.6188 10.4612 31.081 10.2421 30.6195 9.81387C30.1579 9.41884 29.9291 8.94754 29.9057 8.37651V6.52262C29.9272 5.07549 30.7172 4.3402 32.2641 4.31868H37.2665V6.80814H33.0327C32.5398 6.80814 32.2876 6.96263 32.2876 7.26965V7.51019C32.2876 7.82895 32.5398 7.98149 33.0561 7.98149H35.1838C35.7548 7.99322 36.2359 8.21225 36.6427 8.64052C37.0494 9.06879 37.2567 9.57333 37.2782 10.1659V11.9767C37.2665 12.4813 37.0259 12.9976 36.5762 13.5021C36.3571 13.7544 36.1264 13.9186 35.9074 14.0184C35.6766 14.1064 35.3598 14.1494 34.953 14.1494H29.8959L29.8842 11.6599M41.4123 11.1671C41.4123 11.3099 41.4788 11.4194 41.6098 11.5074C41.7193 11.6052 41.8621 11.6619 42.0479 11.6619H43.9135C44.33 11.6619 44.5491 11.4976 44.5608 11.1691V10.4788C44.5608 10.0955 44.3418 9.90774 43.892 9.90774H42.0498C41.8093 9.90774 41.6431 9.95076 41.5453 10.029C41.4573 10.117 41.4143 10.293 41.4143 10.555V11.1691L41.4123 11.1671ZM44.5608 7.3381C44.5725 6.96459 44.3516 6.79054 43.9018 6.80032H39.0324V4.32064H44.5178C46.1194 4.34215 46.931 5.12047 46.9525 6.64582V11.8457C46.9407 12.5047 46.7335 13.0406 46.3482 13.4806C45.9414 13.9304 45.4154 14.1494 44.7681 14.1494H41.4436C39.8303 14.1377 39.0089 13.4043 38.9874 11.9337V9.92729C38.9991 8.39216 39.7775 7.61188 41.3341 7.59037H44.5588V7.3381M48.9237 2.90675C48.9354 2.23795 49.1877 1.70016 49.6688 1.2934C50.1401 0.88664 50.7541 0.667615 51.5227 0.657837H53.0578V3.05929H52.125C51.6087 3.07102 51.3564 3.31156 51.3467 3.79459V4.32064H53.0578V6.81009H51.3467V14.1494H48.9217V2.90675M59.9356 7.29508V7.24032C59.9356 7.1093 59.8808 6.99978 59.7811 6.92156C59.6716 6.84529 59.5288 6.80032 59.3645 6.80032H57.6749C57.4559 6.80032 57.2799 6.86681 57.1489 6.9861C56.9846 7.09561 56.8966 7.2501 56.8966 7.43588V8.43323L59.9356 7.29312V7.29508ZM56.9416 10.8171V10.9716C56.9416 11.1691 56.9963 11.3334 57.0961 11.4429C57.1723 11.5856 57.2721 11.6619 57.4148 11.6619H62.384V14.1513H57.0961C56.613 14.1513 56.2395 14.1083 55.9775 14.0203C55.692 13.9225 55.4299 13.7681 55.1992 13.549C54.9352 13.285 54.7494 13.023 54.6614 12.7375C54.5636 12.4519 54.5069 12.0687 54.5069 11.5974L54.4854 6.61649C54.5069 5.11461 55.2969 4.34606 56.8438 4.32455H60.1135C61.6154 4.34606 62.384 5.14785 62.4055 6.70449V8.66789L56.9435 10.8171M25.0989 33.4314C24.6354 33.4314 24.1993 33.3884 23.8062 33.3043C23.3995 33.2339 22.9907 33.052 22.584 32.7274C22.1616 32.3617 21.8663 31.9393 21.6981 31.4758C21.5299 31.0261 21.4458 30.5059 21.4458 29.9446V23.9997C21.4321 23.5225 21.4732 23.0864 21.5866 22.7207C21.6844 22.355 21.9093 21.9893 22.2476 21.6393C22.627 21.2736 23.0064 21.0213 23.4151 20.8942C23.8082 20.7964 24.2443 20.7397 24.7371 20.7397H29.4872V21.4848H24.8486C24.0331 21.4848 23.3858 21.653 22.9086 21.9913C22.4314 22.357 22.1772 22.9886 22.1772 23.8882V29.8331C22.1772 30.2556 22.2476 30.6623 22.3747 31.0554C22.5019 31.4348 22.7267 31.7868 23.0357 32.0821C23.374 32.3343 23.7104 32.5045 24.0331 32.5592C24.3714 32.6296 24.7351 32.6727 25.1302 32.6727H29.5576V33.4177H25.1008M41.7154 25.7147H35.4889C34.7438 25.7284 34.1532 25.967 33.7328 26.4031C33.2967 26.8528 33.0855 27.4708 33.0855 28.2589V30.1558C33.0855 30.5215 33.1285 30.8579 33.1989 31.1688C33.283 31.4915 33.4668 31.7731 33.7758 32.0117C34.3096 32.4614 34.9139 32.6727 35.5612 32.6727H39.357C40.9312 32.659 41.733 31.8298 41.733 30.1715L41.7193 25.7147H41.7154ZM42.4605 30.0013C42.4605 30.4785 42.4175 30.9009 42.3627 31.2666C42.265 31.6734 42.0537 32.0547 41.7448 32.4184C41.0975 33.1068 40.282 33.4451 39.3277 33.4158H35.616C34.646 33.4158 33.8736 33.1342 33.2693 32.5592C32.6513 31.996 32.3423 31.2099 32.3423 30.1969V28.2843C32.3697 26.1195 33.4531 25.0087 35.5749 24.9677H41.7448V24.1248C41.7448 23.4364 41.5473 22.8322 41.1405 22.312C40.8882 21.9737 40.5929 21.7488 40.2546 21.6373C39.9163 21.5532 39.5232 21.4965 39.1028 21.4965H32.3697V20.7514H38.7508C39.3414 20.7514 39.8615 20.7945 40.3387 20.8785C40.5773 20.9216 40.8022 21.0193 41.0134 21.1601C41.2383 21.2873 41.4358 21.4828 41.6177 21.737C42.1946 22.4821 42.4742 23.325 42.4605 24.2813V30.0013ZM49.4322 21.4965C47.7034 21.5239 46.8449 22.4665 46.8879 24.3223V33.4177H46.1429V24.338C46.0998 21.9482 47.2399 20.7534 49.5593 20.7534H50.3884V21.4985H49.4322M61.985 21.4985H56.1085C55.6861 21.4985 55.3067 21.5415 54.9704 21.6393C54.6184 21.7234 54.2683 21.9346 53.9437 22.2866C53.6347 22.6092 53.4372 22.9339 53.3531 23.2428C53.2397 23.5655 53.1986 23.9449 53.2123 24.3947V30.2008C53.2123 31.1708 53.4939 31.8181 54.0551 32.1681C54.3367 32.3363 54.6457 32.4497 54.9821 32.5338C55.3204 32.6179 55.7135 32.6746 56.1202 32.6746H58.6918C59.6481 32.6746 60.4343 32.4497 61.0385 32.0136C61.6428 31.5912 61.9518 30.8755 61.9811 29.8488V21.4985H61.985ZM62.7301 29.9035C62.6597 32.307 61.3944 33.4881 58.9206 33.4314H56.1652C55.5883 33.4314 55.0681 33.3747 54.6047 33.2906C54.1275 33.1635 53.6777 32.8839 53.2416 32.4341C52.919 32.0273 52.7077 31.6186 52.6237 31.1962C52.5102 30.7738 52.4555 30.3103 52.4829 29.8038V24.3927C52.5102 21.9619 53.7481 20.7377 56.1652 20.7671H61.9987V16.6486H62.7438V29.9035" fill="white"/>
<path d="M6.12602 23.0433C6.31375 22.9553 6.51128 22.8889 6.69706 22.8556C7.04906 21.1855 8.53334 19.932 10.3012 19.932C12.069 19.932 13.5553 21.1855 13.9053 22.8556C14.4548 22.9553 14.9046 23.1744 15.2468 23.5049C15.2586 23.1861 15.2469 22.8791 15.2136 22.5818C14.9946 20.0533 12.8728 18.0762 10.2895 18.0762C7.70613 18.0762 5.46503 20.1862 5.35552 22.8126C5.34378 23.0433 5.33401 23.2741 5.34379 23.5264C5.56281 23.3386 5.81705 23.1744 6.12407 23.0433" fill="white"/>
<path d="M13.1816 23.4167H7.25818C6.97267 23.4167 6.67542 23.4832 6.37817 23.6143C6.08092 23.7453 5.84038 23.8998 5.65265 24.0875C5.29086 24.5275 5.0914 25.1748 5.08162 26.0216V30.6485C5.09335 31.4952 5.27913 32.1425 5.65265 32.5826C5.85016 32.7703 6.08092 32.9228 6.37817 33.0558C6.6852 33.1868 6.98244 33.2533 7.25818 33.2533H13.1816C14.7089 33.2416 15.4892 32.3968 15.5107 30.7365V25.9218C15.4892 24.2616 14.7089 23.4265 13.1816 23.4167Z" fill="white"/>
</svg>
