<svg width="69" height="23" viewBox="0 0 69 23" fill="none" xmlns="http://www.w3.org/2000/svg">
<path d="M18.3419 14.0849H14.7397L14.9861 12.7472L20.5928 12.7081L20.3874 13.9675L15.6804 18.2581H19.6091L19.4038 19.5957H13.5918L13.8382 18.217L18.3399 14.0829L18.3419 14.0849Z" fill="white"/>
<path d="M8.84769 10.6185C8.72449 10.5012 8.56024 10.3819 8.35686 10.3036C8.15153 10.2254 7.90706 10.1863 7.70172 10.1452C7.41425 10.1061 7.16982 10.067 6.96449 10.067H2.38059L0.743774 19.5535H2.25739L2.87145 16.0491H5.8185C5.8185 16.0491 6.96448 16.0882 7.78387 15.6952C8.60325 15.263 8.80663 14.3165 8.80663 14.3165C8.80663 14.3165 8.88876 13.9625 8.97089 13.5284C9.05303 13.0551 9.13517 12.5056 9.17624 12.1908C9.17624 12.0734 9.2173 11.9933 9.2173 11.9933C9.2173 11.9933 9.25838 11.915 9.25838 11.7566C9.25838 11.5591 9.2173 11.2443 9.05304 10.9294C9.01197 10.8121 8.92982 10.7319 8.84769 10.6146V10.6185ZM7.66066 12.312C7.66066 12.312 7.53745 13.1001 7.33407 14.0056C7.25194 14.3595 7.00749 14.5179 6.67896 14.5961C6.14704 14.7135 5.57405 14.6744 5.57405 14.6744H3.11785L3.64976 11.5259H6.26829C6.51469 11.5259 6.84126 11.5259 7.08767 11.565C7.33407 11.6041 7.49639 11.6432 7.53746 11.7234C7.61959 11.8016 7.66066 11.9209 7.66066 12.0382V12.314V12.312Z" fill="white"/>
<path d="M28.2052 10.067H29.6386L28.0018 19.5946H26.5292L28.2071 10.067H28.2052Z" fill="white"/>
<path d="M42.8983 19.5569H41.1383L40.6474 14.7931L38.4787 19.5569L36.7597 19.5961L36.0225 12.7457L37.4559 12.7065L37.9467 17.5486L40.1155 12.7065H41.8344L42.3664 17.5486L44.5351 12.7065H46.0076L42.8963 19.5569H42.8983Z" fill="white"/>
<path d="M25.4646 12.785C25.0559 12.6677 24.3186 12.6266 23.7456 12.6266C23.1726 12.6266 22.8852 12.6657 22.6818 12.7048C22.6818 12.7048 21.659 12.8632 21.045 13.5711C20.4309 14.2791 20.2666 15.8142 20.2666 15.8142C20.2666 15.8142 19.899 17.5077 20.0202 18.0983C20.1434 18.6498 20.3077 19.2013 20.9609 19.4359C21.616 19.6725 22.189 19.6726 22.189 19.6726C22.189 19.6726 23.376 19.7508 24.2756 19.5552C25.1751 19.3577 25.6269 18.728 25.6269 18.728C25.6269 18.728 25.8322 18.4523 25.9945 18.1374C26.1588 17.8226 26.1999 17.625 26.1999 17.5859L26.282 17.232H24.7684C24.7684 17.232 24.6863 18.2156 23.8688 18.2958C23.0494 18.374 22.5997 18.3349 22.4354 18.3349C22.2711 18.3349 21.4126 18.374 21.4537 17.6661V17.627C21.4947 16.7998 21.5769 16.6042 21.5769 16.6042H26.3661L26.5714 15.4622C26.8589 14.1637 26.6946 13.1781 25.4665 12.785H25.4646ZM25.138 15.2647H21.8643L21.9876 14.7523C21.9876 14.7523 22.1108 14.3592 22.3141 14.2008C22.5605 14.0424 22.8461 14.0033 23.0925 13.9642C23.3799 13.9251 24.0741 13.886 24.6882 14.0033C24.8935 14.0424 25.0559 14.1617 25.138 14.3182C25.2612 14.7112 25.138 15.2627 25.138 15.2627V15.2647Z" fill="white"/>
<path d="M34.5073 12.785C34.0986 12.6677 33.3613 12.6266 32.7884 12.6266C32.2154 12.6266 31.9279 12.6657 31.7245 12.7048C31.7245 12.7048 30.7018 12.8632 30.0877 13.5711C29.4737 14.2791 29.3094 15.8142 29.3094 15.8142C29.3094 15.8142 28.9417 17.5077 29.063 18.0983C29.1862 18.6498 29.3504 19.2013 30.0036 19.4359C30.6587 19.6725 31.2317 19.6726 31.2317 19.6726C31.2317 19.6726 32.4187 19.7508 33.3183 19.5552C34.2179 19.3577 34.6696 18.728 34.6696 18.728C34.6696 18.728 34.875 18.4523 35.0373 18.1374C35.2015 17.8226 35.2426 17.625 35.2426 17.5859L35.3247 17.232H33.8111C33.8111 17.232 33.729 18.2156 32.9116 18.2958C32.0922 18.374 31.6424 18.3349 31.4781 18.3349C31.3139 18.3349 30.4554 18.374 30.4964 17.6661V17.627C30.5375 16.7998 30.6196 16.6042 30.6196 16.6042H35.4088L35.6142 15.4622C35.9016 14.1637 35.7374 13.1781 34.5093 12.785H34.5073ZM34.1807 15.2647H30.9071L31.0303 14.7523C31.0303 14.7523 31.1535 14.3592 31.3569 14.2008C31.6033 14.0424 31.8888 14.0033 32.1352 13.9642C32.4227 13.9251 33.1169 13.886 33.7309 14.0033C33.9363 14.0424 34.0986 14.1617 34.1807 14.3182C34.3039 14.7112 34.1807 15.2627 34.1807 15.2627V15.2647Z" fill="white"/>
<path d="M47.6872 12.7453L48.6279 17.7457L51.2874 12.7453H52.8011L48.9544 19.9105C48.9544 19.9105 48.2583 21.209 47.8085 21.5239C47.3587 21.8387 47.1123 21.9971 46.7446 22.0362C46.377 22.0754 46.2538 22.0754 45.9253 22.0362L45.5576 21.958L45.7629 20.6595C45.7629 20.6595 46.377 20.7769 46.7036 20.6204C47.0712 20.5031 47.3587 19.9125 47.3587 19.9125L47.5229 19.6367L46.1306 12.7081L47.6853 12.7472L47.6872 12.7453Z" fill="white"/>
<path d="M53.3354 13.413H54.8901L54.9722 12.8224C54.9722 12.8224 55.1365 11.7996 55.5041 11.563C55.6273 11.4848 55.8307 11.4457 56.036 11.4046C56.4447 11.3264 56.9356 11.3264 57.3873 11.3264C58.0425 11.3655 58.2869 11.3655 58.942 11.4437C59.5971 11.5219 59.4329 12.1125 59.4329 12.1125L59.3097 13.0179C59.3097 13.0179 59.2686 13.411 59.1043 13.6867C58.9811 13.9234 58.6135 14.0798 58.4081 14.1189C57.9173 14.2773 56.1573 14.7095 56.1573 14.7095L54.806 15.1026C54.806 15.1026 53.9455 15.3392 53.4957 15.8496C53.0049 16.362 52.8406 16.9135 52.7585 17.2283C52.6763 17.5432 52.3498 19.5906 52.3498 19.5906H59.7575L60.0039 18.1729H54.1508L54.274 17.5823C54.274 17.5823 54.3562 16.9917 54.6006 16.7942C54.6828 16.7159 54.7238 16.6358 55.1736 16.4793C55.4611 16.4011 56.4017 16.1254 56.4017 16.1254L58.6115 15.5348C58.6115 15.5348 59.7986 15.2199 60.2894 14.5902C60.7803 13.9605 60.9445 12.7402 60.9445 12.7402C60.9445 12.7402 61.0677 11.5591 60.9856 11.2051C60.9035 10.8512 60.5358 10.3779 60.086 10.2215C59.6362 10.0239 59.1865 9.90661 57.8352 9.94572C56.4838 9.98483 55.8287 10.0239 55.1756 10.2606C54.5204 10.4972 54.1117 10.9294 53.8653 11.5591C53.4977 12.1497 53.3334 13.4091 53.3334 13.4091L53.3354 13.413Z" fill="white"/>
<path d="M67.2922 16.0511L68.3149 10.067H66.4728L60.7429 15.9729L60.4965 17.4689H65.4891L65.1215 19.5555H66.6762L67.0438 17.4689H68.4773L68.7237 16.0511H67.2902H67.2922ZM65.7375 16.0511H62.5049L66.4337 12.0363L65.7375 16.0511Z" fill="white"/>
<path d="M12.0809 10.8554H16.788C16.788 10.8554 17.8518 10.0281 18.589 9.51774C19.3263 9.00538 20.7167 8.13906 20.7167 8.13906L18.0571 6.95789C18.0571 6.95789 15.8062 8.2955 14.8656 8.92716C13.925 9.51774 12.0828 10.8554 12.0828 10.8554H12.0809Z" fill="white"/>
<path d="M22.1887 7.31184L20.0199 5.89405C20.0199 5.89405 21.9853 4.83021 24.6449 3.80744C27.2634 2.78468 28.6558 2.38965 28.6558 2.38965L29.1055 4.39803C29.1055 4.39803 26.5672 5.22524 25.1357 5.85494C23.6221 6.48463 22.1887 7.31184 22.1887 7.31184Z" fill="white"/>
<path d="M30.703 3.92745L30.3353 1.87996C30.3353 1.87996 33.036 1.17204 35.4922 0.737897C37.9484 0.305714 41.2221 0.0690918 41.2221 0.0690918L40.1582 3.25864C40.1582 3.25864 37.2933 2.86557 34.5926 3.21953C32.465 3.49527 30.7049 3.92745 30.7049 3.92745H30.703Z" fill="white"/>
<path d="M41.8761 3.53434L43.7182 0.0299403C43.7182 0.0299403 47.7291 -0.0482846 51.167 0.462122C54.6049 0.974484 57.7573 1.76063 57.6752 1.79974L48.9572 6.20958C48.9572 6.20958 46.9117 4.95018 44.3733 4.2012C42.9008 3.76901 41.8761 3.53239 41.8761 3.53239V3.53434Z" fill="white"/>
<path d="M50.4707 7.15573L52.395 8.57352H68.153C68.153 8.57352 68.112 8.10027 67.7033 7.39235C67.4569 6.96017 66.966 6.48692 66.4752 6.01367C66.3109 5.85527 65.5756 5.30575 65.0417 4.94983C63.6494 4.08351 62.873 3.72955 61.4395 3.09985L50.4707 7.15377V7.15573Z" fill="white"/>
<path d="M13.1027 12.7064C12.5297 12.7064 11.9567 12.943 11.4659 13.1796L11.548 12.7064H9.99334L8.72417 19.5176H10.2789L10.975 15.7375C11.1393 14.9905 11.7123 14.0049 12.8583 14.0049H13.6777L13.9241 12.6672H13.1047V12.7064H13.1027Z" fill="white"/>
</svg>
