<svg width="61" height="38" viewBox="0 0 61 38" fill="none" xmlns="http://www.w3.org/2000/svg">
<path d="M13.1948 24.4424C13.0872 24.4521 12.9797 24.4717 12.8702 24.4717C8.93162 24.4717 4.99112 24.4678 1.05258 24.4776C0.761199 24.4776 0.688843 24.4033 0.688843 24.1138C0.698621 20.3611 0.698621 16.6083 0.688843 12.8556C0.688843 12.5837 0.751421 12.5075 1.02911 12.5114C2.46647 12.529 3.90382 12.5251 5.34117 12.529C5.52304 12.6776 5.56411 12.9025 5.63842 13.1059C6.97604 16.7256 8.32734 20.3396 9.663 23.9613C9.77447 24.2644 9.93092 24.3681 10.2419 24.3524C10.7132 24.3289 11.1844 24.3524 11.6557 24.3387C12.0312 24.3348 12.4086 24.3289 12.7841 24.3387C12.9288 24.3387 13.0814 24.3172 13.1928 24.4443L13.1948 24.4424Z" fill="white"/>
<path d="M52.6804 0.603904C54.3466 0.599993 56.0108 0.594126 57.677 0.590215C58.422 0.590215 59.1671 0.594126 59.9122 0.586304C60.0941 0.586304 60.1605 0.633238 60.1605 0.824885C60.1566 4.67151 60.1566 8.51814 60.1547 12.3667C60.1547 12.4195 60.1312 12.4704 60.1175 12.5232C59.4976 12.5818 58.8777 12.5388 58.2578 12.5486C57.7669 12.5564 57.2761 12.5486 56.7852 12.5505C56.5779 12.531 56.5818 12.3433 56.5349 12.2103C56.2357 11.3518 55.9482 10.4894 55.6568 9.62891C54.7964 7.07688 53.9027 4.53462 53.054 1.97868C52.9464 1.65601 52.8076 1.34507 52.7156 1.01849C52.6765 0.883552 52.614 0.748617 52.6785 0.603904H52.6804Z" fill="white"/>
<path d="M48.3985 0.603884C49.1221 0.603884 49.8476 0.603884 50.5711 0.603884C50.7413 0.684063 50.7765 0.850287 50.8293 1.00478C51.1617 1.96888 51.4864 2.93689 51.8129 3.90295C52.6675 6.4276 53.5456 8.94639 54.3865 11.475C54.4706 11.7253 54.584 11.9639 54.6524 12.2181C54.6837 12.3315 54.7756 12.4723 54.584 12.5466C53.8858 12.5466 53.1877 12.5466 52.4915 12.5466C52.2803 12.5114 52.2725 12.3217 52.2217 12.1751C51.9303 11.3361 51.6448 10.4952 51.3631 9.65431C50.489 7.04557 49.5699 4.45442 48.7094 1.84177C48.6136 1.55039 48.4845 1.27074 48.4004 0.975445C48.3652 0.852243 48.2968 0.727086 48.4004 0.601929L48.3985 0.603884Z" fill="white"/>
<path d="M54.6545 12.5055C53.7022 9.7032 52.7479 6.90085 51.7935 4.0985C51.4337 3.04445 51.0739 1.98843 50.7121 0.934375C50.673 0.820951 50.6182 0.713394 50.5713 0.603882C51.2733 0.603882 51.9754 0.603882 52.6774 0.603882C53.3795 2.67484 54.0796 4.7458 54.7836 6.81676C55.3859 8.58656 55.9922 10.3564 56.5964 12.1262C56.6375 12.2494 56.661 12.3784 56.6942 12.5055C56.1212 12.6014 55.5443 12.5251 54.9694 12.5466C54.8657 12.5505 54.7504 12.5857 54.6545 12.5055Z" fill="white"/>
<path d="M44.251 1.05758C44.8513 0.871798 45.4654 0.770108 46.0912 0.730997C46.14 0.693841 46.1889 0.697752 46.2398 0.72513C46.5038 1.36265 46.7033 2.02168 46.9242 2.67289C47.9842 5.78226 49.048 8.88968 50.1079 11.9991C50.1509 12.1242 50.2018 12.2455 50.2135 12.3784C50.2213 12.4586 50.2155 12.5349 50.1099 12.5486C49.4528 12.5486 48.7977 12.5486 48.1406 12.5486C47.9959 12.5329 47.99 12.4078 47.9587 12.308C47.1354 9.80293 46.2613 7.31348 45.4126 4.8162C45.0293 3.68783 44.6714 2.54773 44.2529 1.43109C44.2079 1.30985 44.1493 1.18274 44.249 1.05758H44.251Z" fill="white"/>
<path d="M11.5984 24.419C11.0509 24.4229 10.5033 24.4249 9.95574 24.4327C9.80321 24.4346 9.72694 24.3779 9.67219 24.2273C8.96231 22.303 8.24266 20.3807 7.52691 18.4564C6.83073 16.5849 6.13454 14.7115 5.44031 12.84C5.40315 12.7383 5.37577 12.6327 5.34253 12.5291C5.97809 12.5291 6.61561 12.5291 7.25118 12.5291C7.50149 12.9827 7.6286 13.4853 7.80852 13.9644C9.06009 17.3124 10.3019 20.6643 11.5456 24.0142C11.5926 24.1432 11.6864 24.2704 11.5984 24.419Z" fill="white"/>
<path d="M44.2517 1.05775C44.3026 1.45277 44.4923 1.80282 44.6174 2.17243C45.472 4.71664 46.3383 7.25889 47.2027 9.79919C47.4628 10.5638 47.7268 11.3265 47.9869 12.0911C48.0319 12.2241 48.0925 12.3571 48.071 12.5038C47.6505 12.5976 47.2242 12.5253 46.8018 12.5448C46.616 12.5527 46.4303 12.5448 46.2445 12.5448C46.047 12.5194 46.0294 12.3454 45.9824 12.2085C45.7536 11.5455 45.5229 10.8845 45.2999 10.2216C44.4473 7.67934 43.5575 5.15078 42.7127 2.60461C42.6403 2.38559 42.5406 2.17829 42.4761 1.95731C42.4389 1.83411 42.3724 1.70896 42.4761 1.5838C43.0491 1.34131 43.6377 1.15748 44.2517 1.05188V1.05775Z" fill="white"/>
<path d="M15.3495 24.2371C14.9857 24.3251 14.6181 24.3779 14.2426 24.3721C13.742 24.4385 13.7302 24.4346 13.566 23.9927C12.2088 20.326 10.8399 16.6612 9.48468 12.9945C9.42993 12.8478 9.32237 12.6992 9.42406 12.5271C9.97358 12.5271 10.5211 12.5271 11.0707 12.5271C11.1763 12.6014 11.2134 12.7148 11.2564 12.8302C12.5901 16.3913 13.8984 19.9603 15.2282 23.5214C15.3123 23.7443 15.4864 23.9692 15.3495 24.2352V24.2371Z" fill="white"/>
<path d="M37.9989 4.09063C38.5464 3.62716 39.1409 3.22822 39.7667 2.88013C39.9212 3.02093 39.9583 3.22235 40.019 3.40618C40.8775 5.98559 41.7868 8.54936 42.6414 11.1307C42.7587 11.4847 42.9132 11.825 43.011 12.1867C43.0443 12.3119 43.1342 12.4644 42.9387 12.5505C42.2816 12.5505 41.6265 12.5505 40.9694 12.5505C40.8618 12.5505 40.8247 12.4664 40.7875 12.3862C40.7328 12.2669 40.6858 12.1437 40.6448 12.0205C39.8078 9.48804 38.9141 6.97316 38.0732 4.44068C38.036 4.32726 37.9832 4.21579 37.9969 4.09063H37.9989Z" fill="white"/>
<path d="M15.3506 24.2371C15.2392 23.6192 14.9595 23.0579 14.7483 22.4751C14.2242 21.03 13.6708 19.5926 13.135 18.1513C12.4505 16.3111 11.7719 14.467 11.0933 12.6249C11.0816 12.5936 11.0797 12.5603 11.0718 12.5291C11.5764 12.5291 12.0809 12.5291 12.5855 12.5291C12.8006 12.7266 12.8377 13.0121 12.9296 13.2644C14.0561 16.3072 15.1844 19.3501 16.3226 22.3871C16.5142 22.8995 16.6609 23.4295 16.9327 23.9105C16.4184 24.0826 15.8884 24.1882 15.3487 24.2391L15.3506 24.2371Z" fill="white"/>
<path d="M43.0012 12.5054C42.7939 11.6782 42.4654 10.8901 42.1974 10.0825C41.4504 7.83159 40.674 5.5905 39.9114 3.34549C39.8586 3.191 39.753 3.05411 39.7667 2.88006C40.1812 2.60237 40.6173 2.36183 41.0808 2.17605C41.3116 2.16041 41.3311 2.35597 41.3839 2.49872C41.5912 3.07562 41.7887 3.65447 41.9843 4.23528C42.8682 6.85967 43.7834 9.47233 44.6497 12.1026C44.6947 12.2375 44.8785 12.4116 44.6341 12.5504C44.1921 12.5504 43.7521 12.5524 43.3102 12.5485C43.2065 12.5485 43.0951 12.5876 43.0012 12.5074V12.5054Z" fill="white"/>
<path d="M44.7123 12.5055C44.4307 11.6783 44.1491 10.8511 43.8675 10.0239C43.009 7.51293 42.1505 5.00197 41.292 2.48905C41.249 2.36389 41.2157 2.23482 41.0808 2.1742C41.5247 1.92975 41.9862 1.73028 42.4732 1.58752C42.657 2.33065 42.9503 3.03661 43.1928 3.76017C43.9301 5.96607 44.6849 8.16414 45.4339 10.3661C45.6764 11.0799 45.9189 11.7917 46.1614 12.5055C45.6784 12.5759 45.1954 12.5759 44.7123 12.5055Z" fill="white"/>
<path d="M16.9347 23.9086C16.7763 23.9086 16.7528 23.7873 16.7098 23.67C16.2326 22.3813 15.7515 21.0925 15.2724 19.8058C14.5215 17.7915 13.7666 15.7792 13.0157 13.765C12.8631 13.3563 12.7282 12.9417 12.5874 12.5291C13.0255 12.5291 13.4655 12.5291 13.9035 12.5291C14.1186 12.8028 14.1871 13.1431 14.3044 13.458C15.513 16.7238 16.7371 19.9837 17.9359 23.2535C17.977 23.363 18.0513 23.4705 17.9946 23.5976C17.6524 23.7404 17.3023 23.8519 16.9366 23.9086H16.9347Z" fill="white"/>
<path d="M11.5985 24.419C10.9257 22.5964 10.253 20.7757 9.57834 18.9531C9.04056 17.5001 8.49886 16.0491 7.95716 14.5961C7.75574 14.0544 7.54845 13.5127 7.34898 12.971C7.29618 12.8283 7.23164 12.6875 7.2512 12.5271C7.64623 12.5271 8.04125 12.5271 8.43628 12.5271C8.64162 12.7031 8.67291 12.9671 8.75895 13.1998C10.0868 16.7981 11.4322 20.3885 12.7601 23.9868C12.8109 24.1257 12.9048 24.2684 12.7816 24.419C12.3866 24.419 11.9915 24.419 11.5985 24.419Z" fill="white"/>
<path d="M48.3987 0.603886C48.5865 1.39199 48.9052 2.13902 49.1614 2.90365C49.9221 5.18581 50.7063 7.46015 51.4807 9.7384C51.7936 10.6595 52.1026 11.5825 52.4136 12.5036C52.0674 12.6014 51.7154 12.5192 51.3654 12.5466C51.1991 12.531 51.1698 12.396 51.1248 12.2728C50.7005 11.1093 50.3191 9.93005 49.9221 8.7567C49.1028 6.33765 48.256 3.92837 47.4581 1.5015C47.331 1.11429 47.245 0.719265 46.7443 0.660598C47.2919 0.556952 47.8453 0.586286 48.3968 0.601931L48.3987 0.603886Z" fill="white"/>
<path d="M33.4447 8.62772C34.0236 7.89242 34.6435 7.19233 35.2986 6.52547C35.4374 6.44334 35.4981 6.54698 35.5548 6.6389C35.6017 6.71321 35.6232 6.79925 35.6526 6.88139C36.2412 8.6551 36.8513 10.4229 37.4576 12.1908C37.4967 12.3081 37.612 12.4587 37.4028 12.5487C36.5756 12.5487 35.7484 12.5487 34.9212 12.5487C34.7843 12.5467 34.7393 12.4411 34.708 12.3375C34.3345 11.0839 33.8397 9.87343 33.4447 8.62772Z" fill="white"/>
<path d="M46.746 0.66272C47.3268 0.686187 47.2252 0.549296 47.4364 1.17313C48.3007 3.72125 49.167 6.26742 50.0334 8.81554C50.4519 10.0456 50.8743 11.2757 51.2967 12.5057C50.9232 12.5761 50.5496 12.5761 50.1781 12.5057C49.2257 9.70337 48.2714 6.90102 47.319 4.10063C46.9885 3.12871 46.6561 2.15678 46.3256 1.18486C46.2767 1.04015 46.2102 0.899345 46.2298 0.740943C46.2787 0.666631 46.3686 0.727254 46.4253 0.68032C46.5329 0.674453 46.6424 0.670542 46.7499 0.664675L46.746 0.66272Z" fill="white"/>
<path d="M37.9998 4.09082C38.1875 4.31767 38.2227 4.60905 38.3127 4.87305C39.134 7.27059 39.9456 9.67205 40.7552 12.0735C40.8041 12.2163 40.9116 12.3414 40.894 12.5057C40.3739 12.6015 39.8478 12.5213 39.3257 12.5487C39.1379 12.5213 39.1379 12.3531 39.0949 12.228C38.4007 10.2059 37.7025 8.18581 37.0279 6.15982C36.9203 5.83715 36.7873 5.52426 36.67 5.2055C37.0807 4.79483 37.5207 4.42131 37.9998 4.09082Z" fill="white"/>
<path d="M36.669 5.20532C36.931 5.35004 36.931 5.63946 37.0112 5.87022C37.5939 7.55007 38.1552 9.23969 38.7282 10.9234C38.9061 11.4495 39.1349 11.9579 39.2484 12.5055C38.6558 12.5759 38.0633 12.5759 37.4707 12.5055C36.8156 10.5832 36.1605 8.66084 35.5093 6.73654C35.4721 6.62508 35.4369 6.52925 35.2981 6.52534C35.7244 6.05405 36.1742 5.60622 36.669 5.20337V5.20532Z" fill="white"/>
<path d="M12.7835 24.417C12.7268 23.9555 12.5038 23.5488 12.3474 23.1205C11.7216 21.3976 11.0743 19.6826 10.4368 17.9636C9.77579 16.184 9.11676 14.4045 8.45773 12.6229C8.446 12.5916 8.44404 12.5584 8.43622 12.5271C8.76476 12.5271 9.09525 12.5271 9.42379 12.5271C9.98699 14.0642 10.5463 15.6032 11.1115 17.1403C11.6473 18.5953 12.1929 20.0463 12.7326 21.4993C13.0436 22.3383 13.3682 23.1733 13.6557 24.022C13.7632 24.3408 13.9568 24.4092 14.2443 24.3721C13.9001 24.464 13.5462 24.4346 13.1961 24.4425C13.0592 24.4346 12.9223 24.4249 12.7854 24.417H12.7835Z" fill="white"/>
<path d="M17.9904 23.5957C17.6365 22.6551 17.2786 21.7144 16.9285 20.7718C16.1756 18.7537 15.4188 16.7375 14.6777 14.7174C14.4117 13.9899 14.1008 13.278 13.9013 12.5271C14.2533 12.5271 14.6034 12.5271 14.9554 12.5271C15.0492 12.5936 15.0923 12.6933 15.1294 12.7989C16.3634 16.1508 17.6169 19.4968 18.8509 22.8487C18.8978 22.9758 18.9975 23.1029 18.9056 23.2515C18.6162 23.4099 18.3092 23.5155 17.9904 23.5957Z" fill="white"/>
<path d="M17.5875 12.5271C17.961 12.5271 18.3345 12.5271 18.7061 12.5271C18.8117 12.6014 18.8488 12.7168 18.8919 12.8302C19.8892 15.4996 20.8748 18.1748 21.8683 20.8442C21.9484 21.0593 22.0423 21.2685 22.144 21.4758C21.8389 21.7457 21.483 21.9374 21.1232 22.1231C20.9785 22.1094 20.9726 21.9784 20.9374 21.8846C20.1571 19.8273 19.4023 17.7622 18.6357 15.6991C18.2993 14.7956 17.9532 13.898 17.6325 12.9906C17.5797 12.8419 17.4682 12.6953 17.5875 12.5271Z" fill="white"/>
<path d="M18.9045 23.2515C18.2494 21.4797 17.5943 19.7099 16.9391 17.9382C16.3994 16.4852 15.8577 15.0322 15.3199 13.5772C15.1909 13.2292 15.0755 12.8771 14.9523 12.5271C15.2378 12.5271 15.5233 12.5271 15.8088 12.5271C15.9555 12.6288 15.9966 12.7891 16.0533 12.9436C16.8727 15.1652 17.7018 17.3809 18.5232 19.6024C18.8908 20.5997 19.2761 21.5912 19.6281 22.5944C19.6691 22.7098 19.7161 22.8213 19.6339 22.9386C19.409 23.0872 19.1529 23.1615 18.9045 23.2535V23.2515Z" fill="white"/>
<path d="M21.7351 12.5271C22.1966 12.5271 22.6562 12.5271 23.1177 12.5271C23.2819 12.6914 23.3054 12.9202 23.3817 13.1216C24.0661 14.9129 24.7154 16.7179 25.3979 18.5112C25.4135 18.5522 25.4194 18.5953 25.4214 18.6402C25.1104 18.9903 24.7858 19.3267 24.424 19.6239C24.2148 19.6239 24.1932 19.4479 24.1424 19.313C23.5616 17.7622 22.9906 16.2095 22.4117 14.6587C22.2005 14.0935 21.9913 13.5284 21.784 12.9632C21.7331 12.8263 21.6353 12.6855 21.7331 12.5271H21.7351Z" fill="white"/>
<path d="M19.6286 12.5271C20.0021 12.5271 20.3756 12.5271 20.7472 12.5271C20.9662 12.7344 21.0053 13.0297 21.1031 13.2898C21.9381 15.5348 22.7614 17.7837 23.6101 20.0248C23.6453 20.1167 23.6942 20.2047 23.6532 20.3084C23.4126 20.5508 23.1506 20.766 22.8611 20.9478C22.6187 20.9654 22.5835 20.764 22.5267 20.6115C22.208 19.7588 21.8814 18.9082 21.5705 18.0536C20.9505 16.3542 20.3032 14.6645 19.6872 12.9612C19.6364 12.8224 19.5288 12.6875 19.6286 12.5271Z" fill="white"/>
<path d="M19.636 22.9386C19.4639 22.26 19.1784 21.6206 18.9418 20.9654C18.4157 19.5203 17.8643 18.0829 17.3284 16.6416C16.82 15.2708 16.3174 13.8999 15.8109 12.5271C16.0964 12.5271 16.3819 12.5271 16.6694 12.5271C16.8337 12.5975 16.8611 12.7618 16.9119 12.9006C18.007 15.8614 19.11 18.8202 20.2051 21.7829C20.2951 22.0273 20.4398 22.2581 20.4359 22.5319C20.1895 22.7039 19.9176 22.8311 19.638 22.9386H19.636Z" fill="white"/>
<path d="M20.4344 22.5319C20.1411 21.9706 19.9631 21.3644 19.7421 20.7757C18.8328 18.3567 17.9332 15.9318 17.0317 13.5088C16.9105 13.1822 16.7892 12.8556 16.668 12.5271C16.975 12.5271 17.282 12.5271 17.5871 12.5271C17.7748 13.2683 18.0877 13.9664 18.3478 14.6822C18.8876 16.1684 19.4488 17.6449 20.0022 19.1252C20.3758 20.1245 20.7512 21.1238 21.1247 22.1231C20.9253 22.3109 20.6808 22.4243 20.4344 22.5299V22.5319Z" fill="white"/>
<path d="M19.6287 12.5271C20.1724 14.0036 20.7121 15.482 21.2597 16.9584C21.7192 18.1983 22.1866 19.4362 22.6442 20.678C22.6892 20.7992 22.7479 20.8931 22.8633 20.9478C22.6501 21.159 22.4037 21.3272 22.1456 21.4758C22.0087 21.4661 21.9754 21.3585 21.9363 21.2549C21.3086 19.5652 20.6769 17.8776 20.0511 16.1879C19.5994 14.9696 19.1555 13.7474 18.7076 12.5291C19.0147 12.5291 19.3217 12.5291 19.6287 12.5291V12.5271Z" fill="white"/>
<path d="M24.5661 12.5271C25.1586 12.5271 25.7512 12.5271 26.3437 12.5271C26.5491 12.9026 26.6508 13.3172 26.8052 13.7141C27.1103 14.4983 27.4056 15.2845 27.6794 16.0804C27.3078 16.5869 26.8991 17.0621 26.4669 17.5177C26.3007 17.5314 26.2753 17.3965 26.2342 17.2889C25.671 15.8203 25.141 14.3399 24.5857 12.8693C24.5446 12.7618 24.4801 12.6464 24.5681 12.5271H24.5661Z" fill="white"/>
<path d="M23.6548 20.3084C23.2461 19.4381 22.9586 18.521 22.6184 17.6233C21.9887 15.9611 21.3844 14.291 20.7704 12.6229C20.7586 12.5916 20.7567 12.5584 20.7488 12.5271C21.0774 12.5271 21.4079 12.5271 21.7364 12.5271C22.3055 14.0759 22.8726 15.6267 23.4417 17.1736C23.7018 17.8815 23.9677 18.5874 24.2278 19.2954C24.2728 19.4186 24.2963 19.5515 24.4253 19.6219C24.1946 19.8801 23.9267 20.0972 23.6548 20.3064V20.3084Z" fill="white"/>
<path d="M33.4455 8.62769C33.6392 8.75284 33.6587 8.97383 33.7252 9.16156C34.0459 10.0748 34.3568 10.9939 34.6678 11.9111C34.7343 12.1067 34.7832 12.3081 34.8399 12.5056C34.4038 12.6014 33.9618 12.5252 33.5238 12.5467C33.3947 12.5525 33.2637 12.5467 33.1346 12.5467C33.0271 12.5408 32.9899 12.4606 32.9606 12.3785C32.7083 11.7058 32.4775 11.0272 32.2624 10.3427C32.239 10.2684 32.237 10.1941 32.2624 10.1178C32.632 9.59961 33.0192 9.09703 33.4495 8.62573L33.4455 8.62769Z" fill="white"/>
<path d="M24.5657 12.5271C25.1152 14.0173 25.6609 15.5113 26.2202 16.9976C26.2866 17.1736 26.2788 17.3926 26.4646 17.5158C26.2671 17.7759 26.0461 18.0164 25.8075 18.2394C25.6393 18.2159 25.6257 18.0634 25.5826 17.9519C24.949 16.2368 24.3095 14.5257 23.6701 12.8126C23.6349 12.7207 23.5977 12.6268 23.6447 12.5271C23.9517 12.5271 24.2587 12.5271 24.5657 12.5271Z" fill="white"/>
<path d="M27.679 16.0804C27.4658 15.9787 27.4834 15.7499 27.4169 15.5758C27.0708 14.6802 26.7442 13.7787 26.4098 12.8791C26.3687 12.7657 26.3296 12.6523 26.3433 12.5291C26.8048 12.5291 27.2663 12.5291 27.7279 12.5291C27.8315 12.5662 27.8687 12.6581 27.9039 12.75C28.162 13.4423 28.4319 14.1307 28.6704 14.8308C28.3654 15.2688 28.0388 15.6873 27.679 16.0804Z" fill="white"/>
<path d="M23.645 12.5271C24.2258 14.0779 24.8027 15.6306 25.3855 17.1814C25.5185 17.5373 25.6671 17.8873 25.8079 18.2394C25.6984 18.3899 25.5791 18.5327 25.4226 18.6383C25.1567 18.3821 25.1176 18.0184 24.9963 17.6996C24.392 16.1175 23.8132 14.5257 23.2285 12.9358C23.1796 12.8028 23.1542 12.664 23.117 12.5271C23.293 12.5271 23.469 12.5271 23.645 12.5271Z" fill="white"/>
<path d="M28.6718 14.8308C28.3981 14.5824 28.3883 14.2109 28.2533 13.8999C28.0578 13.4521 27.9033 12.9867 27.7292 12.5271C28.6288 12.5252 29.5284 12.5232 30.426 12.5193C30.4338 12.5291 30.4416 12.5388 30.4495 12.5506C30.4397 12.5604 30.4299 12.5682 30.4221 12.578C29.8393 13.3289 29.2546 14.0798 28.6718 14.8308Z" fill="white"/>
<path d="M32.2572 10.1217C32.5251 10.9157 32.7911 11.7116 33.059 12.5056C32.9162 12.5916 32.7598 12.5466 32.6131 12.5447C31.8837 12.531 31.1523 12.5896 30.4229 12.5153L30.4268 12.5192C31.0252 11.7096 31.6099 10.8902 32.2591 10.1198L32.2572 10.1217Z" fill="white"/>
<path d="M30.4229 12.5153C31.3009 12.5114 32.1809 12.5094 33.059 12.5055C33.6515 12.5055 34.2441 12.5055 34.8366 12.5055C35.7147 12.5055 36.5927 12.5055 37.4708 12.5055C38.0633 12.5055 38.6558 12.5055 39.2484 12.5055C39.7979 12.5055 40.3455 12.5055 40.895 12.5055C41.597 12.5055 42.2991 12.5055 43.0012 12.5055C43.5722 12.5055 44.1432 12.5055 44.7123 12.5055C45.1953 12.5055 45.6783 12.5055 46.1614 12.5055C46.7969 12.5055 47.4345 12.5055 48.07 12.5055C48.7721 12.5055 49.4741 12.5055 50.1762 12.5055C50.5497 12.5055 50.9232 12.5055 51.2948 12.5055C51.6683 12.5055 52.0418 12.5055 52.4134 12.5055C53.1604 12.5055 53.9055 12.5055 54.6525 12.5055C55.333 12.5055 56.0136 12.5055 56.6941 12.5055C57.8362 12.5114 58.9763 12.5172 60.1184 12.5211C60.0284 12.617 59.913 12.5798 59.8074 12.5798C50.0569 12.5798 40.3044 12.5798 30.5539 12.5798C30.5109 12.5798 30.4659 12.5778 30.4229 12.5759C30.4229 12.5544 30.4229 12.5348 30.4229 12.5133V12.5153Z" fill="white"/>
<path d="M46.4224 0.678117C46.3715 0.744607 46.2952 0.727007 46.2268 0.73874C46.1818 0.734829 46.1368 0.732873 46.0919 0.728962C46.1955 0.666384 46.3089 0.67225 46.4224 0.676161V0.678117Z" fill="white"/>
<path d="M5.61874 32.7248C5.67741 32.6916 5.72629 32.6681 5.77127 32.6368C6.83315 31.8878 6.95244 29.6663 5.17678 29.0385C4.94993 28.9584 4.71917 28.884 4.48254 28.8449C3.28377 28.6455 2.07523 28.7765 0.870587 28.7374C0.684807 28.7315 0.692629 28.8508 0.692629 28.9779C0.692629 31.6883 0.692629 34.3968 0.690674 37.1073C0.690674 37.2637 0.712185 37.3439 0.901877 37.3419C1.97745 37.3321 3.05302 37.3615 4.12663 37.3224C4.92842 37.293 5.69501 37.0818 6.26799 36.4639C7.28098 35.3727 6.99547 33.6517 5.61874 32.7248ZM2.43701 31.2874C2.43701 31.2874 2.45265 31.2874 2.46047 31.2874C2.46047 30.9609 2.32945 30.5091 2.49372 30.339C2.70101 30.1219 3.15275 30.2823 3.49693 30.2705C3.64751 30.2647 3.80396 30.2842 3.95258 30.3155C4.52361 30.4407 4.79153 30.7673 4.77393 31.2914C4.75242 31.9132 4.49428 32.2242 3.87632 32.2887C3.45391 32.3317 3.02368 32.3083 2.59737 32.3219C2.45852 32.3259 2.43505 32.2555 2.43505 32.1401C2.43896 31.8546 2.43505 31.571 2.43505 31.2855L2.43701 31.2874ZM4.22636 35.7618C3.68467 35.8772 3.13319 35.8146 2.58759 35.8342C2.43701 35.84 2.43701 35.754 2.43701 35.6464C2.43896 35.3394 2.43701 35.0324 2.43701 34.7254C2.43701 34.4301 2.43701 34.1328 2.43701 33.8375C2.43701 33.73 2.43701 33.6439 2.58563 33.6498C3.13124 33.6713 3.68271 33.6029 4.22441 33.7163C4.80717 33.8395 5.09073 34.1895 5.08682 34.7782C5.08486 35.3238 4.81304 35.6347 4.22441 35.7618H4.22636Z" fill="white"/>
<path d="M30.4667 31.1642C29.3032 30.7124 28.1552 30.7926 27.152 31.6081C26.3815 32.2339 26.1195 33.1178 26.098 34.0663C26.0432 36.4227 27.5236 37.5394 29.1741 37.4827C30.6838 37.4827 31.7379 36.7024 32.1055 35.2983C32.2444 34.7644 32.2757 34.2208 32.2072 33.6693C32.0664 32.5253 31.5814 31.5964 30.4667 31.1642ZM30.2536 35.3902C30.058 35.8439 29.6845 36.0707 29.1858 36.0746C28.6891 36.0786 28.3293 35.8498 28.1005 35.4117C27.903 35.0323 27.8521 34.6236 27.8482 34.2032C27.8521 33.7827 27.901 33.372 28.1024 32.9946C28.3352 32.5624 28.693 32.3297 29.1917 32.3356C29.6943 32.3414 30.0639 32.58 30.2555 33.0278C30.5899 33.8081 30.588 34.608 30.2516 35.3902H30.2536Z" fill="white"/>
<path d="M19.6144 33.2782C19.5968 32.0892 18.9143 31.262 17.7547 31.0195C16.5266 30.7633 15.3415 30.9784 14.176 31.3832C13.9921 31.4478 13.9882 31.5612 13.9902 31.7098C13.9921 32.6094 13.9902 33.507 13.9902 34.4066C13.9902 35.2846 14 36.1607 13.9843 37.0368C13.9784 37.291 14.0567 37.3536 14.2972 37.3399C14.657 37.3184 15.0227 37.3145 15.3826 37.3399C15.6602 37.3595 15.7267 37.2715 15.7228 36.9977C15.7072 35.6053 15.715 34.213 15.7189 32.8206C15.7189 32.7111 15.6583 32.5644 15.8167 32.5057C16.333 32.318 16.8629 32.2065 17.3792 32.4627C17.8485 32.6954 17.9013 33.155 17.9013 33.6185C17.9013 34.7468 17.9131 35.8772 17.8935 37.0055C17.8896 37.291 17.9757 37.3536 18.2397 37.336C18.6112 37.3125 18.9847 37.3204 19.3582 37.3341C19.5479 37.3399 19.6242 37.3028 19.6223 37.0857C19.6105 35.8146 19.6301 34.5415 19.6125 33.2704L19.6144 33.2782Z" fill="white"/>
<path d="M38.7964 33.2626C38.7847 32.0951 38.1022 31.2581 36.9621 31.0215C35.734 30.7653 34.5469 30.9785 33.3775 31.3794C33.1878 31.4439 33.1976 31.5632 33.1976 31.7079C33.1976 32.5957 33.1976 33.4855 33.1976 34.3733C33.1976 35.2612 33.2093 36.151 33.1917 37.0388C33.1858 37.295 33.2641 37.3536 33.5046 37.34C33.8762 37.3184 34.2516 37.3184 34.6232 37.34C34.8618 37.3536 34.9087 37.2754 34.9068 37.0486C34.895 35.7657 34.9009 34.4809 34.9009 33.198C34.9009 32.4471 34.9263 32.4197 35.6831 32.3376C35.7379 32.3317 35.7926 32.3317 35.8474 32.3298C36.7039 32.3141 37.0814 32.6798 37.0833 33.5305C37.0833 34.7038 37.0911 35.8791 37.0775 37.0525C37.0755 37.2872 37.1439 37.3497 37.3708 37.34C37.7541 37.3204 38.1393 37.3263 38.5226 37.34C38.7201 37.3458 38.8081 37.3126 38.8062 37.0799C38.7925 35.8068 38.8101 34.5337 38.7964 33.2626Z" fill="white"/>
<path d="M49.5736 33.4346C49.5579 32.2769 49.0573 31.4477 48.1206 31.1211C47.0274 30.7398 45.9401 30.9119 44.8626 31.2287C44.7374 31.2658 44.7374 31.344 44.7668 31.4575C44.8469 31.7762 44.9193 32.0969 44.9838 32.4177C45.0171 32.5878 45.0757 32.621 45.2498 32.5604C45.7602 32.3805 46.2921 32.3081 46.8338 32.3375C47.5378 32.3766 47.9035 32.7657 47.9016 33.4463C47.9016 33.6379 47.8781 33.7064 47.6493 33.6751C47.0059 33.5871 46.3625 33.5695 45.7309 33.7768C44.843 34.0682 44.3463 34.7037 44.3444 35.5583C44.3444 36.4188 44.8567 37.1052 45.768 37.3359C47.0059 37.6488 48.2223 37.4924 49.4074 37.0328C49.5658 36.9722 49.5794 36.8646 49.5775 36.7238C49.5736 36.1645 49.5775 35.6053 49.5775 35.046C49.5775 34.4867 49.5834 33.9704 49.5775 33.4326L49.5736 33.4346ZM47.8977 35.4899C47.8977 36.1821 47.8507 36.2408 47.1545 36.2662C46.871 36.276 46.5815 36.2506 46.3371 36.0765C46.1005 35.9084 46.0203 35.6639 46.0555 35.3862C46.0966 35.0616 46.2804 34.8543 46.6011 34.7624C46.9942 34.6529 47.3814 34.7115 47.7725 34.7702C47.8957 34.7898 47.8957 34.8739 47.8957 34.9638C47.8957 35.1398 47.8957 35.3139 47.8957 35.4899H47.8977Z" fill="white"/>
<path d="M12.8382 35.0247C12.8382 34.4869 12.8441 33.9491 12.8382 33.4133C12.8186 32.0541 12.0912 31.1585 10.8298 30.9668C9.96154 30.8358 9.1089 30.9453 8.26409 31.182C8.0216 31.2504 7.98836 31.3599 8.05093 31.577C8.1272 31.839 8.18587 32.1069 8.24063 32.3749C8.27583 32.5509 8.31103 32.635 8.53592 32.5528C9.03264 32.3729 9.55673 32.3064 10.0886 32.3338C10.8083 32.3709 11.1799 32.7699 11.1681 33.4661C11.1642 33.6538 11.1251 33.6988 10.9256 33.6734C10.2607 33.5834 9.59193 33.5658 8.94268 33.7907C8.08809 34.086 7.59137 34.7528 7.60897 35.5801C7.62657 36.4366 8.12916 37.1054 9.02286 37.3342C10.2607 37.653 11.4771 37.4926 12.6622 37.0389C12.8147 36.9802 12.846 36.8844 12.8441 36.7378C12.8382 36.1667 12.8421 35.5977 12.8421 35.0266L12.8382 35.0247ZM10.4426 36.2626C10.1473 36.2802 9.84811 36.2489 9.59389 36.069C9.1617 35.7639 9.23602 35.056 9.721 34.8154C9.93416 34.7098 10.161 34.7 10.3918 34.702C11.1584 34.7079 11.1584 34.7059 11.1584 35.4627V35.496C11.1584 36.1863 11.1349 36.2195 10.4407 36.2626H10.4426Z" fill="white"/>
<path d="M60.1272 37.025C60.0841 36.8119 60.09 36.5889 60.0959 36.3699C60.1017 36.0785 60.0079 35.9983 59.6969 36.0531C58.9421 36.1841 58.5862 35.8575 58.5803 35.0831C58.5764 34.7096 58.5803 34.3361 58.5803 33.9645C58.5803 33.5265 58.5862 33.0865 58.5784 32.6484C58.5764 32.4939 58.6272 32.4353 58.7856 32.4392C59.0927 32.449 59.3997 32.4333 59.7067 32.445C59.8827 32.4529 59.9336 32.3903 59.9277 32.2201C59.916 31.9131 59.9121 31.6061 59.9277 31.2991C59.9394 31.1016 59.8612 31.0605 59.6833 31.0683C59.4212 31.082 59.1552 31.0566 58.8932 31.0761C58.6546 31.0937 58.5549 31.0331 58.5744 30.773C58.5979 30.4679 58.5744 30.159 58.5823 29.8519C58.5862 29.6896 58.551 29.6094 58.3652 29.6251C57.9291 29.6583 57.491 29.6798 57.053 29.6935C56.8946 29.6994 56.8477 29.7561 56.8535 29.9126C56.8653 30.2313 56.8516 30.5481 56.8594 30.8669C56.8633 31.0214 56.8105 31.0742 56.6521 31.0781C56.4487 31.084 56.173 30.9725 56.0635 31.1328C55.9657 31.2756 56.0341 31.5337 56.0302 31.741C56.0302 31.8173 56.0302 31.8955 56.0302 31.9718C56.0302 32.4411 56.0302 32.4626 56.4976 32.4333C56.8164 32.4138 56.8672 32.533 56.8672 32.8186C56.8672 33.7729 56.8085 34.7272 56.9024 35.6796C56.9885 36.5557 57.4871 37.1834 58.2576 37.3966C58.7641 37.5354 59.2804 37.4885 59.7947 37.4591C60.0783 37.4435 60.1937 37.3281 60.133 37.027L60.1272 37.025Z" fill="white"/>
<path d="M43.6366 36.3368C43.6406 36.063 43.5506 35.9985 43.269 36.0493C42.5454 36.1823 42.1484 35.8929 42.1269 35.2104C42.1015 34.3558 42.1211 33.4993 42.1152 32.6447C42.1152 32.4863 42.168 32.4335 42.3244 32.4393C42.6315 32.4472 42.9385 32.4354 43.2455 32.4452C43.4098 32.4511 43.4841 32.408 43.4782 32.2281C43.4665 31.9113 43.4665 31.5926 43.4782 31.2738C43.4841 31.1135 43.4274 31.0646 43.2709 31.0704C43.0187 31.0802 42.7625 31.047 42.5161 31.0802C42.1621 31.1271 42.0839 30.9785 42.1132 30.6617C42.1387 30.3899 42.1132 30.1142 42.1211 29.8404C42.125 29.6957 42.0956 29.6135 41.9236 29.6272C41.4757 29.6585 41.0279 29.682 40.5781 29.6996C40.4373 29.7054 40.3884 29.7543 40.3923 29.8951C40.4002 30.2139 40.3884 30.5307 40.3982 30.8494C40.4021 31.0157 40.3532 31.0743 40.1772 31.0802C39.5671 31.1017 39.5671 31.1095 39.5671 31.7236V31.8546C39.5671 32.4276 39.5671 32.4374 40.1459 32.4374C40.3532 32.4374 40.408 32.5019 40.4021 32.6994C40.3884 33.116 40.3982 33.5325 40.3982 34.0292C40.4119 34.5083 40.3767 35.0676 40.4354 35.625C40.541 36.6282 41.0963 37.2892 42.0331 37.4495C42.4868 37.5278 42.9502 37.4926 43.4098 37.4495C43.6484 37.4261 43.7188 37.3302 43.6816 37.0936C43.6425 36.8453 43.6366 36.591 43.6406 36.3388L43.6366 36.3368Z" fill="white"/>
<path d="M55.1027 35.7598C54.7292 35.9143 54.3635 36.0159 53.9822 36.0648C53.1334 36.1743 52.4783 35.8047 52.2495 35.0538C52.0755 34.4867 52.0696 33.9078 52.2495 33.3388C52.4529 32.6915 52.9477 32.3375 53.6282 32.3355C54.0486 32.3355 54.4554 32.4235 54.8446 32.5722C54.9775 32.623 55.0558 32.6308 55.091 32.4587C55.1575 32.1263 55.2337 31.7958 55.3237 31.4692C55.3667 31.3147 55.3198 31.26 55.1809 31.2091C54.7351 31.0449 54.2755 30.9627 53.8042 30.9197C52.2906 30.7809 51.041 31.5259 50.5873 32.8675C50.2841 33.7651 50.2861 34.6783 50.5892 35.5779C50.8024 36.2095 51.1876 36.7297 51.7821 37.0504C52.8968 37.6489 54.0486 37.6097 55.2161 37.2069C55.3452 37.1619 55.3765 37.0993 55.3452 36.9624C55.2552 36.5694 55.1848 36.1724 55.1027 35.7598Z" fill="white"/>
<path d="M25.2698 35.756C24.8885 35.9203 24.5189 36.0181 24.1375 36.063C23.1988 36.1765 22.5379 35.7247 22.354 34.8173C22.2582 34.3421 22.2602 33.8552 22.399 33.3839C22.5965 32.7053 23.105 32.3357 23.8129 32.3357C24.2236 32.3357 24.6186 32.4217 24.9999 32.5665C25.1622 32.629 25.2307 32.6095 25.2659 32.4315C25.3285 32.1206 25.4067 31.8136 25.4869 31.5065C25.5299 31.3403 25.4927 31.2562 25.3167 31.1956C24.8787 31.045 24.4289 30.959 23.9713 30.9179C22.3951 30.7732 21.1201 31.5945 20.7055 33.026C20.5001 33.7339 20.4923 34.4555 20.6449 35.1732C20.7681 35.7501 21.036 36.2566 21.4603 36.683C22.4733 37.6979 24.4309 37.6236 25.4263 37.1934C25.5495 37.1406 25.5358 37.0643 25.5123 36.9567C25.4282 36.5715 25.3578 36.1843 25.2718 35.758L25.2698 35.756Z" fill="white"/>
</svg>
